<?xml version="1.0" encoding="utf-8"?>
<!-- Generator: Adobe Illustrator 27.7.0, SVG Export Plug-In . SVG Version: 6.00 Build 0)  -->
<svg version="1.1" id="Capa_1" xmlns="http://www.w3.org/2000/svg" xmlns:xlink="http://www.w3.org/1999/xlink" x="0px" y="0px"
	 viewBox="0 0 708.7 708.7" style="enable-background:new 0 0 708.7 708.7;" xml:space="preserve">
<style type="text/css">
	.st0{fill:#1572B6;}
	.st1{fill:#33A9DC;}
	.st2{fill:#FFFFFF;}
	.st3{fill:#EBEBEB;}
</style>
<g>
	<polygon class="st0" points="98.8,637.8 41.9,0 666.7,0 609.9,637.7 353.9,708.7 	"/>
	<polygon class="st1" points="354.3,654.5 561.1,597.1 609.8,52.1 354.3,52.1 	"/>
	<polygon class="st2" points="354.3,283.3 457.9,283.3 465,203.1 354.3,203.1 354.3,124.9 354.6,124.9 550.5,124.9 548.6,145.9 
		529.4,361.4 354.3,361.4 	"/>
	<polygon class="st3" points="354.8,486.4 354.4,486.4 267.4,463 261.8,400.6 219.5,400.6 183.2,400.6 194.2,523.4 354.4,567.9 
		354.8,567.7 	"/>
	<polygon class="st2" points="451.2,358.2 441.8,463 354.5,486.4 354.5,567.8 514.9,523.4 516.1,510.2 529.7,358.2 	"/>
	<polygon class="st3" points="354.6,124.9 354.6,173.5 354.6,202.9 354.6,203.1 165.9,203.1 165.9,203.1 165.6,203.1 164.1,185.6 
		160.6,145.9 158.6,124.9 	"/>
	<polygon class="st3" points="354.3,283.3 354.3,331.9 354.3,361.3 354.3,361.4 268.6,361.4 268.6,361.4 268.3,361.4 266.8,343.9 
		263.2,304.2 261.3,283.3 	"/>
</g>
</svg>
