<?xml version="1.0" encoding="utf-8"?>
<!-- Generator: Adobe Illustrator 27.7.0, SVG Export Plug-In . SVG Version: 6.00 Build 0)  -->
<svg version="1.1" id="Capa_1" xmlns="http://www.w3.org/2000/svg" xmlns:xlink="http://www.w3.org/1999/xlink" x="0px" y="0px"
	 viewBox="0 0 708.7 708.7" style="enable-background:new 0 0 708.7 708.7;" xml:space="preserve">
<style type="text/css">
	.st0{fill:#44B78B;}
</style>
<path class="st0" d="M324.8,0h117.1v536.5C391.9,546.7,341,552,290,552.3c-143-0.1-217.4-64-217.4-186.7
	c0-118.1,78.9-194.9,201.3-194.9c17.2-0.3,34.3,1.7,50.9,5.9L324.8,0L324.8,0z M324.8,269.9c-12.7-4.2-26.1-6.2-39.5-5.9
	c-59.1,0-93.4,36.1-93.4,99.4c0,61.6,32.7,95.6,92.7,95.6c13.5,0,26.9-1,40.2-3v-186V269.9z"/>
<path class="st0" d="M627.9,178.9v268.7c0,92.5-6.9,137-27.3,175.3c-20.7,39-54.6,69.4-95.7,85.7l-108.6-51.2
	c39.5-13.5,72.5-41.2,92.7-77.6c16.7-33.1,22-71.5,22-172.4V178.9H627.9z"/>
<rect x="511" y="0.6" class="st0" width="117" height="118.9"/>
</svg>
