<?xml version="1.0" encoding="utf-8"?>
<!-- Generator: Adobe Illustrator 27.7.0, SVG Export Plug-In . SVG Version: 6.00 Build 0)  -->
<svg version="1.1" id="Capa_1" xmlns="http://www.w3.org/2000/svg" xmlns:xlink="http://www.w3.org/1999/xlink" x="0px" y="0px"
	 viewBox="0 0 708.7 708.7" style="enable-background:new 0 0 708.7 708.7;" xml:space="preserve">
<style type="text/css">
	.st0{fill:#1ABCFE;}
	.st1{fill:#0ACF83;}
	.st2{fill:#FF7262;}
	.st3{fill:#F24E1E;}
	.st4{fill:#A259FF;}
</style>
<path class="st0" d="M381.8,354.3c0-65.2,51.6-118.1,115.2-118.1c63.6,0,115.2,52.8,115.2,118.1c0,65.2-51.5,118.1-115.2,118.1
	C433.5,472.4,381.8,419.6,381.8,354.3z"/>
<path class="st1" d="M151.5,590.6c0-65.2,51.6-118.1,115.2-118.1h115.2v118.1c0,65.2-51.6,118.1-115.2,118.1
	S151.5,655.8,151.5,590.6z"/>
<path class="st2" d="M381.8,0v236.2H497c63.6,0,115.2-52.9,115.2-118.1C612.1,52.9,560.6,0,497,0H381.8z"/>
<path class="st3" d="M151.5,118.1c0,65.2,51.6,118.1,115.2,118.1h115.2V0H266.7C203.1,0,151.5,52.9,151.5,118.1z"/>
<path class="st4" d="M151.5,354.3c0,65.2,51.6,118.1,115.2,118.1h115.2V236.2H266.7C203.1,236.2,151.5,289,151.5,354.3z"/>
</svg>
