<?xml version="1.0" encoding="utf-8"?>
<!-- Generator: Adobe Illustrator 27.7.0, SVG Export Plug-In . SVG Version: 6.00 Build 0)  -->
<svg version="1.1" id="Capa_1" xmlns="http://www.w3.org/2000/svg" xmlns:xlink="http://www.w3.org/1999/xlink" x="0px" y="0px"
	 viewBox="0 0 708.7 708.7" style="enable-background:new 0 0 708.7 708.7;" xml:space="preserve">
<style type="text/css">
	.st0{fill:#DD4C35;}
	.st1{fill:#FFFFFF;}
</style>
<path class="st0" d="M695.3,322.8L385.9,13.4c-17.8-17.8-46.6-17.9-64.4-0.1c0,0-0.1,0.1-0.1,0.1l-64.3,64.3l81.5,81.5
	c28.3-9.6,59.1,5.5,68.7,33.8c3.9,11.4,3.9,23.8-0.1,35.2l78.4,78.4c28.3-9.7,59.2,5.3,68.9,33.7c9.7,28.3-5.3,59.2-33.7,68.9
	c-28.3,9.7-59.2-5.3-68.9-33.7c-4.3-12.5-3.9-26.1,1.2-38.3L379.9,264v192.8c26.8,13.3,37.8,45.8,24.5,72.6
	c-13.3,26.8-45.8,37.8-72.6,24.5c-26.8-13.3-37.8-45.8-24.5-72.6c5.8-11.8,15.8-21.1,28-26.1V260.7c-27.7-11.4-41-43.1-29.6-70.9
	c0-0.1,0.1-0.2,0.1-0.4l-80.2-80.3L13.4,321.4c-17.8,17.8-17.9,46.6-0.1,64.4c0,0,0.1,0.1,0.1,0.1l309.4,309.3
	c17.8,17.8,46.6,17.9,64.4,0.1c0,0,0.1-0.1,0.1-0.1l307.9-308c17.8-17.8,17.9-46.6,0.1-64.4c0,0-0.1-0.1-0.1-0.1"/>
<path class="st1" d="M258.3,81l80.5,80.5c28-9.5,58.4,5.4,67.9,33.4c3.8,11.3,3.8,23.6-0.1,34.8l77.5,77.5
	c28-9.6,58.5,5.3,68.1,33.3c9.6,28-5.3,58.5-33.3,68.1c-28,9.6-58.5-5.3-68.1-33.3c-4.2-12.3-3.8-25.8,1.1-37.8l-72.4-72.4v190.4
	c26.5,13.1,37.3,45.2,24.2,71.7c-13.1,26.5-45.2,37.3-71.7,24.2c-26.5-13.1-37.3-45.2-24.2-71.7c5.8-11.7,15.6-20.8,27.6-25.7V261.8
	c-27.4-11.2-40.5-42.6-29.3-70c0-0.1,0.1-0.2,0.1-0.4l-79.2-79.3"/>
</svg>
