<?xml version="1.0" encoding="utf-8"?>
<!-- Generator: Adobe Illustrator 27.7.0, SVG Export Plug-In . SVG Version: 6.00 Build 0)  -->
<svg version="1.1" id="Capa_1" xmlns="http://www.w3.org/2000/svg" xmlns:xlink="http://www.w3.org/1999/xlink" x="0px" y="0px"
	 viewBox="0 0 708.7 708.7" style="enable-background:new 0 0 708.7 708.7;" xml:space="preserve">
<style type="text/css">
	.st0{fill:#E44D26;}
	.st1{fill:#F16529;}
	.st2{fill:#EBEBEB;}
	.st3{fill:#FFFFFF;}
</style>
<g>
	<path class="st0" d="M666.7,0l-56.9,637.7l-255.9,71L98.9,637.8L41.9,0H666.7L666.7,0z"/>
	<path class="st1" d="M354.4,654.4L561.2,597l48.6-545H354.4V654.4z"/>
	<path class="st2" d="M243.6,208.6h110.6v-78.1H158.2l1.9,21l19.2,215.5h175.1v-78.2H250.8L243.6,208.6z M261.3,406.1h-78.5
		l10.9,122.8l160.3,44.4l0.3-0.1v-81.3l-0.3,0.1L267,468.4L261.3,406.1L261.3,406.1z"/>
	<path class="st3" d="M354.1,366.9h96.4l-9.1,101.5l-87.2,23.5v81.3l160.4-44.4l1.2-13.3l18.3-205.9l1.9-21H354.1V366.9L354.1,366.9
		z M354.1,208.4v0.2h189l1.5-17.6l3.5-39.7l1.9-21h-196V208.4L354.1,208.4z"/>
</g>
</svg>
