<?xml version="1.0" encoding="utf-8"?>
<!-- Generator: Adobe Illustrator 27.7.0, SVG Export Plug-In . SVG Version: 6.00 Build 0)  -->
<svg version="1.1" id="Capa_1" xmlns="http://www.w3.org/2000/svg" xmlns:xlink="http://www.w3.org/1999/xlink" x="0px" y="0px"
	 viewBox="0 0 708.7 708.7" style="enable-background:new 0 0 708.7 708.7;" xml:space="preserve">
<style type="text/css">
	.st0{fill:none;}
	.st1{fill:#5D87A1;}
	.st2{fill:#F8981D;}
</style>
<g>
	<path class="st0" d="M0,108.4h708.7v491.2H0V108.4z"/>
	<path class="st1" d="M170.3,554.7H143c-1-46.2-3.6-89.6-8-130.2h-0.2L93.1,554.7H72.4L31,424.5h-0.2c-3.1,39-5,82.5-5.8,130.2H0
		c1.6-58,5.7-112.6,12.1-163.4H46l39.5,120.1h0.2l39.7-120.1h32.4C164.8,450.8,169.1,505.4,170.3,554.7 M289,434.2
		c-11.2,60.4-25.8,104.3-44.1,131.7c-14.2,21.1-29.7,31.6-46.7,31.6c-4.5,0-10.1-1.4-16.7-4.1v-14.6c3.2,0.5,7,0.7,11.4,0.7
		c7.9,0,14.3-2.2,19.1-6.6c5.8-5.3,8.7-11.3,8.7-18c0-4.5-2.3-13.8-6.8-27.8l-30-93.1h26.8l21.5,69.7c4.9,15.9,6.9,26.8,6.1,33.2
		c11.8-31.4,20-65.7,24.7-102.9L289,434.2L289,434.2L289,434.2z"/>
	<path class="st2" d="M652.9,554.7h-77.7V391.3h26.1v143.3h51.6V554.7z M555,558.6l-30-14.9c2.7-2.2,5.2-4.6,7.5-7.3
		c12.8-15,19.1-37.2,19.1-66.5c0-54.1-21.2-81.1-63.6-81.1c-20.8,0-37,6.9-48.7,20.5c-12.8,15-19.1,37.1-19.1,66.3
		c0,28.7,5.7,49.8,17,63.1C447.5,551,463,557,483.9,557c7.8,0,14.9-1,21.3-2.9l39.1,22.7L555,558.6z M457.6,522
		c-6.6-10.7-10-27.7-10-51.3c0-41.1,12.5-61.7,37.5-61.7c13.1,0,22.6,4.9,28.8,14.8c6.6,10.7,10,27.6,10,50.9
		c0,41.5-12.5,62.2-37.5,62.2C473.4,536.8,463.8,531.9,457.6,522 M408.8,509.5c0,13.9-5.1,25.2-15.3,34.1
		c-10.2,8.9-23.8,13.3-40.9,13.3c-16,0-31.5-5.1-46.5-15.3l7-14.1c12.9,6.5,24.6,9.7,35.1,9.7c9.9,0,17.6-2.2,23.1-6.5
		c5.6-4.4,8.9-10.5,8.9-18.2c0-9.7-6.8-18.1-19.1-24.9c-11.5-6.3-34.3-19.4-34.3-19.4c-12.4-9.1-18.6-18.7-18.6-34.8
		c0-13.3,4.6-23.9,13.9-32.1s21.2-12.3,35.9-12.3c15.2,0,28.9,4.1,41.4,12.1l-6.3,14.1c-10.6-4.5-21.1-6.8-31.4-6.8
		c-8.4,0-14.9,2-19.3,6.1c-4.5,4-7.3,9.2-7.3,15.5c0,9.7,6.9,18.1,19.6,25.1c11.6,6.3,35.1,19.6,35.1,19.6
		C402.4,483.9,408.8,493.5,408.8,509.5"/>
	<path class="st1" d="M685.7,336.6c-15.8-0.4-28,1.2-38.3,5.5c-3,1.2-7.7,1.2-8.1,4.9c1.6,1.6,1.8,4.2,3.2,6.3
		c2.4,4,6.5,9.3,10.3,12.1c4.1,3.2,8.3,6.3,12.7,9.1c7.7,4.8,16.4,7.5,23.8,12.3c4.4,2.8,8.7,6.3,13.1,9.3c2.2,1.6,3.5,4.2,6.3,5.1
		v-0.5c-1.4-1.8-1.8-4.4-3.2-6.3l-5.9-5.7c-5.7-7.7-12.9-14.4-20.5-19.9c-6.3-4.4-20.1-10.3-22.7-17.6l-0.4-0.4
		c4.4-0.4,9.5-2,13.7-3.2c6.7-1.8,12.9-1.4,19.7-3.1c3.2-0.8,6.3-1.8,9.5-2.8v-1.9c-3.6-3.6-6.1-8.3-9.9-11.7
		c-10.1-8.7-21.1-17.2-32.6-24.2c-6.1-4-14.1-6.5-20.5-9.9c-2.4-1.2-6.3-1.8-7.7-3.8c-3.5-4.4-5.5-10.1-8.1-15.2
		c-5.7-10.9-11.3-22.8-16.2-34.4c-3.6-7.7-5.7-15.4-10.1-22.5c-20.3-33.5-42.5-53.9-76.4-73.8c-7.3-4.2-16-5.9-25.2-8.1l-14.9-0.8
		c-3.2-1.4-6.3-5.2-9.1-6.9c-11.3-7.1-40.3-22.5-48.6-2.2c-5.4,12.9,7.9,25.4,12.5,32c3.4,4.5,7.7,9.7,10.1,14.8
		c1.4,3.4,1.8,6.9,3.2,10.5c3.2,8.7,6.1,18.3,10.3,26.4c2.2,4.1,4.5,8.5,7.3,12.2c1.6,2.2,4.4,3.2,5,6.7c-2.8,3.9-3,9.9-4.6,14.8
		c-7.1,22.3-4.3,50,5.8,66.3c3.2,4.9,10.7,15.8,20.7,11.7c8.9-3.6,6.9-14.8,9.5-24.6c0.6-2.4,0.2-4,1.4-5.5v0.4
		c2.8,5.5,5.5,10.9,8.1,16.4c6.1,9.7,16.8,19.7,25.6,26.4c4.7,3.6,8.5,9.7,14.4,11.9v-0.6h-0.4c-1.2-1.8-3-2.6-4.5-3.9
		c-3.6-3.6-7.5-7.9-10.3-11.9c-8.3-11.1-15.6-23.3-22.1-35.9c-3.2-6.1-5.9-12.9-8.5-18.9c-1.2-2.4-1.2-5.9-3.2-7.1
		c-3,4.4-7.3,8.1-9.5,13.4c-3.8,8.5-4.2,18.9-5.6,29.8l-0.8,0.4c-6.3-1.6-8.5-8.1-10.9-13.6c-5.9-14.1-6.9-36.5-1.8-52.8
		c1.4-4.1,7.3-17.2,5-21.1c-1.2-3.8-5.2-5.9-7.3-8.9c-2.6-3.8-5.4-8.5-7.1-12.7c-4.7-11.1-7.1-23.3-12.2-34.3
		c-2.4-5.2-6.5-10.5-9.9-15.3c-3.8-5.3-7.9-9.1-10.9-15.4c-1-2.2-2.4-5.7-0.8-8.1c0.4-1.6,1.2-2.2,2.8-2.6c2.6-2.2,9.9,0.6,12.5,1.8
		c7.3,3,13.5,5.7,19.5,9.9c2.8,2,5.7,5.7,9.3,6.7h4.2c6.3,1.4,13.4,0.4,19.3,2.2c10.5,3.4,19.9,8.3,28.4,13.6
		c25.8,16.4,47.2,39.7,61.5,67.5c2.4,4.5,3.4,8.7,5.5,13.5c4.2,9.7,9.3,19.5,13.5,29c4.2,9.3,8.1,18.7,14.1,26.4
		c3,4.2,14.9,6.3,20.1,8.5c3.9,1.8,10.1,3.4,13.7,5.5c6.7,4.1,13.4,8.9,19.7,13.5C675.3,327.8,685.1,332.7,685.7,336.6 M484.4,165.1
		c-2.7,0-5.5,0.3-8.1,1v0.4h0.4c1.6,3.2,4.4,5.4,6.3,8.1c1.6,3.2,3,6.3,4.5,9.5l0.4-0.4c2.8-2,4.2-5.1,4.2-9.9
		c-1.2-1.4-1.4-2.8-2.4-4.2C488.6,167.6,486,166.7,484.4,165.1"/>
	<path class="st2" d="M704.6,554.6h4.1v-20h-6.2l-5,13.7l-5.5-13.7h-5.9v20h3.9v-15.3h0.2l5.7,15.3h3l5.7-15.3L704.6,554.6
		L704.6,554.6z M671.6,554.6h4.3V538h5.7v-3.4h-15.9v3.4h5.9V554.6L671.6,554.6z"/>
</g>
</svg>
