<?xml version="1.0" encoding="utf-8"?>
<!-- Generator: Adobe Illustrator 27.7.0, SVG Export Plug-In . SVG Version: 6.00 Build 0)  -->
<svg version="1.1" id="Capa_1" xmlns="http://www.w3.org/2000/svg" xmlns:xlink="http://www.w3.org/1999/xlink" x="0px" y="0px"
	 viewBox="0 0 708.7 708.7" style="enable-background:new 0 0 708.7 708.7;" xml:space="preserve">
<style type="text/css">
	.st0{fill:url(#SVGID_1_);}
	.st1{fill:#6280B6;}
	.st2{fill:#FFFFFF;}
	.st3{fill:#000004;}
</style>
<g>
	
		<radialGradient id="SVGID_1_" cx="49.5075" cy="621.4269" r="18.6115" gradientTransform="matrix(25 0 0 -25 -1024.937 15769.1514)" gradientUnits="userSpaceOnUse">
		<stop  offset="0" style="stop-color:#FFFFFF"/>
		<stop  offset="0.5" style="stop-color:#4C6B96"/>
		<stop  offset="1" style="stop-color:#231F20"/>
	</radialGradient>
	<ellipse class="st0" cx="354.3" cy="354.3" rx="354.3" ry="186.4"/>
	<ellipse class="st1" cx="354.3" cy="354.3" rx="340.5" ry="172.6"/>
	<path class="st2" d="M423.3,410l16.9-86.9c4.9-15.1,1.3-31.7-9.4-43.5c-14.7-10.4-32.7-15.2-50.6-13.3H351l8.4-43
		c0.6-3-1.4-5.9-4.4-6.5c-0.3-0.1-0.7-0.1-1-0.1h-40.5c-2.7,0-4.9,1.9-5.4,4.5L290,313.5c-1.4-9.9-5.6-19.1-12.1-26.7
		c-14.6-14.7-35-22.1-55.7-20.4h-78c-2.7,0-4.9,1.9-5.4,4.5l-36.3,186.8c-0.6,3,1.4,5.9,4.4,6.5c0.3,0.1,0.7,0.1,1,0.1h40.6
		c2.7,0,4.9-1.9,5.4-4.5l8.8-45.2h30.4c13.4,0.4,26.8-1.3,39.7-5.1c10.9-3.6,20.8-9.6,29.1-17.4c6.8-6.2,12.6-13.4,17.2-21.4
		l-7.3,37.3c-0.6,3,1.4,5.9,4.4,6.5c0.3,0.1,0.7,0.1,1,0.1h40.5c2.7,0,4.9-1.9,5.4-4.5l19.9-102.5h27.7c11.8,0,15.2,2.4,16.2,3.4
		c1,1,2.5,4.2,0.6,14.4L371.6,408c-0.6,3,1.4,5.9,4.4,6.5c0.3,0.1,0.7,0.1,1,0.1h41C420.7,414.5,422.8,412.6,423.3,410z
		 M236.1,338.3c-1.2,10.6-6.3,20.4-14.2,27.6c-9.9,6.2-21.6,9-33.3,8.1h-18l13-67.1H207c17.1,0,24,3.7,26.8,6.7
		C238.1,321.2,238.9,330.1,236.1,338.3z"/>
	<path class="st2" d="M595.9,286.8c-14.6-14.7-35-22.1-55.7-20.4H462c-2.7,0-4.9,1.9-5.4,4.5l-36.3,186.8c-0.6,3,1.4,5.9,4.4,6.5
		c0.3,0.1,0.7,0.1,1,0.1h40.7c2.7,0,4.9-1.9,5.4-4.5l8.8-45.2H511c13.4,0.4,26.8-1.3,39.7-5.1c10.9-3.6,20.8-9.6,29.1-17.4
		c14.2-12.8,23.8-30,27.2-48.8C612.6,323.8,608.4,302.8,595.9,286.8z M553.7,338.3c-1.2,10.6-6.3,20.4-14.2,27.6
		c-10,6.2-21.7,9-33.4,8.1h-18l13-67.1h23.3c17.1,0,24,3.7,26.8,6.7C555.7,321.1,556.5,330.1,553.7,338.3L553.7,338.3z"/>
	<path class="st3" d="M207,301.4c11-1.4,22.2,1.7,30.9,8.6c5.7,8.7,7,19.5,3.7,29.4c-1.4,12-7.2,23-16.2,31
		c-10.9,7-23.7,10.3-36.6,9.4h-24.8l15.2-78.2L207,301.4z M107.8,458.7h40.7l9.6-49.7H193c12.8,0.4,25.6-1.3,38-4.8
		c10.1-3.3,19.4-8.9,27.1-16.2c13.3-12,22.3-28.1,25.6-45.8c5.2-17.8,1.6-37-9.7-51.7c-13.6-13.5-32.4-20.2-51.5-18.5h-78.1
		L107.8,458.7z"/>
	<path class="st3" d="M313.5,222.3H354l-9.8,49.7h36c16.5-1.7,33.1,2.5,46.8,11.8c9.2,10.5,12.2,25.1,7.7,38.4L417.8,409h-41
		l16.1-82.6c2.3-6.4,1.5-13.5-2-19.2c-5.9-4.2-13.1-6-20.2-5.1h-32.3l-20.8,107h-40.5L313.5,222.3z"/>
	<path class="st3" d="M524.6,301.4c11-1.4,22.2,1.7,30.9,8.6c5.7,8.7,7,19.5,3.7,29.4c-1.4,12-7.2,23-16.2,31
		c-10.9,7-23.8,10.3-36.7,9.4h-24.8l15.2-78.2L524.6,301.4z M425.4,458.7h40.7l9.6-49.7h34.9c12.8,0.4,25.6-1.3,38-4.8
		c10.1-3.3,19.4-8.9,27.1-16.2c13.3-12,22.3-28.1,25.6-45.8c5.2-17.8,1.6-37-9.7-51.7c-13.6-13.5-32.4-20.2-51.5-18.5h-78.3
		L425.4,458.7z"/>
</g>
</svg>
