<?xml version="1.0" encoding="utf-8"?>
<!-- Generator: Adobe Illustrator 27.7.0, SVG Export Plug-In . SVG Version: 6.00 Build 0)  -->
<svg version="1.1" id="Capa_1" xmlns="http://www.w3.org/2000/svg" xmlns:xlink="http://www.w3.org/1999/xlink" x="0px" y="0px"
	 viewBox="0 0 708.7 708.7" style="enable-background:new 0 0 708.7 708.7;" xml:space="preserve">
<style type="text/css">
	.st0{fill:#0F80CC;}
	.st1{fill:url(#SVGID_1_);}
	.st2{fill:#003B57;}
</style>
<g>
	<path class="st0" d="M536.3,31.4H91.7c-29.9,0.1-54.1,24.3-54.2,54.2V576c0.1,29.9,24.3,54.1,54.2,54.2h292.9
		C381.2,484.4,431,201.7,536.3,31.4z"/>
	
		<linearGradient id="SVGID_1_" gradientUnits="userSpaceOnUse" x1="-48.4035" y1="592.0046" x2="-46.8172" y2="592.0046" gradientTransform="matrix(0 287.15 -287.15 0 170280.8906 13957.4385)">
		<stop  offset="0" style="stop-color:#97D9F6"/>
		<stop  offset="0.92" style="stop-color:#0F80CC"/>
		<stop  offset="1" style="stop-color:#0F80CC"/>
	</linearGradient>
	<path class="st1" d="M520.2,47.3H91.7c-21.2,0-38.3,17.2-38.4,38.4v454.6c109.9-41.5,226-64.4,343.4-67.9
		C427.8,327.9,469.1,185.8,520.2,47.3z"/>
	<path class="st2" d="M640.1,15.4c-30.4-27.2-67.3-16.2-103.8,16c-5.4,4.8-10.8,10.1-16.1,15.8c-68.6,81.1-116,177.9-138,281.7
		c6.8,14.8,12.2,30.3,16,46.1c0.9,3.5,1.7,6.9,2.5,9.7c1.6,6.7,2.5,11.1,2.5,11.1s-0.6-2.1-2.9-8.8l-1.5-4.3c-0.3-0.7-0.6-1.5-1-2.4
		c-4-9.4-15.2-29.4-20.2-38c-4.2,12.5-8,24.1-11.1,34.7c10.5,22.6,18.2,46.4,23,70.9c0,0-0.8-2.9-4.3-13
		c-6.9-14.8-14.5-29.2-22.8-43.2c-5.4,13.9-7.7,28.8-6.7,43.6c5.6,11.1,9.8,22.9,12.5,35c8.5,32.5,14.3,72,14.3,72s0.2,2.5,0.5,6.7
		c-1.1,27-0.6,54.1,1.6,81.1c1.3,26.7,6.2,53.1,14.8,78.5l4.6-2.5c-10.6-38.1-14.7-77.7-12.1-117.1c4.8-83.6,21.3-166.2,49-245.2
		c50.9-134.3,121.5-242.1,186-293.6c-58.9,53.1-138.5,225.2-162.4,289c-25.1,65.6-44.2,133.4-57,202.5
		c15.3-38.6,45.1-69.5,83.1-86.1c0,0,31.2-38.5,67.7-93.5c-23.6,4.9-46.8,11.1-69.7,18.6c-17.7,7.4-22.5,10-22.5,10
		c33.8-20.4,69.5-37.4,106.7-50.8c67.7-106.7,141.5-258.1,67.2-324.5"/>
</g>
</svg>
