<?xml version="1.0" encoding="utf-8"?>
<!-- Generator: Adobe Illustrator 27.7.0, SVG Export Plug-In . SVG Version: 6.00 Build 0)  -->
<svg version="1.1" id="Capa_1" xmlns="http://www.w3.org/2000/svg" xmlns:xlink="http://www.w3.org/1999/xlink" x="0px" y="0px"
	 viewBox="0 0 708.7 708.7" style="enable-background:new 0 0 708.7 708.7;" xml:space="preserve">
<style type="text/css">
	.st0{fill:#44A8B3;}
</style>
<path class="st0" d="M177.2,288c23.6-94.5,82.7-141.7,177.2-141.7c141.7,0,159.4,106.3,230.3,124c47.2,11.8,88.6-5.9,124-53.1
	C685,311.6,626,358.8,531.5,358.8c-141.7,0-159.4-106.3-230.3-124C253.9,223,212.6,240.7,177.2,288z M0,500.6
	c23.6-94.5,82.7-141.7,177.2-141.7c141.7,0,159.4,106.3,230.3,124c47.2,11.8,88.6-5.9,124-53.1c-23.6,94.5-82.7,141.7-177.2,141.7
	c-141.7,0-159.4-106.3-230.3-124C76.8,435.6,35.4,453.3,0,500.6z"/>
</svg>
