<?xml version="1.0" encoding="utf-8"?>
<!-- Generator: Adobe Illustrator 27.7.0, SVG Export Plug-In . SVG Version: 6.00 Build 0)  -->
<svg version="1.1" id="Capa_1" xmlns="http://www.w3.org/2000/svg" xmlns:xlink="http://www.w3.org/1999/xlink" x="0px" y="0px"
	 viewBox="0 0 708.7 708.7" style="enable-background:new 0 0 708.7 708.7;" xml:space="preserve">
<style type="text/css">
	.st0{filter:url(#Adobe_OpacityMaskFilter);}
	.st1{fill:#FFFFFF;}
	.st2{mask:url(#mask-2_00000045597057519369102880000004060689567351708565_);fill:#0065A9;}
	.st3{filter:url(#Adobe_OpacityMaskFilter_00000045586748390011208060000005045809847774893970_);}
	.st4{mask:url(#mask-2_00000153700303695562090200000015896212163784560029_);fill:#007ACC;}
	.st5{filter:url(#Adobe_OpacityMaskFilter_00000124883121828463313290000006146953910811749765_);}
	.st6{mask:url(#mask-2_00000108283073389951300570000008762623932782792113_);fill:#1F9CF0;}
	.st7{filter:url(#Adobe_OpacityMaskFilter_00000017481854064582588230000010696615287855123372_);}
	.st8{mask:url(#mask-2_00000129928241819591011390000005846354158595313071_);fill:url(#SVGID_1_);fill-opacity:0.25;}
</style>
<g>
	<defs>
		<filter id="Adobe_OpacityMaskFilter" filterUnits="userSpaceOnUse" x="0" y="1.3" width="708.7" height="535.3">
			<feColorMatrix  type="matrix" values="1 0 0 0 0  0 1 0 0 0  0 0 1 0 0  0 0 0 1 0"/>
		</filter>
	</defs>
	
		<mask maskUnits="userSpaceOnUse" x="0" y="1.3" width="708.7" height="535.3" id="mask-2_00000045597057519369102880000004060689567351708565_">
		<g class="st0">
			<path id="path-1_00000013913330678106253440000010924151962745024641_" class="st1" d="M502.2,702.8c11.2,4.3,23.9,4.1,35.1-1.4
				l145.8-70.2c15.3-7.4,25.1-22.9,25.1-39.9V115.7c0-17-9.7-32.5-25.1-39.9L537.4,5.6c-14.8-7.1-32.1-5.4-45,4.1
				c-1.9,1.3-3.6,2.9-5.3,4.5L207.9,268.8L86.3,176.6c-11.3-8.6-27.2-7.9-37.7,1.7l-39,35.5c-12.9,11.7-12.9,31.9,0,43.6l105.4,96.2
				L9.6,449.7c-12.8,11.7-12.8,31.9,0,43.6l39,35.5c10.5,9.6,26.3,10.3,37.7,1.7l121.6-92.3L487,692.9
				C491.5,697.3,496.6,700.6,502.2,702.8z M531.3,192.8L319.5,353.5l211.8,160.8V192.8z"/>
		</g>
	</mask>
	<path class="st2" d="M683.6,75.9L537.7,5.6c-16.9-8.1-37.1-4.7-50.3,8.6L9.6,449.7c-12.8,11.7-12.8,31.9,0,43.6l39,35.5
		c10.5,9.6,26.4,10.3,37.7,1.7L661.6,94.1c19.3-14.6,47-0.9,47,23.3v-1.7C708.7,98.8,698.9,83.3,683.6,75.9z"/>
	<defs>
		
			<filter id="Adobe_OpacityMaskFilter_00000123425437955918834020000013750985883882679996_" filterUnits="userSpaceOnUse" x="0" y="170.6" width="708.7" height="535.3">
			<feColorMatrix  type="matrix" values="1 0 0 0 0  0 1 0 0 0  0 0 1 0 0  0 0 0 1 0"/>
		</filter>
	</defs>
	
		<mask maskUnits="userSpaceOnUse" x="0" y="170.6" width="708.7" height="535.3" id="mask-2_00000153700303695562090200000015896212163784560029_">
		<g style="filter:url(#Adobe_OpacityMaskFilter_00000123425437955918834020000013750985883882679996_);">
			<path id="path-1_00000181057597729359501600000004704939317961329045_" class="st1" d="M502.2,702.8c11.2,4.3,23.9,4.1,35.1-1.4
				l145.8-70.2c15.3-7.4,25.1-22.9,25.1-39.9V115.7c0-17-9.7-32.5-25.1-39.9L537.4,5.6c-14.8-7.1-32.1-5.4-45,4.1
				c-1.9,1.3-3.6,2.9-5.3,4.5L207.9,268.8L86.3,176.6c-11.3-8.6-27.2-7.9-37.7,1.7l-39,35.5c-12.9,11.7-12.9,31.9,0,43.6l105.4,96.2
				L9.6,449.7c-12.8,11.7-12.8,31.9,0,43.6l39,35.5c10.5,9.6,26.3,10.3,37.7,1.7l121.6-92.3L487,692.9
				C491.5,697.3,496.6,700.6,502.2,702.8z M531.3,192.8L319.5,353.5l211.8,160.8V192.8z"/>
		</g>
	</mask>
	<path class="st4" d="M683.6,631.2l-145.9,70.3c-16.9,8.1-37.1,4.7-50.3-8.6L9.6,257.3c-12.8-11.7-12.8-31.9,0-43.6l39-35.5
		c10.5-9.6,26.4-10.3,37.7-1.7L661.6,613c19.3,14.6,47,0.9,47-23.3v1.7C708.7,608.3,698.9,623.8,683.6,631.2z"/>
	<defs>
		
			<filter id="Adobe_OpacityMaskFilter_00000021086817310380083090000004931918715648779948_" filterUnits="userSpaceOnUse" x="486.9" y="1.3" width="221.3" height="704.6">
			<feColorMatrix  type="matrix" values="1 0 0 0 0  0 1 0 0 0  0 0 1 0 0  0 0 0 1 0"/>
		</filter>
	</defs>
	
		<mask maskUnits="userSpaceOnUse" x="486.9" y="1.3" width="221.3" height="704.6" id="mask-2_00000108283073389951300570000008762623932782792113_">
		<g style="filter:url(#Adobe_OpacityMaskFilter_00000021086817310380083090000004931918715648779948_);">
			<path id="path-1_00000139281663490130078870000003426680250109981333_" class="st1" d="M502.2,702.8c11.2,4.3,23.9,4.1,35.1-1.4
				l145.8-70.2c15.3-7.4,25.1-22.9,25.1-39.9V115.7c0-17-9.7-32.5-25.1-39.9L537.4,5.6c-14.8-7.1-32.1-5.4-45,4.1
				c-1.9,1.3-3.6,2.9-5.3,4.5L207.9,268.8L86.3,176.6c-11.3-8.6-27.2-7.9-37.7,1.7l-39,35.5c-12.9,11.7-12.9,31.9,0,43.6l105.4,96.2
				L9.6,449.7c-12.8,11.7-12.8,31.9,0,43.6l39,35.5c10.5,9.6,26.3,10.3,37.7,1.7l121.6-92.3L487,692.9
				C491.5,697.3,496.6,700.6,502.2,702.8z M531.3,192.8L319.5,353.5l211.8,160.8V192.8z"/>
		</g>
	</mask>
	<path class="st6" d="M537.2,701.5c-16.9,8.1-37.1,4.7-50.3-8.6c16.3,16.3,44.3,4.8,44.3-18.3V32.6c0-23.1-27.9-34.7-44.3-18.3
		C500.1,1,520.3-2.5,537.2,5.7l145.9,70.2c15.3,7.4,25.1,22.9,25.1,39.9v475.7c0,17-9.7,32.5-25.1,39.9L537.2,701.5z"/>
	<defs>
		
			<filter id="Adobe_OpacityMaskFilter_00000012431414714180127710000017542565819600313519_" filterUnits="userSpaceOnUse" x="0" y="1.3" width="708.2" height="704.6">
			<feColorMatrix  type="matrix" values="1 0 0 0 0  0 1 0 0 0  0 0 1 0 0  0 0 0 1 0"/>
		</filter>
	</defs>
	
		<mask maskUnits="userSpaceOnUse" x="0" y="1.3" width="708.2" height="704.6" id="mask-2_00000129928241819591011390000005846354158595313071_">
		<g style="filter:url(#Adobe_OpacityMaskFilter_00000012431414714180127710000017542565819600313519_);">
			<path id="path-1_00000183961887254377995060000012310408681392273330_" class="st1" d="M502.2,702.8c11.2,4.3,23.9,4.1,35.1-1.4
				l145.8-70.2c15.3-7.4,25.1-22.9,25.1-39.9V115.7c0-17-9.7-32.5-25.1-39.9L537.4,5.6c-14.8-7.1-32.1-5.4-45,4.1
				c-1.9,1.3-3.6,2.9-5.3,4.5L207.9,268.8L86.3,176.6c-11.3-8.6-27.2-7.9-37.7,1.7l-39,35.5c-12.9,11.7-12.9,31.9,0,43.6l105.4,96.2
				L9.6,449.7c-12.8,11.7-12.8,31.9,0,43.6l39,35.5c10.5,9.6,26.3,10.3,37.7,1.7l121.6-92.3L487,692.9
				C491.5,697.3,496.6,700.6,502.2,702.8z M531.3,192.8L319.5,353.5l211.8,160.8V192.8z"/>
		</g>
	</mask>
	
		<linearGradient id="SVGID_1_" gradientUnits="userSpaceOnUse" x1="70.6868" y1="637.3497" x2="70.6868" y2="636.4609" gradientTransform="matrix(796.8879 0 0 -792.7788 -55975.3633 505278.5625)">
		<stop  offset="0" style="stop-color:#FFFFFF"/>
		<stop  offset="1" style="stop-color:#FFFFFF;stop-opacity:0"/>
	</linearGradient>
	<path class="st8" d="M502.2,702.8c11.2,4.3,23.9,4.1,35.1-1.4l145.8-70.2c15.3-7.4,25.1-22.9,25.1-39.9V115.7
		c0-17-9.7-32.5-25.1-39.9L537.4,5.6c-14.8-7.1-32.1-5.4-45,4.1c-1.9,1.3-3.6,2.9-5.3,4.5L207.9,268.8L86.3,176.6
		c-11.3-8.6-27.2-7.9-37.7,1.7l-39,35.5c-12.9,11.7-12.9,31.9,0,43.6l105.4,96.2L9.6,449.7c-12.8,11.7-12.8,31.9,0,43.6l39,35.5
		c10.5,9.6,26.3,10.3,37.7,1.7l121.6-92.3L487,692.9C491.5,697.3,496.6,700.6,502.2,702.8z M531.3,192.8L319.5,353.5l211.8,160.8
		V192.8z"/>
</g>
</svg>
