<?xml version="1.0" encoding="UTF-8"?>
<svg id="Capa_1" data-name="Capa 1" xmlns="http://www.w3.org/2000/svg" viewBox="0 0 800.02 800.02">
  <defs>
    <style>
      .cls-1 {
        fill: #00759d;
      }

      .cls-2 {
        fill: #fff;
      }
    </style>
  </defs>
  <circle class="cls-2" cx="400" cy="400" r="400"/>
  <g id="Icons">
    <g id="Color-">
      <path id="Wordpress" class="cls-1" d="m.02,399.99C.02,558.32,92.02,695.15,225.45,759.97L34.65,237.21C12.47,286.93.02,341.99.02,399.99Zm670.03-20.18c0-49.45-17.78-83.68-32.98-110.3-20.28-32.98-39.3-60.88-39.3-93.83,0-36.78,27.88-71,67.18-71,1.78,0,3.45.22,5.18.32C598.97,39.8,504.14,0,400.01,0,260.26,0,137.33,71.7,65.8,180.28c9.4.3,18.25.48,25.75.48,41.83,0,106.6-5.08,106.6-5.08,21.55-1.27,24.1,30.43,2.55,32.95,0,0-21.68,2.55-45.78,3.82l145.65,433.26,87.55-262.53-62.3-170.73c-21.55-1.27-41.98-3.82-41.98-3.82-21.55-1.27-19.03-34.23,2.55-32.95,0,0,66.05,5.08,105.35,5.08,41.83,0,106.6-5.08,106.6-5.08,21.58-1.27,24.1,30.43,2.55,32.95,0,0-21.7,2.55-45.78,3.82l144.55,429.96,39.93-133.3c17.25-55.35,30.43-95.08,30.43-129.3Zm80.97-171.72c1.73,12.75,2.7,26.4,2.7,41.13,0,40.58-7.6,86.2-30.43,143.28l-122.18,353.24c118.93-69.33,198.91-198.18,198.91-345.74,0-69.55-17.78-134.93-49-191.91Zm-343.98,226.89l-120.03,348.74c35.85,10.55,73.75,16.3,113,16.3,46.58,0,91.25-8.05,132.83-22.68-1.05-1.73-2.05-3.53-2.85-5.5l-122.95-336.86Z"/>
    </g>
  </g>
</svg>