<?xml version="1.0" encoding="utf-8"?>
<!-- Generator: Adobe Illustrator 27.7.0, SVG Export Plug-In . SVG Version: 6.00 Build 0)  -->
<svg version="1.1" id="Layer_1" xmlns="http://www.w3.org/2000/svg" xmlns:xlink="http://www.w3.org/1999/xlink" x="0px" y="0px"
	 viewBox="0 0 427.2 280.5" style="enable-background:new 0 0 427.2 280.5;" xml:space="preserve">
<style type="text/css">
	.st0{fill:#F5F5F5;stroke:#000000;stroke-width:2;stroke-miterlimit:10;}
	.st1{fill:#FF4B55;stroke:#000000;stroke-width:2;stroke-miterlimit:10;}
	.st2{fill:#41479B;stroke:#000000;stroke-width:2;stroke-miterlimit:10;}
	.st3{fill:none;stroke:#000000;stroke-width:2;stroke-miterlimit:10;}
</style>
<g>
	<g>
		<polygon class="st0" points="198.9,129.6 229.9,129.6 262.7,108.1 198.9,108.1 		"/>
		<path class="st0" d="M2.2,24c-0.1,0.4-0.2,0.8-0.3,1.1C2,24.8,2.1,24.4,2.2,24z"/>
		<polygon class="st0" points="198.9,86.7 295.4,86.7 328.1,65.3 198.9,65.3 		"/>
		<path class="st0" d="M394.3,1c0.7,0,1.3,0,2,0.1C395.7,1,395,1,394.3,1L191.6,1c0,0,0,0,0,0H394.3z"/>
		<path class="st0" d="M400.9,1.7c0.6,0.1,1.2,0.3,1.8,0.4C402.1,2,401.5,1.8,400.9,1.7z"/>
		<path class="st0" d="M15.8,6c0.2-0.1,0.3-0.2,0.5-0.3c0,0,0.1-0.1,0.1-0.1C16.2,5.7,15.9,5.9,15.8,6C15.7,6,15.8,6,15.8,6z"/>
		<path class="st0" d="M2.8,22.4L2.8,22.4C2.8,22.4,2.8,22.4,2.8,22.4c0.1-0.2,0.1-0.3,0.2-0.5c-0.2,0.5-0.4,1-0.5,1.6
			C2.5,23.2,2.6,22.8,2.8,22.4z"/>
		<path class="st0" d="M4.1,19.2c0-0.1,0.1-0.1,0.1-0.2c0-0.1,0.1-0.1,0.1-0.2c-0.2,0.4-0.3,0.7-0.5,1.1C3.9,19.6,4,19.4,4.1,19.2z"
			/>
		<path class="st0" d="M11.3,9.4C11.3,9.4,11.4,9.3,11.3,9.4c0.1-0.1,0.2-0.2,0.2-0.2c-0.2,0.2-0.4,0.4-0.6,0.6
			C11.1,9.6,11.2,9.5,11.3,9.4z"/>
		<path class="st0" d="M1.8,25.8c-0.1,0.4-0.2,0.7-0.2,1.1C1.6,26.5,1.7,26.2,1.8,25.8z"/>
		<path class="st0" d="M405,2.8c0.6,0.2,1.2,0.5,1.8,0.7C406.3,3.3,405.7,3.1,405,2.8z"/>
		<path class="st0" d="M407,3.6c0.6,0.2,1.1,0.5,1.7,0.8C408.1,4.1,407.5,3.9,407,3.6z"/>
		<path class="st0" d="M398.9,1.3c0.7,0.1,1.3,0.2,1.9,0.3C400.2,1.5,399.5,1.4,398.9,1.3z"/>
		<path class="st0" d="M409,4.6c0.5,0.3,1,0.6,1.6,0.9C410,5.1,409.5,4.8,409,4.6z"/>
		<polygon class="st0" points="198.9,43.9 360.8,43.9 393.5,22.4 198.9,22.4 		"/>
		<path class="st0" d="M403.2,2.3c0.5,0.1,1,0.3,1.5,0.5C404.2,2.6,403.7,2.4,403.2,2.3z"/>
		<path class="st0" d="M414.8,8.5L414.8,8.5c-0.2-0.2-0.4-0.4-0.7-0.5C414.4,8.1,414.6,8.3,414.8,8.5z"/>
		<path class="st0" d="M410.7,5.5c0.3,0.2,0.6,0.4,0.9,0.6C411.2,5.9,411,5.7,410.7,5.5z"/>
		<path class="st0" d="M413,7.1c0.3,0.2,0.6,0.4,0.8,0.6C413.6,7.5,413.3,7.3,413,7.1z"/>
		<path class="st0" d="M396.9,1.1c0.5,0,1,0.1,1.5,0.2C397.9,1.2,397.4,1.1,396.9,1.1z"/>
		<path class="st0" d="M411.9,6.3c0.3,0.2,0.6,0.4,0.9,0.6C412.4,6.6,412.2,6.4,411.9,6.3z"/>
		<path class="st0" d="M13.5,7.6c0.1-0.1,0.3-0.2,0.4-0.3C13.7,7.4,13.6,7.5,13.5,7.6C13.4,7.6,13.4,7.6,13.5,7.6z"/>
		<path class="st0" d="M23.2,2.5c0.1,0,0.2-0.1,0.3-0.1C23.3,2.4,23.2,2.5,23.2,2.5C23.1,2.5,23.2,2.5,23.2,2.5z"/>
		<path class="st0" d="M26.3,1.7c0,0,0.1,0,0.1,0c-0.1,0-0.2,0.1-0.4,0.1C26.2,1.7,26.2,1.7,26.3,1.7z"/>
		<path class="st0" d="M14.5,6.8c0.2-0.2,0.4-0.3,0.6-0.5C14.9,6.5,14.7,6.7,14.5,6.8C14.5,6.8,14.5,6.8,14.5,6.8z"/>
		<path class="st0" d="M27.9,1.4c0,0,0.1,0,0.1,0C28,1.4,27.9,1.4,27.9,1.4C27.9,1.4,27.9,1.4,27.9,1.4z"/>
		<path class="st0" d="M29.3,1.2c0.1,0,0.2,0,0.3,0C29.5,1.2,29.4,1.2,29.3,1.2C29.3,1.2,29.3,1.2,29.3,1.2z"/>
		<path class="st0" d="M24.6,2.1c0.1,0,0.2-0.1,0.3-0.1C24.8,2,24.7,2.1,24.6,2.1C24.5,2.1,24.6,2.1,24.6,2.1z"/>
		<path class="st0" d="M17.5,5c0.1,0,0.2-0.1,0.3-0.1C17.6,4.9,17.5,4.9,17.5,5C17.4,5,17.5,5,17.5,5z"/>
		<path class="st0" d="M18.7,4.3c0.1-0.1,0.2-0.1,0.4-0.2C19,4.2,18.8,4.3,18.7,4.3C18.7,4.3,18.7,4.3,18.7,4.3z"/>
		<path class="st0" d="M21.8,3c0,0,0.1,0,0.1,0C21.9,2.9,21.8,3,21.8,3C21.8,3,21.8,3,21.8,3z"/>
		<path class="st0" d="M20.2,3.6c0.1,0,0.2-0.1,0.3-0.1c-0.2,0.1-0.4,0.2-0.5,0.2C20.1,3.7,20.1,3.6,20.2,3.6z"/>
		<path class="st0" d="M30.8,1.1c0.1,0,0.2,0,0.4,0C31.1,1,31,1.1,30.8,1.1C30.8,1.1,30.8,1.1,30.8,1.1z"/>
		<path class="st0" d="M9.7,269.6c-0.3-0.4-0.7-0.7-1-1.1C9,268.8,9.3,269.2,9.7,269.6z"/>
		<path class="st0" d="M1,32.8L1,32.8c0-0.6,0-1.2,0.1-1.8C1,31.6,1,32.2,1,32.8z"/>
		<path class="st0" d="M8.6,268.4c-2.5-3-4.5-6.4-5.8-10.2C4.1,261.9,6.1,265.4,8.6,268.4z"/>
		<path class="st0" d="M33.7,258.1l32.7-21.4H1v11c0,3.6,0.6,7.2,1.8,10.4H33.7z"/>
		<path class="st0" d="M10.8,270.7c-0.3-0.3-0.6-0.6-0.9-0.9C10.1,270,10.4,270.4,10.8,270.7z"/>
		<path class="st0" d="M197.2,151h-5.6H8.3c-0.5,0-1-0.1-1.5-0.1c-3.3-0.7-5.9-3.6-5.9-7.2v28.8h163.5L197.2,151z"/>
		<polygon class="st0" points="131.8,193.9 1,193.9 1,215.3 99.1,215.3 		"/>
		<path class="st0" d="M12.4,272.1L12.4,272.1c-0.1-0.1-0.1-0.1-0.2-0.2C12.2,272,12.3,272.1,12.4,272.1z"/>
		<path class="st0" d="M11.9,271.7c-0.3-0.3-0.6-0.6-0.9-0.8C11.3,271.1,11.6,271.4,11.9,271.7z"/>
		<path class="st0" d="M8.9,11.9c0.2-0.3,0.5-0.5,0.7-0.8C9.4,11.3,9.1,11.6,8.9,11.9z"/>
		<path class="st0" d="M1.4,27.5c-0.1,0.4-0.1,0.7-0.2,1.1C1.3,28.3,1.4,27.9,1.4,27.5z"/>
		<path class="st0" d="M5.6,16.3c-0.1,0.2-0.2,0.4-0.3,0.6c0-0.1,0.1-0.2,0.2-0.3C5.5,16.5,5.6,16.4,5.6,16.3z"/>
		<path class="st0" d="M5.3,16.9c-0.3,0.5-0.6,1-0.8,1.5c0,0,0-0.1,0.1-0.1C4.8,17.8,5,17.3,5.3,16.9z"/>
		<path class="st0" d="M10.5,10.2c-0.2,0.2-0.5,0.5-0.7,0.7c0.2-0.2,0.4-0.4,0.6-0.6C10.4,10.3,10.4,10.3,10.5,10.2z"/>
		<path class="st0" d="M7,14.3c-0.4,0.5-0.7,1-1,1.5c0.3-0.5,0.6-0.9,0.9-1.4C6.9,14.4,6.9,14.3,7,14.3z"/>
		<path class="st0" d="M3.3,21c0.1-0.2,0.2-0.5,0.3-0.7c-0.1,0.3-0.3,0.6-0.4,0.9C3.2,21.2,3.2,21.1,3.3,21z"/>
		<path class="st0" d="M8.5,12.3c0,0,0.1-0.1,0.1-0.1c-0.5,0.6-1,1.2-1.4,1.8c0,0,0.1-0.1,0.1-0.1C7.6,13.4,8.1,12.9,8.5,12.3z"/>
		<path class="st0" d="M5.9,15.8c-0.1,0.1-0.2,0.3-0.3,0.4c0.1-0.1,0.1-0.2,0.2-0.2C5.9,16,5.9,15.9,5.9,15.8z"/>
		<path class="st0" d="M12.1,8.7C12.1,8.7,12.1,8.7,12.1,8.7C12.1,8.7,12.1,8.7,12.1,8.7C12.1,8.7,12.1,8.7,12.1,8.7z"/>
		<path class="st0" d="M12.4,8.4c0.1-0.1,0.2-0.2,0.3-0.2C12.6,8.3,12.4,8.4,12.4,8.4C12.4,8.5,12.4,8.5,12.4,8.4z"/>
		<path class="st0" d="M2.9,21.9c0.1-0.2,0.1-0.3,0.2-0.5c0,0,0-0.1,0-0.1C3.1,21.5,3,21.7,2.9,21.9z"/>
		<path class="st0" d="M1.2,29.3c0,0.4-0.1,0.8-0.1,1.2C1.1,30.1,1.2,29.7,1.2,29.3z"/>
		<path class="st1" d="M16.9,5.3c0.2-0.1,0.4-0.2,0.6-0.3c0,0-0.1,0-0.1,0C17.2,5.1,17.1,5.2,16.9,5.3z"/>
		<path class="st1" d="M13.1,7.9c0.1-0.1,0.2-0.2,0.4-0.3c0,0-0.1,0-0.1,0.1C13.3,7.7,13.2,7.8,13.1,7.9z"/>
		<path class="st1" d="M14.2,7.1c0.1-0.1,0.2-0.2,0.3-0.2c0,0,0,0,0,0C14.4,6.9,14.3,7,14.2,7.1z"/>
		<path class="st1" d="M3.2,21.3c0,0,0,0.1,0,0.1c0-0.1,0.1-0.2,0.1-0.4C3.2,21.1,3.2,21.2,3.2,21.3C3.2,21.3,3.2,21.3,3.2,21.3z"/>
		<path class="st1" d="M410.6,5.5C410.6,5.4,410.6,5.4,410.6,5.5c-0.6-0.4-1.1-0.6-1.6-0.9c-0.1-0.1-0.2-0.1-0.3-0.2
			c-0.5-0.3-1.1-0.5-1.7-0.8c0,0-0.1,0-0.1,0c-0.6-0.3-1.2-0.5-1.8-0.7c-0.1,0-0.2-0.1-0.3-0.1c-0.5-0.2-1-0.3-1.5-0.5
			c-0.2,0-0.3-0.1-0.5-0.1c-0.6-0.2-1.2-0.3-1.8-0.4c0,0-0.1,0-0.1,0c-0.6-0.1-1.3-0.2-1.9-0.3c-0.2,0-0.3,0-0.5-0.1
			c-0.5-0.1-1-0.1-1.5-0.2c-0.2,0-0.3,0-0.5,0c-0.7,0-1.3-0.1-2-0.1H191.6c4,0,7.3,3.3,7.3,7.3v14.1h194.5l21.3-14L410.6,5.5z"/>
		<path class="st1" d="M32.7,1c-0.4,0-0.9,0-1.3,0C31.8,1,32.2,1,32.7,1z"/>
		<path class="st1" d="M12.1,8.7C12.1,8.7,12.1,8.7,12.1,8.7c0.1-0.1,0.2-0.1,0.3-0.2c0,0-0.1,0-0.1,0.1C12.3,8.6,12.2,8.6,12.1,8.7
			z"/>
		<path class="st1" d="M18.1,4.6c0.2-0.1,0.4-0.2,0.6-0.3c0,0-0.1,0-0.1,0C18.5,4.4,18.3,4.5,18.1,4.6z"/>
		<path class="st1" d="M19.3,4c0.3-0.1,0.6-0.3,0.9-0.4c-0.1,0-0.2,0.1-0.2,0.1C19.8,3.8,19.6,3.9,19.3,4z"/>
		<path class="st1" d="M28.4,1.3c0.3,0,0.6-0.1,0.9-0.1c0,0,0,0,0,0C29,1.2,28.7,1.3,28.4,1.3z"/>
		<path class="st1" d="M25.1,1.9c0.4-0.1,0.8-0.2,1.2-0.3c-0.1,0-0.1,0-0.2,0C25.8,1.8,25.4,1.9,25.1,1.9z"/>
		<path class="st1" d="M26.7,1.6c0.4-0.1,0.8-0.1,1.2-0.2c0,0,0,0,0,0C27.5,1.5,27.1,1.5,26.7,1.6z"/>
		<path class="st1" d="M20.9,3.3c0.3-0.1,0.6-0.2,0.9-0.4c0,0,0,0-0.1,0C21.5,3.1,21.2,3.2,20.9,3.3z"/>
		<path class="st1" d="M22.4,2.8c0.3-0.1,0.5-0.2,0.8-0.3c0,0,0,0-0.1,0C22.9,2.6,22.6,2.7,22.4,2.8z"/>
		<path class="st1" d="M23.8,2.3c0.3-0.1,0.6-0.2,0.8-0.2c0,0,0,0-0.1,0C24.3,2.2,24,2.2,23.8,2.3z"/>
		<path class="st1" d="M29.9,1.1c0.3,0,0.6-0.1,0.9-0.1c0,0,0,0,0,0C30.5,1.1,30.2,1.1,29.9,1.1z"/>
		<path class="st1" d="M4.2,19c0,0.1-0.1,0.1-0.1,0.2C4.1,19.1,4.1,19.1,4.2,19z"/>
		<path class="st1" d="M16.3,5.6C16.1,5.7,16,5.9,15.8,6C16,5.9,16.1,5.7,16.3,5.6z"/>
		<path class="st1" d="M10.3,10.3c-0.2,0.2-0.4,0.4-0.6,0.6c0,0-0.1,0.1-0.1,0.1c-0.2,0.3-0.5,0.5-0.7,0.8c0,0,0,0,0,0.1
			C9.3,11.4,9.8,10.9,10.3,10.3z"/>
		<path class="st1" d="M5.5,16.6c-0.1,0.1-0.1,0.2-0.2,0.3c0,0,0,0,0,0c-0.3,0.5-0.5,0.9-0.8,1.4C4.8,17.7,5.1,17.1,5.5,16.6z"/>
		<path class="st1" d="M2.8,22.4C2.8,22.4,2.8,22.4,2.8,22.4C2.8,22.4,2.8,22.4,2.8,22.4L2.8,22.4z"/>
		<path class="st1" d="M6.9,14.4c-0.3,0.5-0.6,0.9-0.9,1.4c0,0,0,0,0,0c0,0.1-0.1,0.1-0.1,0.2C6.2,15.5,6.5,14.9,6.9,14.4z"/>
		<path class="st1" d="M8.5,12.3c-0.4,0.5-0.8,1-1.2,1.6C7.6,13.4,8.1,12.8,8.5,12.3z"/>
		<path class="st1" d="M11.4,9.3C11.4,9.3,11.3,9.4,11.4,9.3C11.3,9.4,11.4,9.3,11.4,9.3z"/>
		<path class="st1" d="M413.9,7.7c-0.3-0.2-0.6-0.4-0.8-0.6c-0.1-0.1-0.2-0.1-0.3-0.2c-0.3-0.2-0.6-0.4-0.9-0.6
			c-0.1-0.1-0.2-0.1-0.3-0.2c-0.3-0.2-0.6-0.4-0.9-0.6c0,0,0,0,0,0l4.2,3l0,0c-0.2-0.2-0.4-0.4-0.7-0.5C414.1,7.8,414,7.8,413.9,7.7
			z"/>
		<polygon class="st1" points="198.9,108.1 262.7,108.1 295.4,86.7 198.9,86.7 		"/>
		<polygon class="st1" points="198.9,65.3 328.1,65.3 360.8,43.9 198.9,43.9 		"/>
		<path class="st1" d="M198.9,143.7c0,4-3.3,7.3-7.3,7.3h5.6l32.7-21.4h-31V143.7z"/>
		<polygon class="st1" points="99.1,215.3 1,215.3 1,236.7 66.4,236.7 		"/>
		<path class="st1" d="M2.8,258.1C2.8,258.1,2.8,258.1,2.8,258.1c1.3,3.8,3.3,7.2,5.8,10.2c0,0,0.1,0.1,0.1,0.1
			c0.3,0.4,0.7,0.8,1,1.1c0,0,0,0,0.1,0.1c0,0,0.1,0.1,0.1,0.1c0.3,0.3,0.6,0.6,0.9,0.9c0.1,0.1,0.1,0.1,0.2,0.2
			c0.3,0.3,0.6,0.6,0.9,0.8c0.1,0.1,0.2,0.1,0.3,0.2c0.1,0.1,0.2,0.1,0.2,0.2l21.3-14H2.8L2.8,258.1z"/>
		<polygon class="st1" points="164.5,172.4 1,172.4 1,193.9 131.8,193.9 		"/>
		<path class="st2" d="M6.9,150.9c0.5,0.1,1,0.1,1.5,0.1h183.3c4,0,7.3-3.3,7.3-7.3v-14.1v-21.4V86.7V65.3V43.9V22.4V8.3
			c0-4-3.3-7.3-7.3-7.3c0,0,0,0,0,0L32.8,1c0,0-0.1,0-0.1,0c-0.4,0-0.9,0-1.3,0c-0.1,0-0.1,0-0.2,0c-0.1,0-0.2,0-0.4,0
			c-0.3,0-0.6,0-0.9,0.1c-0.1,0-0.2,0-0.3,0c-0.1,0-0.2,0-0.3,0c-0.3,0-0.6,0.1-0.9,0.1c-0.1,0-0.3,0-0.4,0.1c0,0-0.1,0-0.1,0
			c-0.4,0.1-0.8,0.1-1.2,0.2c-0.1,0-0.1,0-0.2,0c0,0-0.1,0-0.1,0c-0.4,0.1-0.8,0.2-1.2,0.3c-0.1,0-0.1,0-0.2,0
			c-0.1,0-0.2,0.1-0.3,0.1c-0.3,0.1-0.6,0.2-0.8,0.2c-0.1,0-0.2,0.1-0.3,0.1c-0.1,0-0.2,0.1-0.3,0.1c-0.3,0.1-0.5,0.2-0.8,0.3
			c-0.1,0-0.3,0.1-0.4,0.1c0,0-0.1,0-0.1,0c-0.3,0.1-0.6,0.2-0.9,0.4c-0.1,0.1-0.3,0.1-0.4,0.2c-0.1,0-0.2,0.1-0.3,0.1
			c-0.3,0.1-0.6,0.3-0.9,0.4c-0.1,0-0.2,0.1-0.2,0.1c-0.1,0.1-0.2,0.1-0.4,0.2c-0.2,0.1-0.4,0.2-0.6,0.3c-0.1,0.1-0.2,0.1-0.4,0.2
			c-0.1,0-0.2,0.1-0.3,0.1c-0.2,0.1-0.4,0.2-0.6,0.3c-0.2,0.1-0.3,0.2-0.5,0.3c0,0-0.1,0.1-0.1,0.1C16.1,5.7,16,5.9,15.8,6
			c0,0-0.1,0-0.1,0.1c-0.2,0.1-0.4,0.2-0.6,0.4c-0.2,0.1-0.4,0.3-0.6,0.5c-0.1,0.1-0.2,0.2-0.3,0.2c-0.1,0.1-0.2,0.1-0.3,0.2
			c-0.1,0.1-0.3,0.2-0.4,0.3c-0.1,0.1-0.2,0.2-0.4,0.3C13,8,12.8,8.1,12.7,8.2c-0.1,0.1-0.2,0.2-0.3,0.2c-0.1,0.1-0.2,0.2-0.3,0.3
			c0,0,0,0,0,0c-0.2,0.2-0.4,0.3-0.5,0.5c0,0-0.1,0.1-0.1,0.1c0,0-0.1,0.1-0.1,0.1c-0.1,0.1-0.2,0.2-0.4,0.3
			c-0.1,0.1-0.3,0.3-0.4,0.4l-6.2,8.5c0,0.1-0.1,0.1-0.1,0.2c0,0.1-0.1,0.1-0.1,0.2c0,0.1-0.1,0.1-0.1,0.2c-0.1,0.2-0.2,0.5-0.3,0.7
			c-0.1,0.2-0.1,0.3-0.2,0.4c-0.1,0.2-0.2,0.5-0.3,0.7c0,0.1-0.1,0.2-0.1,0.4c-0.1,0.2-0.1,0.3-0.2,0.5c0,0,0,0,0,0.1
			c0,0.1-0.1,0.3-0.1,0.4c0,0,0,0,0,0.1c-0.1,0.4-0.3,0.7-0.4,1.1c-0.1,0.2-0.1,0.3-0.1,0.5c-0.1,0.4-0.2,0.8-0.3,1.1
			c-0.1,0.2-0.1,0.4-0.1,0.6c-0.1,0.4-0.2,0.7-0.2,1.1c0,0.2-0.1,0.4-0.1,0.7c-0.1,0.4-0.1,0.7-0.2,1.1c0,0.2-0.1,0.4-0.1,0.7
			c0,0.4-0.1,0.8-0.1,1.2c0,0.2,0,0.4,0,0.6C1,31.6,1,32.2,1,32.8v11v21.4v21.4v21.4v21.4v14.1C1,147.2,3.5,150.2,6.9,150.9z
			 M64.6,134.5l-4.2-3l-4.2,3c-0.5,0.4-1.3-0.1-1.1-0.8l1.5-4.9l-4.1-3c-0.5-0.4-0.3-1.2,0.4-1.2l5.1,0l1.6-4.9
			c0.2-0.6,1.1-0.6,1.3,0l1.6,4.9l5.1,0c0.7,0,0.9,0.9,0.4,1.2l-4.1,3l1.5,4.9C65.9,134.4,65.2,134.9,64.6,134.5z M33.3,111.6l5.1,0
			l1.6-4.9c0.2-0.6,1.1-0.6,1.3,0l1.6,4.9l5.1,0c0.7,0,0.9,0.9,0.4,1.2l-4.1,3l1.5,4.9c0.2,0.6-0.5,1.2-1.1,0.8l-4.2-3l-4.2,3
			c-0.5,0.4-1.3-0.1-1.1-0.8l1.5-4.9l-4.1-3C32.3,112.4,32.6,111.6,33.3,111.6z M52.6,100.3c-0.5-0.4-0.3-1.2,0.4-1.2l5.1,0l1.6-4.9
			c0.2-0.6,1.1-0.6,1.3,0l1.6,4.9l5.1,0c0.7,0,0.9,0.9,0.4,1.2l-4.1,3l1.5,4.9c0.2,0.6-0.5,1.2-1.1,0.8l-4.2-3l-4.2,3
			c-0.5,0.4-1.3-0.1-1.1-0.8l1.5-4.9L52.6,100.3z M45.9,44.4c0.2,0.6-0.5,1.2-1.1,0.8l-4.2-3l-4.2,3c-0.5,0.4-1.3-0.1-1.1-0.8
			l1.5-4.9l-4.1-3c-0.5-0.4-0.3-1.2,0.4-1.2l5.1,0l1.6-4.9c0.2-0.6,1.1-0.6,1.3,0l1.6,4.9l5.1,0c0.7,0,0.9,0.9,0.4,1.2l-4.1,3
			L45.9,44.4z M167.1,36.5l-4.1,3l1.5,4.9c0.2,0.6-0.5,1.2-1.1,0.8l-4.2-3l-4.2,3c-0.5,0.4-1.3-0.1-1.1-0.8l1.5-4.9l-4.1-3
			c-0.5-0.4-0.3-1.2,0.4-1.2l5.1,0l1.6-4.9c0.2-0.6,1.1-0.6,1.3,0l1.6,4.9l5.1,0C167.3,35.2,167.6,36.1,167.1,36.5z M141.8,48.1
			l5.1,0c0.7,0,0.9,0.9,0.4,1.2l-4.1,3l1.5,4.9c0.2,0.6-0.5,1.2-1.1,0.8l-4.2-3l-4.2,3c-0.5,0.4-1.3-0.1-1.1-0.8l1.5-4.9l-4.1-3
			c-0.5-0.4-0.3-1.2,0.4-1.2l5.1,0l1.6-4.9c0.2-0.6,1.1-0.6,1.3,0L141.8,48.1z M161.5,111.5l5.1,0c0.7,0,0.9,0.9,0.4,1.2l-4.1,3
			l1.5,4.9c0.2,0.6-0.5,1.2-1.1,0.8l-4.2-3l-4.2,3c-0.5,0.4-1.3-0.1-1.1-0.8l1.5-4.9l-4.1-3c-0.5-0.4-0.3-1.2,0.4-1.2l5.1,0l1.6-4.9
			c0.2-0.6,1.1-0.6,1.3,0L161.5,111.5z M147.3,100.3l-4.1,3l1.5,4.9c0.2,0.6-0.5,1.2-1.1,0.8l-4.2-3l-4.2,3
			c-0.5,0.4-1.3-0.1-1.1-0.8l1.5-4.9l-4.1-3c-0.5-0.4-0.3-1.2,0.4-1.2l5.1,0l1.6-4.9c0.2-0.6,1.1-0.6,1.3,0l1.6,4.9l5.1,0
			C147.6,99.1,147.8,100,147.3,100.3z M122,111.5l5.1,0c0.7,0,0.9,0.9,0.4,1.2l-4.1,3l1.5,4.9c0.2,0.6-0.5,1.2-1.1,0.8l-4.2-3
			l-4.2,3c-0.5,0.4-1.3-0.1-1.1-0.8l1.5-4.9l-4.1-3c-0.5-0.4-0.3-1.2,0.4-1.2l5.1,0l1.6-4.9c0.2-0.6,1.1-0.6,1.3,0L122,111.5z
			 M105.2,108.3c0.2,0.6-0.5,1.2-1.1,0.8l-4.2-3l-4.2,3c-0.5,0.4-1.3-0.1-1.1-0.8l1.5-4.9l-4.1-3c-0.5-0.4-0.3-1.2,0.4-1.2l5.1,0
			l1.6-4.9c0.2-0.6,1.1-0.6,1.3,0l1.6,4.9l5.1,0c0.7,0,0.9,0.9,0.4,1.2l-4.1,3L105.2,108.3z M82.5,111.5l5.1,0
			c0.7,0,0.9,0.9,0.4,1.2l-4.1,3l1.5,4.9c0.2,0.6-0.5,1.2-1.1,0.8l-4.2-3l-4.2,3c-0.5,0.4-1.3-0.1-1.1-0.8l1.5-4.9l-4.1-3
			c-0.5-0.4-0.3-1.2,0.4-1.2l5.1,0l1.6-4.9c0.2-0.6,1.1-0.6,1.3,0L82.5,111.5z M85.4,44.4c0.2,0.6-0.5,1.2-1.1,0.8l-4.2-3l-4.2,3
			c-0.5,0.4-1.3-0.1-1.1-0.8l1.5-4.9l-4.1-3c-0.5-0.4-0.3-1.2,0.4-1.2l5.1,0l1.6-4.9c0.2-0.6,1.1-0.6,1.3,0l1.6,4.9l5.1,0
			c0.7,0,0.9,0.9,0.4,1.2l-4.1,3L85.4,44.4z M92.6,48.2l5.1,0l1.6-4.9c0.2-0.6,1.1-0.6,1.3,0l1.6,4.9l5.1,0c0.7,0,0.9,0.9,0.4,1.2
			l-4.1,3l1.5,4.9c0.2,0.6-0.5,1.2-1.1,0.8l-4.2-3l-4.2,3c-0.5,0.4-1.3-0.1-1.1-0.8l1.5-4.9l-4.1-3C91.6,49,91.9,48.2,92.6,48.2z
			 M111.9,36.5c-0.5-0.4-0.3-1.2,0.4-1.2l5.1,0l1.6-4.9c0.2-0.6,1.1-0.6,1.3,0l1.6,4.9l5.1,0c0.7,0,0.9,0.9,0.4,1.2l-4.1,3l1.5,4.9
			c0.2,0.6-0.5,1.2-1.1,0.8l-4.2-3l-4.2,3c-0.5,0.4-1.3-0.1-1.1-0.8l1.5-4.9L111.9,36.5z M92.6,73.6l5.1,0l1.6-4.9
			c0.2-0.6,1.1-0.6,1.3,0l1.6,4.9l5.1,0c0.7,0,0.9,0.9,0.4,1.2l-4.1,3l1.5,4.9c0.2,0.6-0.5,1.2-1.1,0.8l-4.2-3l-4.2,3
			c-0.5,0.4-1.3-0.1-1.1-0.8l1.5-4.9l-4.1-3C91.6,74.5,91.9,73.7,92.6,73.6z M127.5,87.4l-4.1,3l1.5,4.9c0.2,0.6-0.5,1.2-1.1,0.8
			l-4.2-3l-4.2,3c-0.5,0.4-1.3-0.1-1.1-0.8l1.5-4.9l-4.1-3c-0.5-0.4-0.3-1.2,0.4-1.2l5.1,0l1.6-4.9c0.2-0.6,1.1-0.6,1.3,0l1.6,4.9
			l5.1,0C127.8,86.1,128.1,87,127.5,87.4z M147.3,74.9l-4.1,3l1.5,4.9c0.2,0.6-0.5,1.2-1.1,0.8l-4.2-3l-4.2,3
			c-0.5,0.4-1.3-0.1-1.1-0.8l1.5-4.9l-4.1-3c-0.5-0.4-0.3-1.2,0.4-1.2l5.1,0l1.6-4.9c0.2-0.6,1.1-0.6,1.3,0l1.6,4.9l5.1,0
			C147.6,73.7,147.8,74.5,147.3,74.9z M125,69.9c0.2,0.6-0.5,1.2-1.1,0.8l-4.2-3l-4.2,3c-0.5,0.4-1.3-0.1-1.1-0.8L116,65l-4.1-3
			c-0.5-0.4-0.3-1.2,0.4-1.2l5.1,0l1.6-4.9c0.2-0.6,1.1-0.6,1.3,0l1.6,4.9l5.1,0c0.7,0,0.9,0.9,0.4,1.2l-4.1,3L125,69.9z
			 M141.8,22.7l5.1,0c0.7,0,0.9,0.9,0.4,1.2l-4.1,3l1.5,4.9c0.2,0.6-0.5,1.2-1.1,0.8l-4.2-3l-4.2,3c-0.5,0.4-1.3-0.1-1.1-0.8
			l1.5-4.9l-4.1-3c-0.5-0.4-0.3-1.2,0.4-1.2l5.1,0l1.6-4.9c0.2-0.6,1.1-0.6,1.3,0L141.8,22.7z M102.2,22.7l5.1,0
			c0.7,0,0.9,0.9,0.4,1.2l-4.1,3l1.5,4.9c0.2,0.6-0.5,1.2-1.1,0.8l-4.2-3l-4.2,3c-0.5,0.4-1.3-0.1-1.1-0.8l1.5-4.9l-4.1-3
			c-0.5-0.4-0.3-1.2,0.4-1.2l5.1,0l1.6-4.9c0.2-0.6,1.1-0.6,1.3,0L102.2,22.7z M62.7,22.7l5.1,0c0.7,0,0.9,0.9,0.4,1.2l-4.1,3
			l1.5,4.9c0.2,0.6-0.5,1.2-1.1,0.8l-4.2-3l-4.2,3c-0.5,0.4-1.3-0.1-1.1-0.8l1.5-4.9l-4.1-3c-0.5-0.4-0.3-1.2,0.4-1.2l5.1,0l1.6-4.9
			c0.2-0.6,1.1-0.6,1.3,0L62.7,22.7z M53,48.2l5.1,0l1.6-4.9c0.2-0.6,1.1-0.6,1.3,0l1.6,4.9l5.1,0c0.7,0,0.9,0.9,0.4,1.2l-4.1,3
			l1.5,4.9c0.2,0.6-0.5,1.2-1.1,0.8l-4.2-3l-4.2,3c-0.5,0.4-1.3-0.1-1.1-0.8l1.5-4.9l-4.1-3C52.1,49,52.4,48.2,53,48.2z M72.4,61.9
			c-0.5-0.4-0.3-1.2,0.4-1.2l5.1,0l1.6-4.9c0.2-0.6,1.1-0.6,1.3,0l1.6,4.9l5.1,0c0.7,0,0.9,0.9,0.4,1.2l-4.1,3l1.5,4.9
			c0.2,0.6-0.5,1.2-1.1,0.8l-4.2-3l-4.2,3c-0.5,0.4-1.3-0.1-1.1-0.8l1.5-4.9L72.4,61.9z M53,73.6l5.1,0l1.6-4.9
			c0.2-0.6,1.1-0.6,1.3,0l1.6,4.9l5.1,0c0.7,0,0.9,0.9,0.4,1.2l-4.1,3l1.5,4.9c0.2,0.6-0.5,1.2-1.1,0.8l-4.2-3l-4.2,3
			c-0.5,0.4-1.3-0.1-1.1-0.8l1.5-4.9l-4.1-3C52.1,74.5,52.4,73.7,53,73.6z M72.8,86.1l5.1,0l1.6-4.9c0.2-0.6,1.1-0.6,1.3,0l1.6,4.9
			l5.1,0c0.7,0,0.9,0.9,0.4,1.2l-4.1,3l1.5,4.9c0.2,0.6-0.5,1.2-1.1,0.8l-4.2-3l-4.2,3c-0.5,0.4-1.3-0.1-1.1-0.8l1.5-4.9l-4.1-3
			C71.9,87,72.1,86.1,72.8,86.1z M104.1,134.5l-4.2-3l-4.2,3c-0.5,0.4-1.3-0.1-1.1-0.8l1.5-4.9l-4.1-3c-0.5-0.4-0.3-1.2,0.4-1.2
			l5.1,0l1.6-4.9c0.2-0.6,1.1-0.6,1.3,0l1.6,4.9l5.1,0c0.7,0,0.9,0.9,0.4,1.2l-4.1,3l1.5,4.9C105.4,134.4,104.7,134.9,104.1,134.5z
			 M143.7,134.5l-4.2-3l-4.2,3c-0.5,0.4-1.3-0.1-1.1-0.8l1.5-4.9l-4.1-3c-0.5-0.4-0.3-1.2,0.4-1.2l5.1,0l1.6-4.9
			c0.2-0.6,1.1-0.6,1.3,0l1.6,4.9l5.1,0c0.7,0,0.9,0.9,0.4,1.2l-4.1,3l1.5,4.9C144.9,134.4,144.2,134.9,143.7,134.5z M184.2,133.7
			c0.2,0.6-0.5,1.2-1.1,0.8l-4.2-3l-4.2,3c-0.5,0.4-1.3-0.1-1.1-0.8l1.5-4.9l-4.1-3c-0.5-0.4-0.3-1.2,0.4-1.2l5.1,0l1.6-4.9
			c0.2-0.6,1.1-0.6,1.3,0l1.6,4.9l5.1,0c0.7,0,0.9,0.9,0.4,1.2l-4.1,3L184.2,133.7z M184.2,108.3c0.2,0.6-0.5,1.2-1.1,0.8l-4.2-3
			l-4.2,3c-0.5,0.4-1.3-0.1-1.1-0.8l1.5-4.9l-4.1-3c-0.5-0.4-0.3-1.2,0.4-1.2l5.1,0l1.6-4.9c0.2-0.6,1.1-0.6,1.3,0l1.6,4.9l5.1,0
			c0.7,0,0.9,0.9,0.4,1.2l-4.1,3L184.2,108.3z M167.1,87.4l-4.1,3l1.5,4.9c0.2,0.6-0.5,1.2-1.1,0.8l-4.2-3l-4.2,3
			c-0.5,0.4-1.3-0.1-1.1-0.8l1.5-4.9l-4.1-3c-0.5-0.4-0.3-1.2,0.4-1.2l5.1,0l1.6-4.9c0.2-0.6,1.1-0.6,1.3,0l1.6,4.9l5.1,0
			C167.3,86.1,167.6,87,167.1,87.4z M184.2,82.8c0.2,0.6-0.5,1.2-1.1,0.8l-4.2-3l-4.2,3c-0.5,0.4-1.3-0.1-1.1-0.8l1.5-4.9l-4.1-3
			c-0.5-0.4-0.3-1.2,0.4-1.2l5.1,0l1.6-4.9c0.2-0.6,1.1-0.6,1.3,0l1.6,4.9l5.1,0c0.7,0,0.9,0.9,0.4,1.2l-4.1,3L184.2,82.8z
			 M164.5,69.9c0.2,0.6-0.5,1.2-1.1,0.8l-4.2-3l-4.2,3c-0.5,0.4-1.3-0.1-1.1-0.8l1.5-4.9l-4.1-3c-0.5-0.4-0.3-1.2,0.4-1.2l5.1,0
			l1.6-4.9c0.2-0.6,1.1-0.6,1.3,0l1.6,4.9l5.1,0c0.7,0,0.9,0.9,0.4,1.2l-4.1,3L164.5,69.9z M181.3,48.1l5.1,0c0.7,0,0.9,0.9,0.4,1.2
			l-4.1,3l1.5,4.9c0.2,0.6-0.5,1.2-1.1,0.8l-4.2-3l-4.2,3c-0.5,0.4-1.3-0.1-1.1-0.8l1.5-4.9l-4.1-3c-0.5-0.4-0.3-1.2,0.4-1.2l5.1,0
			l1.6-4.9c0.2-0.6,1.1-0.6,1.3,0L181.3,48.1z M181.3,22.7l5.1,0c0.7,0,0.9,0.9,0.4,1.2l-4.1,3l1.5,4.9c0.2,0.6-0.5,1.2-1.1,0.8
			l-4.2-3l-4.2,3c-0.5,0.4-1.3-0.1-1.1-0.8l1.5-4.9l-4.1-3c-0.5-0.4-0.3-1.2,0.4-1.2l5.1,0l1.6-4.9c0.2-0.6,1.1-0.6,1.3,0
			L181.3,22.7z M20.3,17.8c0.2-0.6,1.1-0.6,1.3,0l1.6,4.9l5.1,0c0.7,0,0.9,0.9,0.4,1.2l-4.1,3l1.5,4.9c0.2,0.6-0.5,1.2-1.1,0.8
			l-4.2-3l-4.2,3c-0.5,0.4-1.3-0.1-1.1-0.8l1.5-4.9l-4.1-3c-0.5-0.4-0.3-1.2,0.4-1.2l5.1,0L20.3,17.8z M20.3,43.3
			c0.2-0.6,1.1-0.6,1.3,0l1.6,4.9l5.1,0c0.7,0,0.9,0.9,0.4,1.2l-4.1,3l1.5,4.9c0.2,0.6-0.5,1.2-1.1,0.8l-4.2-3l-4.2,3
			c-0.5,0.4-1.3-0.1-1.1-0.8l1.5-4.9l-4.1-3c-0.5-0.4-0.3-1.2,0.4-1.2l5.1,0L20.3,43.3z M32.9,61.9c-0.5-0.4-0.3-1.2,0.4-1.2l5.1,0
			l1.6-4.9c0.2-0.6,1.1-0.6,1.3,0l1.6,4.9l5.1,0c0.7,0,0.9,0.9,0.4,1.2l-4.1,3l1.5,4.9c0.2,0.6-0.5,1.2-1.1,0.8l-4.2-3l-4.2,3
			c-0.5,0.4-1.3-0.1-1.1-0.8L37,65L32.9,61.9z M26.2,82.8c0.2,0.6-0.5,1.2-1.1,0.8l-4.2-3l-4.2,3c-0.5,0.4-1.3-0.1-1.1-0.8l1.5-4.9
			l-4.1-3c-0.5-0.4-0.3-1.2,0.4-1.2l5.1,0l1.6-4.9c0.2-0.6,1.1-0.6,1.3,0l1.6,4.9l5.1,0c0.7,0,0.9,0.9,0.4,1.2l-4.1,3L26.2,82.8z
			 M33.3,86.1l5.1,0l1.6-4.9c0.2-0.6,1.1-0.6,1.3,0l1.6,4.9l5.1,0c0.7,0,0.9,0.9,0.4,1.2l-4.1,3l1.5,4.9c0.2,0.6-0.5,1.2-1.1,0.8
			l-4.2-3l-4.2,3c-0.5,0.4-1.3-0.1-1.1-0.8l1.5-4.9l-4.1-3C32.3,87,32.6,86.1,33.3,86.1z M13.1,100.4c-0.5-0.4-0.3-1.2,0.4-1.2
			l5.1,0l1.6-4.9c0.2-0.6,1.1-0.6,1.3,0l1.6,4.9l5.1,0c0.7,0,0.9,0.9,0.4,1.2l-4.1,3l1.5,4.9c0.2,0.6-0.5,1.2-1.1,0.8l-4.2-3l-4.2,3
			c-0.5,0.4-1.3-0.1-1.1-0.8l1.5-4.9L13.1,100.4z M13.1,125.8c-0.5-0.4-0.3-1.2,0.4-1.2l5.1,0l1.6-4.9c0.2-0.6,1.1-0.6,1.3,0
			l1.6,4.9l5.1,0c0.7,0,0.9,0.9,0.4,1.2l-4.1,3l1.5,4.9c0.2,0.6-0.5,1.2-1.1,0.8l-4.2-3l-4.2,3c-0.5,0.4-1.3-0.1-1.1-0.8l1.5-4.9
			L13.1,125.8z"/>
		<path class="st2" d="M10.3,10.3c-0.5,0.5-1,1-1.5,1.6c-0.1,0.1-0.2,0.2-0.2,0.3c0,0-0.1,0.1-0.1,0.1c-0.4,0.5-0.8,1-1.2,1.6
			c0,0-0.1,0.1-0.1,0.1C7.1,14.1,7,14.2,7,14.3c0,0-0.1,0.1-0.1,0.1c-0.4,0.5-0.7,1.1-1.1,1.6c-0.1,0.1-0.1,0.2-0.2,0.2c0,0,0,0,0,0
			c-0.1,0.1-0.1,0.2-0.2,0.3c-0.3,0.5-0.6,1.1-0.9,1.7c0,0,0,0.1-0.1,0.1c0,0.1-0.1,0.1-0.1,0.2l6.2-8.5c0,0,0,0-0.1,0.1
			C10.4,10.3,10.4,10.3,10.3,10.3z"/>
		<path class="st0" d="M13.5,22.7c-0.7,0-0.9,0.9-0.4,1.2l4.1,3l-1.5,4.9c-0.2,0.6,0.5,1.2,1.1,0.8l4.2-3l4.2,3
			c0.5,0.4,1.3-0.1,1.1-0.8L24.6,27l4.1-3c0.5-0.4,0.3-1.2-0.4-1.2l-5.1,0l-1.6-4.9c-0.2-0.6-1.1-0.6-1.3,0l-1.6,4.9L13.5,22.7z"/>
		<path class="st0" d="M13.5,48.2c-0.7,0-0.9,0.9-0.4,1.2l4.1,3l-1.5,4.9c-0.2,0.6,0.5,1.2,1.1,0.8l4.2-3l4.2,3
			c0.5,0.4,1.3-0.1,1.1-0.8l-1.5-4.9l4.1-3c0.5-0.4,0.3-1.2-0.4-1.2l-5.1,0l-1.6-4.9c-0.2-0.6-1.1-0.6-1.3,0l-1.6,4.9L13.5,48.2z"/>
		<path class="st0" d="M28.3,73.6l-5.1,0l-1.6-4.9c-0.2-0.6-1.1-0.6-1.3,0l-1.6,4.9l-5.1,0c-0.7,0-0.9,0.9-0.4,1.2l4.1,3l-1.5,4.9
			c-0.2,0.6,0.5,1.2,1.1,0.8l4.2-3l4.2,3c0.5,0.4,1.3-0.1,1.1-0.8l-1.5-4.9l4.1-3C29.3,74.5,29,73.7,28.3,73.6z"/>
		<path class="st0" d="M15.7,108.3c-0.2,0.6,0.5,1.2,1.1,0.8l4.2-3l4.2,3c0.5,0.4,1.3-0.1,1.1-0.8l-1.5-4.9l4.1-3
			c0.5-0.4,0.3-1.2-0.4-1.2l-5.1,0l-1.6-4.9c-0.2-0.6-1.1-0.6-1.3,0l-1.6,4.9l-5.1,0c-0.7,0-0.9,0.9-0.4,1.2l4.1,3L15.7,108.3z"/>
		<path class="st0" d="M15.7,133.7c-0.2,0.6,0.5,1.2,1.1,0.8l4.2-3l4.2,3c0.5,0.4,1.3-0.1,1.1-0.8l-1.5-4.9l4.1-3
			c0.5-0.4,0.3-1.2-0.4-1.2l-5.1,0l-1.6-4.9c-0.2-0.6-1.1-0.6-1.3,0l-1.6,4.9l-5.1,0c-0.7,0-0.9,0.9-0.4,1.2l4.1,3L15.7,133.7z"/>
		<path class="st0" d="M48.5,36.5c0.5-0.4,0.3-1.2-0.4-1.2l-5.1,0l-1.6-4.9c-0.2-0.6-1.1-0.6-1.3,0l-1.6,4.9l-5.1,0
			c-0.7,0-0.9,0.9-0.4,1.2l4.1,3l-1.5,4.9c-0.2,0.6,0.5,1.2,1.1,0.8l4.2-3l4.2,3c0.5,0.4,1.3-0.1,1.1-0.8l-1.5-4.9L48.5,36.5z"/>
		<path class="st0" d="M35.5,69.9c-0.2,0.6,0.5,1.2,1.1,0.8l4.2-3l4.2,3c0.5,0.4,1.3-0.1,1.1-0.8L44.4,65l4.1-3
			c0.5-0.4,0.3-1.2-0.4-1.2l-5.1,0l-1.6-4.9c-0.2-0.6-1.1-0.6-1.3,0l-1.6,4.9l-5.1,0c-0.7,0-0.9,0.9-0.4,1.2l4.1,3L35.5,69.9z"/>
		<path class="st0" d="M32.9,87.4l4.1,3l-1.5,4.9c-0.2,0.6,0.5,1.2,1.1,0.8l4.2-3l4.2,3c0.5,0.4,1.3-0.1,1.1-0.8l-1.5-4.9l4.1-3
			c0.5-0.4,0.3-1.2-0.4-1.2l-5.1,0l-1.6-4.9c-0.2-0.6-1.1-0.6-1.3,0l-1.6,4.9l-5.1,0C32.6,86.1,32.3,87,32.9,87.4z"/>
		<path class="st0" d="M37,115.9l-1.5,4.9c-0.2,0.6,0.5,1.2,1.1,0.8l4.2-3l4.2,3c0.5,0.4,1.3-0.1,1.1-0.8l-1.5-4.9l4.1-3
			c0.5-0.4,0.3-1.2-0.4-1.2l-5.1,0l-1.6-4.9c-0.2-0.6-1.1-0.6-1.3,0l-1.6,4.9l-5.1,0c-0.7,0-0.9,0.9-0.4,1.2L37,115.9z"/>
		<path class="st0" d="M59.8,17.8l-1.6,4.9l-5.1,0c-0.7,0-0.9,0.9-0.4,1.2l4.1,3l-1.5,4.9c-0.2,0.6,0.5,1.2,1.1,0.8l4.2-3l4.2,3
			c0.5,0.4,1.3-0.1,1.1-0.8L64.1,27l4.1-3c0.5-0.4,0.3-1.2-0.4-1.2l-5.1,0l-1.6-4.9C60.9,17.2,60,17.2,59.8,17.8z"/>
		<path class="st0" d="M56.8,52.5l-1.5,4.9c-0.2,0.6,0.5,1.2,1.1,0.8l4.2-3l4.2,3c0.5,0.4,1.3-0.1,1.1-0.8l-1.5-4.9l4.1-3
			c0.5-0.4,0.3-1.2-0.4-1.2l-5.1,0l-1.6-4.9c-0.2-0.6-1.1-0.6-1.3,0l-1.6,4.9l-5.1,0c-0.7,0-0.9,0.9-0.4,1.2L56.8,52.5z"/>
		<path class="st0" d="M56.8,77.9l-1.5,4.9c-0.2,0.6,0.5,1.2,1.1,0.8l4.2-3l4.2,3c0.5,0.4,1.3-0.1,1.1-0.8l-1.5-4.9l4.1-3
			c0.5-0.4,0.3-1.2-0.4-1.2l-5.1,0l-1.6-4.9c-0.2-0.6-1.1-0.6-1.3,0l-1.6,4.9l-5.1,0c-0.7,0-0.9,0.9-0.4,1.2L56.8,77.9z"/>
		<path class="st0" d="M55.2,108.3c-0.2,0.6,0.5,1.2,1.1,0.8l4.2-3l4.2,3c0.5,0.4,1.3-0.1,1.1-0.8l-1.5-4.9l4.1-3
			c0.5-0.4,0.3-1.2-0.4-1.2l-5.1,0l-1.6-4.9c-0.2-0.6-1.1-0.6-1.3,0l-1.6,4.9l-5.1,0c-0.7,0-0.9,0.9-0.4,1.2l4.1,3L55.2,108.3z"/>
		<path class="st0" d="M64.1,128.9l4.1-3c0.5-0.4,0.3-1.2-0.4-1.2l-5.1,0l-1.6-4.9c-0.2-0.6-1.1-0.6-1.3,0l-1.6,4.9l-5.1,0
			c-0.7,0-0.9,0.9-0.4,1.2l4.1,3l-1.5,4.9c-0.2,0.6,0.5,1.2,1.1,0.8l4.2-3l4.2,3c0.5,0.4,1.3-0.1,1.1-0.8L64.1,128.9z"/>
		<path class="st0" d="M88,36.5c0.5-0.4,0.3-1.2-0.4-1.2l-5.1,0l-1.6-4.9c-0.2-0.6-1.1-0.6-1.3,0l-1.6,4.9l-5.1,0
			c-0.7,0-0.9,0.9-0.4,1.2l4.1,3L75,44.4c-0.2,0.6,0.5,1.2,1.1,0.8l4.2-3l4.2,3c0.5,0.4,1.3-0.1,1.1-0.8l-1.5-4.9L88,36.5z"/>
		<path class="st0" d="M75,69.9c-0.2,0.6,0.5,1.2,1.1,0.8l4.2-3l4.2,3c0.5,0.4,1.3-0.1,1.1-0.8L83.9,65l4.1-3
			c0.5-0.4,0.3-1.2-0.4-1.2l-5.1,0l-1.6-4.9c-0.2-0.6-1.1-0.6-1.3,0l-1.6,4.9l-5.1,0c-0.7,0-0.9,0.9-0.4,1.2l4.1,3L75,69.9z"/>
		<path class="st0" d="M72.4,87.4l4.1,3L75,95.3c-0.2,0.6,0.5,1.2,1.1,0.8l4.2-3l4.2,3c0.5,0.4,1.3-0.1,1.1-0.8l-1.5-4.9l4.1-3
			c0.5-0.4,0.3-1.2-0.4-1.2l-5.1,0l-1.6-4.9c-0.2-0.6-1.1-0.6-1.3,0l-1.6,4.9l-5.1,0C72.1,86.1,71.9,87,72.4,87.4z"/>
		<path class="st0" d="M79.6,106.7l-1.6,4.9l-5.1,0c-0.7,0-0.9,0.9-0.4,1.2l4.1,3l-1.5,4.9c-0.2,0.6,0.5,1.2,1.1,0.8l4.2-3l4.2,3
			c0.5,0.4,1.3-0.1,1.1-0.8l-1.5-4.9l4.1-3c0.5-0.4,0.3-1.2-0.4-1.2l-5.1,0l-1.6-4.9C80.7,106,79.8,106,79.6,106.7z"/>
		<path class="st0" d="M99.3,17.8l-1.6,4.9l-5.1,0c-0.7,0-0.9,0.9-0.4,1.2l4.1,3l-1.5,4.9c-0.2,0.6,0.5,1.2,1.1,0.8l4.2-3l4.2,3
			c0.5,0.4,1.3-0.1,1.1-0.8l-1.5-4.9l4.1-3c0.5-0.4,0.3-1.2-0.4-1.2l-5.1,0l-1.6-4.9C100.4,17.2,99.5,17.2,99.3,17.8z"/>
		<path class="st0" d="M96.3,52.5l-1.5,4.9c-0.2,0.6,0.5,1.2,1.1,0.8l4.2-3l4.2,3c0.5,0.4,1.3-0.1,1.1-0.8l-1.5-4.9l4.1-3
			c0.5-0.4,0.3-1.2-0.4-1.2l-5.1,0l-1.6-4.9c-0.2-0.6-1.1-0.6-1.3,0l-1.6,4.9l-5.1,0c-0.7,0-0.9,0.9-0.4,1.2L96.3,52.5z"/>
		<path class="st0" d="M96.3,77.9l-1.5,4.9c-0.2,0.6,0.5,1.2,1.1,0.8l4.2-3l4.2,3c0.5,0.4,1.3-0.1,1.1-0.8l-1.5-4.9l4.1-3
			c0.5-0.4,0.3-1.2-0.4-1.2l-5.1,0l-1.6-4.9c-0.2-0.6-1.1-0.6-1.3,0l-1.6,4.9l-5.1,0c-0.7,0-0.9,0.9-0.4,1.2L96.3,77.9z"/>
		<path class="st0" d="M107.8,100.3c0.5-0.4,0.3-1.2-0.4-1.2l-5.1,0l-1.6-4.9c-0.2-0.6-1.1-0.6-1.3,0l-1.6,4.9l-5.1,0
			c-0.7,0-0.9,0.9-0.4,1.2l4.1,3l-1.5,4.9c-0.2,0.6,0.5,1.2,1.1,0.8l4.2-3l4.2,3c0.5,0.4,1.3-0.1,1.1-0.8l-1.5-4.9L107.8,100.3z"/>
		<path class="st0" d="M103.7,128.9l4.1-3c0.5-0.4,0.3-1.2-0.4-1.2l-5.1,0l-1.6-4.9c-0.2-0.6-1.1-0.6-1.3,0l-1.6,4.9l-5.1,0
			c-0.7,0-0.9,0.9-0.4,1.2l4.1,3l-1.5,4.9c-0.2,0.6,0.5,1.2,1.1,0.8l4.2-3l4.2,3c0.5,0.4,1.3-0.1,1.1-0.8L103.7,128.9z"/>
		<path class="st0" d="M114.5,44.4c-0.2,0.6,0.5,1.2,1.1,0.8l4.2-3l4.2,3c0.5,0.4,1.3-0.1,1.1-0.8l-1.5-4.9l4.1-3
			c0.5-0.4,0.3-1.2-0.4-1.2l-5.1,0l-1.6-4.9c-0.2-0.6-1.1-0.6-1.3,0l-1.6,4.9l-5.1,0c-0.7,0-0.9,0.9-0.4,1.2l4.1,3L114.5,44.4z"/>
		<path class="st0" d="M127.5,61.9c0.5-0.4,0.3-1.2-0.4-1.2l-5.1,0l-1.6-4.9c-0.2-0.6-1.1-0.6-1.3,0l-1.6,4.9l-5.1,0
			c-0.7,0-0.9,0.9-0.4,1.2l4.1,3l-1.5,4.9c-0.2,0.6,0.5,1.2,1.1,0.8l4.2-3l4.2,3c0.5,0.4,1.3-0.1,1.1-0.8l-1.5-4.9L127.5,61.9z"/>
		<path class="st0" d="M127.1,86.1l-5.1,0l-1.6-4.9c-0.2-0.6-1.1-0.6-1.3,0l-1.6,4.9l-5.1,0c-0.7,0-0.9,0.9-0.4,1.2l4.1,3l-1.5,4.9
			c-0.2,0.6,0.5,1.2,1.1,0.8l4.2-3l4.2,3c0.5,0.4,1.3-0.1,1.1-0.8l-1.5-4.9l4.1-3C128.1,87,127.8,86.1,127.1,86.1z"/>
		<path class="st0" d="M119.1,106.7l-1.6,4.9l-5.1,0c-0.7,0-0.9,0.9-0.4,1.2l4.1,3l-1.5,4.9c-0.2,0.6,0.5,1.2,1.1,0.8l4.2-3l4.2,3
			c0.5,0.4,1.3-0.1,1.1-0.8l-1.5-4.9l4.1-3c0.5-0.4,0.3-1.2-0.4-1.2l-5.1,0l-1.6-4.9C120.2,106,119.3,106,119.1,106.7z"/>
		<path class="st0" d="M138.8,17.8l-1.6,4.9l-5.1,0c-0.7,0-0.9,0.9-0.4,1.2l4.1,3l-1.5,4.9c-0.2,0.6,0.5,1.2,1.1,0.8l4.2-3l4.2,3
			c0.5,0.4,1.3-0.1,1.1-0.8l-1.5-4.9l4.1-3c0.5-0.4,0.3-1.2-0.4-1.2l-5.1,0l-1.6-4.9C139.9,17.2,139,17.2,138.8,17.8z"/>
		<path class="st0" d="M138.8,43.3l-1.6,4.9l-5.1,0c-0.7,0-0.9,0.9-0.4,1.2l4.1,3l-1.5,4.9c-0.2,0.6,0.5,1.2,1.1,0.8l4.2-3l4.2,3
			c0.5,0.4,1.3-0.1,1.1-0.8l-1.5-4.9l4.1-3c0.5-0.4,0.3-1.2-0.4-1.2l-5.1,0l-1.6-4.9C139.9,42.7,139,42.7,138.8,43.3z"/>
		<path class="st0" d="M146.9,73.6l-5.1,0l-1.6-4.9c-0.2-0.6-1.1-0.6-1.3,0l-1.6,4.9l-5.1,0c-0.7,0-0.9,0.9-0.4,1.2l4.1,3l-1.5,4.9
			c-0.2,0.6,0.5,1.2,1.1,0.8l4.2-3l4.2,3c0.5,0.4,1.3-0.1,1.1-0.8l-1.5-4.9l4.1-3C147.8,74.5,147.6,73.7,146.9,73.6z"/>
		<path class="st0" d="M146.9,99.1l-5.1,0l-1.6-4.9c-0.2-0.6-1.1-0.6-1.3,0l-1.6,4.9l-5.1,0c-0.7,0-0.9,0.9-0.4,1.2l4.1,3l-1.5,4.9
			c-0.2,0.6,0.5,1.2,1.1,0.8l4.2-3l4.2,3c0.5,0.4,1.3-0.1,1.1-0.8l-1.5-4.9l4.1-3C147.8,100,147.6,99.1,146.9,99.1z"/>
		<path class="st0" d="M143.2,128.9l4.1-3c0.5-0.4,0.3-1.2-0.4-1.2l-5.1,0l-1.6-4.9c-0.2-0.6-1.1-0.6-1.3,0l-1.6,4.9l-5.1,0
			c-0.7,0-0.9,0.9-0.4,1.2l4.1,3l-1.5,4.9c-0.2,0.6,0.5,1.2,1.1,0.8l4.2-3l4.2,3c0.5,0.4,1.3-0.1,1.1-0.8L143.2,128.9z"/>
		<path class="st0" d="M166.7,35.2l-5.1,0l-1.6-4.9c-0.2-0.6-1.1-0.6-1.3,0l-1.6,4.9l-5.1,0c-0.7,0-0.9,0.9-0.4,1.2l4.1,3l-1.5,4.9
			c-0.2,0.6,0.5,1.2,1.1,0.8l4.2-3l4.2,3c0.5,0.4,1.3-0.1,1.1-0.8l-1.5-4.9l4.1-3C167.6,36.1,167.3,35.2,166.7,35.2z"/>
		<path class="st0" d="M167.1,61.9c0.5-0.4,0.3-1.2-0.4-1.2l-5.1,0l-1.6-4.9c-0.2-0.6-1.1-0.6-1.3,0l-1.6,4.9l-5.1,0
			c-0.7,0-0.9,0.9-0.4,1.2l4.1,3l-1.5,4.9c-0.2,0.6,0.5,1.2,1.1,0.8l4.2-3l4.2,3c0.5,0.4,1.3-0.1,1.1-0.8l-1.5-4.9L167.1,61.9z"/>
		<path class="st0" d="M166.7,86.1l-5.1,0l-1.6-4.9c-0.2-0.6-1.1-0.6-1.3,0l-1.6,4.9l-5.1,0c-0.7,0-0.9,0.9-0.4,1.2l4.1,3l-1.5,4.9
			c-0.2,0.6,0.5,1.2,1.1,0.8l4.2-3l4.2,3c0.5,0.4,1.3-0.1,1.1-0.8l-1.5-4.9l4.1-3C167.6,87,167.3,86.1,166.7,86.1z"/>
		<path class="st0" d="M158.6,106.7l-1.6,4.9l-5.1,0c-0.7,0-0.9,0.9-0.4,1.2l4.1,3l-1.5,4.9c-0.2,0.6,0.5,1.2,1.1,0.8l4.2-3l4.2,3
			c0.5,0.4,1.3-0.1,1.1-0.8l-1.5-4.9l4.1-3c0.5-0.4,0.3-1.2-0.4-1.2l-5.1,0l-1.6-4.9C159.7,106,158.8,106,158.6,106.7z"/>
		<path class="st0" d="M178.3,17.8l-1.6,4.9l-5.1,0c-0.7,0-0.9,0.9-0.4,1.2l4.1,3l-1.5,4.9c-0.2,0.6,0.5,1.2,1.1,0.8l4.2-3l4.2,3
			c0.5,0.4,1.3-0.1,1.1-0.8l-1.5-4.9l4.1-3c0.5-0.4,0.3-1.2-0.4-1.2l-5.1,0l-1.6-4.9C179.4,17.2,178.6,17.2,178.3,17.8z"/>
		<path class="st0" d="M178.3,43.3l-1.6,4.9l-5.1,0c-0.7,0-0.9,0.9-0.4,1.2l4.1,3l-1.5,4.9c-0.2,0.6,0.5,1.2,1.1,0.8l4.2-3l4.2,3
			c0.5,0.4,1.3-0.1,1.1-0.8l-1.5-4.9l4.1-3c0.5-0.4,0.3-1.2-0.4-1.2l-5.1,0l-1.6-4.9C179.4,42.7,178.6,42.7,178.3,43.3z"/>
		<path class="st0" d="M186.4,73.6l-5.1,0l-1.6-4.9c-0.2-0.6-1.1-0.6-1.3,0l-1.6,4.9l-5.1,0c-0.7,0-0.9,0.9-0.4,1.2l4.1,3l-1.5,4.9
			c-0.2,0.6,0.5,1.2,1.1,0.8l4.2-3l4.2,3c0.5,0.4,1.3-0.1,1.1-0.8l-1.5-4.9l4.1-3C187.4,74.5,187.1,73.7,186.4,73.6z"/>
		<path class="st0" d="M186.8,100.3c0.5-0.4,0.3-1.2-0.4-1.2l-5.1,0l-1.6-4.9c-0.2-0.6-1.1-0.6-1.3,0l-1.6,4.9l-5.1,0
			c-0.7,0-0.9,0.9-0.4,1.2l4.1,3l-1.5,4.9c-0.2,0.6,0.5,1.2,1.1,0.8l4.2-3l4.2,3c0.5,0.4,1.3-0.1,1.1-0.8l-1.5-4.9L186.8,100.3z"/>
		<path class="st0" d="M186.8,125.8c0.5-0.4,0.3-1.2-0.4-1.2l-5.1,0l-1.6-4.9c-0.2-0.6-1.1-0.6-1.3,0l-1.6,4.9l-5.1,0
			c-0.7,0-0.9,0.9-0.4,1.2l4.1,3l-1.5,4.9c-0.2,0.6,0.5,1.2,1.1,0.8l4.2-3l4.2,3c0.5,0.4,1.3-0.1,1.1-0.8l-1.5-4.9L186.8,125.8z"/>
	</g>
	<g>
		<path class="st3" d="M406,277.3c0.1,0,0.2-0.1,0.2-0.1c0.1-0.1,0.3-0.1,0.4-0.2c0,0,0,0,0,0c-0.2,0.1-0.4,0.1-0.5,0.2
			C406.1,277.3,406.1,277.3,406,277.3z"/>
		<path class="st3" d="M419.5,13.3C419.5,13.3,419.5,13.3,419.5,13.3C419.5,13.3,419.5,13.3,419.5,13.3z"/>
		<path class="st3" d="M401.9,278.6c0.1,0,0.1,0,0.2,0c0.1,0,0.1,0,0.2,0c0,0,0,0,0,0C402.2,278.6,402,278.6,401.9,278.6
			C401.9,278.6,401.9,278.6,401.9,278.6z"/>
		<path class="st3" d="M405.4,277.5C405.4,277.5,405.4,277.5,405.4,277.5C405.4,277.5,405.5,277.5,405.4,277.5
			C405.5,277.5,405.5,277.5,405.4,277.5C405.5,277.5,405.4,277.5,405.4,277.5z"/>
		<path class="st3" d="M407.3,276.8c0.2-0.1,0.4-0.2,0.6-0.3c0.1,0,0.2-0.1,0.2-0.1c0,0,0,0,0,0c-0.2,0.1-0.5,0.2-0.7,0.3
			C407.3,276.8,407.3,276.8,407.3,276.8z"/>
		<path class="st3" d="M417.5,11C417.5,10.9,417.5,10.9,417.5,11c-0.1-0.1-0.1-0.1-0.2-0.2c0,0,0,0,0,0
			C417.4,10.8,417.5,10.9,417.5,11C417.5,11,417.5,11,417.5,11z"/>
		<path class="st3" d="M403.3,278.2c0,0,0.1,0,0.1,0c0.1,0,0.2-0.1,0.3-0.1c0,0,0,0,0,0C403.6,278.2,403.5,278.2,403.3,278.2
			C403.3,278.2,403.3,278.2,403.3,278.2z"/>
		<path class="st3" d="M416.2,270.8C416.2,270.8,416.3,270.8,416.2,270.8c0.2-0.2,0.3-0.3,0.5-0.4c0,0,0,0,0.1-0.1c0,0,0,0,0,0
			C416.6,270.5,416.4,270.6,416.2,270.8C416.2,270.8,416.2,270.8,416.2,270.8z"/>
		<path class="st3" d="M416.5,9.9C416.5,9.9,416.4,9.9,416.5,9.9c-0.1-0.1-0.2-0.2-0.2-0.2c0,0,0,0,0,0c0,0,0,0,0.1,0.1
			C416.3,9.8,416.4,9.8,416.5,9.9z"/>
		<path class="st3" d="M404.7,277.8c0,0,0.1,0,0.1,0c0.1,0,0.3-0.1,0.4-0.1c0,0,0,0,0,0C405.1,277.7,404.9,277.7,404.7,277.8
			C404.7,277.8,404.7,277.8,404.7,277.8z"/>
		<path class="st3" d="M415.3,8.8C415.3,8.8,415.3,8.8,415.3,8.8C415.3,8.8,415.3,8.8,415.3,8.8C415.3,8.8,415.3,8.8,415.3,8.8
			C415.3,8.8,415.3,8.8,415.3,8.8z"/>
		<path class="st3" d="M414.9,8.5C414.9,8.5,414.9,8.4,414.9,8.5L414.9,8.5C414.8,8.4,414.9,8.5,414.9,8.5
			C414.9,8.5,414.9,8.5,414.9,8.5z"/>
		<path class="st3" d="M410.6,275c0,0,0.1,0,0.1-0.1c0,0,0,0,0,0C410.7,275,410.7,275,410.6,275C410.7,275,410.7,275,410.6,275z"/>
		<path class="st3" d="M409.8,275.5C409.8,275.5,409.8,275.5,409.8,275.5c0.2-0.1,0.3-0.2,0.5-0.3c0,0,0,0-0.1,0
			C410,275.4,409.9,275.5,409.8,275.5z"/>
		<path class="st3" d="M411.9,274.3c0.1,0,0.1-0.1,0.2-0.1c0,0,0,0,0,0C412,274.2,411.9,274.2,411.9,274.3
			C411.9,274.3,411.9,274.3,411.9,274.3z"/>
		<path class="st3" d="M413,273.5C413,273.5,413,273.5,413,273.5c0.1-0.1,0.2-0.2,0.3-0.2c0,0,0,0,0,0
			C413.2,273.3,413.1,273.4,413,273.5C413,273.5,413,273.5,413,273.5z"/>
		<path class="st3" d="M418.6,12.2C418.6,12.1,418.6,12.1,418.6,12.2c-0.1-0.1-0.1-0.1-0.1-0.1C418.5,12.1,418.6,12.1,418.6,12.2
			C418.6,12.2,418.6,12.2,418.6,12.2z"/>
		<path class="st3" d="M414.9,272C414.9,272,414.9,272,414.9,272C414.9,272,414.9,272,414.9,272C414.9,272,414.9,272,414.9,272
			C414.9,272,414.9,272,414.9,272z"/>
		<path class="st3" d="M415.2,271.7c0.1-0.1,0.3-0.2,0.4-0.4c0,0,0,0,0,0C415.5,271.5,415.4,271.6,415.2,271.7
			C415.2,271.7,415.2,271.7,415.2,271.7z"/>
		<path class="st3" d="M408.5,276.2C408.5,276.2,408.5,276.2,408.5,276.2c0.2-0.1,0.4-0.2,0.5-0.3c0,0,0.1,0,0.1-0.1
			c-0.1,0-0.2,0.1-0.3,0.1C408.8,276.1,408.7,276.1,408.5,276.2z"/>
		<path class="st3" d="M414.1,272.6c0.1-0.1,0.3-0.2,0.4-0.3c0,0,0,0,0,0C414.4,272.4,414.3,272.5,414.1,272.6
			C414.2,272.6,414.1,272.6,414.1,272.6z"/>
		<path class="st3" d="M409.4,275.8C409.4,275.7,409.4,275.7,409.4,275.8C409.5,275.7,409.5,275.7,409.4,275.8
			C409.4,275.7,409.4,275.7,409.4,275.8C409.4,275.8,409.4,275.8,409.4,275.8z"/>
		<path class="st3" d="M401.1,278.8C401.1,278.8,401.1,278.8,401.1,278.8C401.1,278.8,401.1,278.8,401.1,278.8
			C401.2,278.8,401.2,278.8,401.1,278.8C401.1,278.8,401.1,278.8,401.1,278.8z"/>
		<path class="st3" d="M425.9,251.9c0-0.2,0.1-0.4,0.1-0.7c0,0,0,0,0,0C426,251.5,425.9,251.7,425.9,251.9
			C425.9,251.9,425.9,251.9,425.9,251.9z"/>
		<path class="st3" d="M420,266.5c0.1-0.1,0.1-0.2,0.2-0.3c0,0,0,0,0,0C420.2,266.3,420.1,266.4,420,266.5
			C420,266.5,420,266.5,420,266.5z"/>
		<path class="st3" d="M421.9,263.7C421.9,263.7,421.9,263.7,421.9,263.7C421.9,263.7,421.9,263.7,421.9,263.7
			C421.9,263.7,421.9,263.7,421.9,263.7C421.9,263.7,421.9,263.7,421.9,263.7z"/>
		<path class="st3" d="M421.3,264.6c0.1-0.1,0.2-0.2,0.2-0.3c0,0,0,0,0,0c0,0,0,0,0,0C421.5,264.4,421.4,264.5,421.3,264.6
			C421.3,264.6,421.3,264.6,421.3,264.6z"/>
		<path class="st3" d="M426.1,29.8c0,0.3,0,0.6,0.1,0.9C426.1,30.4,426.1,30.1,426.1,29.8z"/>
		<path class="st3" d="M418.3,268.7C418.3,268.6,418.3,268.6,418.3,268.7c0.1-0.1,0.2-0.2,0.3-0.3c0,0,0,0,0,0
			C418.5,268.4,418.4,268.5,418.3,268.7C418.3,268.7,418.3,268.7,418.3,268.7z"/>
		<path class="st3" d="M425.9,28.4c0,0.2,0.1,0.5,0.1,0.7C426,28.9,425.9,28.7,425.9,28.4z"/>
		<path class="st3" d="M18.2,276C18.2,276,18.2,276,18.2,276c0.1,0.1,0.3,0.1,0.4,0.2c0,0,0,0,0,0C18.5,276.1,18.4,276,18.2,276
			C18.2,276,18.2,276,18.2,276z"/>
		<path class="st3" d="M417.5,269.6c0,0,0.1-0.1,0.1-0.1c0,0,0,0,0,0C417.5,269.5,417.5,269.6,417.5,269.6
			C417.4,269.6,417.5,269.6,417.5,269.6z"/>
		<path class="st3" d="M26.3,278.8C26.3,278.9,26.3,278.9,26.3,278.8c0.1,0,0.1,0,0.1,0C26.3,278.9,26.3,278.8,26.3,278.8
			C26.2,278.8,26.3,278.8,26.3,278.8z"/>
		<path class="st3" d="M32.8,279.5L32.8,279.5C32.8,279.5,32.8,279.5,32.8,279.5C32.8,279.5,32.8,279.5,32.8,279.5z"/>
		<path class="st3" d="M425.7,27.1c0,0.2,0.1,0.3,0.1,0.5C425.7,27.4,425.7,27.3,425.7,27.1z"/>
		<path class="st3" d="M20.2,276.9c0,0,0.1,0,0.1,0c0,0,0,0,0,0C20.3,276.9,20.2,276.9,20.2,276.9C20.2,276.9,20.2,276.9,20.2,276.9
			z"/>
		<path class="st3" d="M425.6,253.6c0-0.1,0-0.3,0.1-0.4C425.7,253.4,425.7,253.5,425.6,253.6C425.6,253.6,425.6,253.6,425.6,253.6z
			"/>
		<path class="st3" d="M425.3,255.3c0.1-0.2,0.1-0.4,0.1-0.6c0,0,0,0,0,0C425.4,254.9,425.3,255.1,425.3,255.3
			C425.3,255.3,425.3,255.3,425.3,255.3z"/>
		<path class="st3" d="M426.2,31.3c0,0.5,0,1,0,1.5v0C426.2,32.3,426.2,31.8,426.2,31.3z"/>
		<path class="st3" d="M426.1,249.5C426.1,249.5,426.1,249.5,426.1,249.5c0,0.1,0,0.2,0,0.4C426.1,249.7,426.1,249.6,426.1,249.5z"
			/>
		<path class="st3" d="M424.8,257c0.1-0.2,0.1-0.3,0.1-0.5c0,0,0,0,0,0C424.9,256.7,424.9,256.8,424.8,257
			C424.8,257,424.8,257,424.8,257z"/>
		<path class="st3" d="M422.7,262.1c0-0.1,0.1-0.1,0.1-0.2c0-0.1,0.1-0.1,0.1-0.2c0,0,0,0,0,0C422.9,261.9,422.8,262,422.7,262.1
			C422.7,262.1,422.7,262.1,422.7,262.1z"/>
		<path class="st3" d="M423.4,260.7c0.1-0.2,0.1-0.3,0.2-0.4c0,0,0,0,0,0C423.6,260.4,423.5,260.5,423.4,260.7
			C423.4,260.7,423.4,260.7,423.4,260.7z"/>
		<path class="st3" d="M424.3,258.6C424.3,258.6,424.3,258.6,424.3,258.6C424.3,258.6,424.3,258.5,424.3,258.6
			C424.3,258.6,424.3,258.6,424.3,258.6C424.3,258.6,424.3,258.6,424.3,258.6z"/>
		<path class="st3" d="M421.2,15.8C421.2,15.7,421.2,15.7,421.2,15.8C421.2,15.7,421.2,15.7,421.2,15.8
			C421.2,15.7,421.2,15.7,421.2,15.8z"/>
		<path class="st3" d="M424,259.3C424,259.3,424,259.3,424,259.3C424,259.2,424,259.2,424,259.3C424,259.2,424,259.3,424,259.3
			C424,259.3,424,259.3,424,259.3z"/>
		<path class="st3" d="M420.4,14.4c0,0,0,0.1,0.1,0.1C420.4,14.5,420.4,14.5,420.4,14.4z"/>
		<path class="st3" d="M423.3,19.6C423.3,19.6,423.3,19.6,423.3,19.6C423.3,19.6,423.3,19.6,423.3,19.6z"/>
		<path class="st3" d="M395.9,279.5C395.9,279.5,396,279.5,395.9,279.5C396,279.5,396,279.5,395.9,279.5
			C396,279.5,395.9,279.5,395.9,279.5C395.9,279.5,395.9,279.5,395.9,279.5z"/>
		<path class="st3" d="M394.4,279.5L394.4,279.5c0.1,0,0.1,0,0.1,0c0.1,0,0.2,0,0.2,0c0,0-0.1,0-0.1,0
			C394.6,279.5,394.5,279.5,394.4,279.5z"/>
		<path class="st3" d="M30.6,279.4c0.1,0,0.1,0,0.2,0c0,0,0,0,0,0C30.8,279.5,30.7,279.5,30.6,279.4
			C30.7,279.4,30.7,279.4,30.6,279.4z"/>
		<path class="st3" d="M396.3,279.5C396.3,279.5,396.3,279.5,396.3,279.5c0.1,0,0.2,0,0.2,0c0,0,0,0,0,0
			C396.5,279.5,396.4,279.5,396.3,279.5z"/>
		<path class="st3" d="M22.1,277.7C22.1,277.7,22.1,277.7,22.1,277.7c0.1,0,0.2,0.1,0.4,0.1c0,0,0,0,0,0c0,0,0,0-0.1,0
			C22.3,277.7,22.2,277.7,22.1,277.7z"/>
		<path class="st3" d="M397.9,279.3C397.9,279.3,397.9,279.3,397.9,279.3c0.1,0,0.2,0,0.3,0c0,0,0,0,0,0
			C398,279.3,398,279.3,397.9,279.3z"/>
		<path class="st3" d="M398.9,279.2c0.1,0,0.2,0,0.2,0c0,0,0,0,0,0C399.1,279.2,399,279.2,398.9,279.2
			C398.9,279.2,398.9,279.2,398.9,279.2z"/>
		<path class="st3" d="M397.4,279.4c0.1,0,0.1,0,0.2,0c0,0,0,0,0,0C397.5,279.4,397.5,279.4,397.4,279.4
			C397.4,279.4,397.4,279.4,397.4,279.4z"/>
		<path class="st3" d="M399.3,279.1C399.3,279.1,399.3,279.1,399.3,279.1c0.1,0,0.2,0,0.3-0.1c0,0,0,0,0,0
			C399.6,279.1,399.4,279.1,399.3,279.1z"/>
		<path class="st3" d="M13,272.5C13,272.6,13,272.6,13,272.5c0.1,0.1,0.1,0.1,0.1,0.1C13.1,272.6,13.1,272.6,13,272.5
			C13,272.6,13,272.6,13,272.5z"/>
		<path class="st3" d="M15.3,274.2C15.3,274.3,15.3,274.3,15.3,274.2C15.3,274.3,15.4,274.3,15.3,274.2
			C15.4,274.3,15.3,274.3,15.3,274.2C15.3,274.3,15.3,274.3,15.3,274.2z"/>
		<path class="st3" d="M14.1,273.4C14.1,273.4,14.1,273.5,14.1,273.4C14.2,273.5,14.2,273.5,14.1,273.4
			C14.2,273.5,14.2,273.5,14.1,273.4C14.1,273.5,14.1,273.4,14.1,273.4z"/>
		<path class="st3" d="M423.9,21C423.9,21,423.9,21,423.9,21C423.9,21,423.9,21,423.9,21z"/>
		<path class="st3" d="M12.4,272.1C12.4,272.1,12.4,272.1,12.4,272.1C12.4,272.1,12.4,272.1,12.4,272.1L12.4,272.1z"/>
		<path class="st3" d="M400.4,278.9c0,0,0.1,0,0.1,0c0.1,0,0.1,0,0.2,0c0,0,0,0,0,0C400.6,278.9,400.5,278.9,400.4,278.9
			C400.4,278.9,400.4,278.9,400.4,278.9z"/>
		<path class="st3" d="M16.5,275C16.5,275,16.5,275,16.5,275C16.6,275,16.6,275.1,16.5,275c0.1,0.1,0.1,0.1,0.1,0.1
			C16.6,275.1,16.6,275.1,16.5,275C16.5,275,16.5,275,16.5,275z"/>
		<path class="st3" d="M424.4,22.4L424.4,22.4C424.4,22.4,424.4,22.4,424.4,22.4C424.4,22.4,424.4,22.4,424.4,22.4
			C424.4,22.4,424.4,22.4,424.4,22.4C424.5,22.4,424.4,22.4,424.4,22.4z"/>
		<path class="st2" d="M402.3,278.5c0.1,0,0.2-0.1,0.3-0.1c-0.2,0.1-0.5,0.1-0.7,0.2C402,278.6,402.2,278.6,402.3,278.5z"/>
		<path class="st2" d="M399,279.2c0.1,0,0.2,0,0.2,0c0.1,0,0.1,0,0.2,0c0.1,0,0.2,0,0.3-0.1C399.4,279.1,399.2,279.2,399,279.2z"/>
		<path class="st2" d="M400.4,278.9c0.1,0,0.2,0,0.3-0.1c0.1,0,0.2-0.1,0.3-0.1c0,0,0,0,0.1,0C400.9,278.8,400.7,278.9,400.4,278.9z
			"/>
		<path class="st2" d="M423.4,260.7c0.1-0.2,0.1-0.3,0.2-0.5c0.1-0.1,0.1-0.3,0.2-0.4c-0.1,0.3-0.3,0.7-0.4,1
			C423.4,260.8,423.4,260.7,423.4,260.7z"/>
		<path class="st2" d="M397.4,279.4c0.1,0,0.1,0,0.2,0c0.1,0,0.2,0,0.3,0c0.1,0,0.2,0,0.2,0C397.9,279.3,397.7,279.4,397.4,279.4z"
			/>
		<path class="st2" d="M13,272.6C12.9,272.5,12.9,272.5,13,272.6c-0.3-0.2-0.4-0.3-0.6-0.5l0,0c0,0,0,0,0,0
			C12.6,272.3,12.8,272.4,13,272.6C13,272.6,13,272.6,13,272.6C13,272.6,13,272.6,13,272.6z"/>
		<path class="st2" d="M421.6,264.2c0.1-0.2,0.2-0.3,0.3-0.5c0,0,0,0,0-0.1c0,0,0,0,0,0c-0.2,0.3-0.4,0.7-0.6,1
			C421.4,264.5,421.5,264.4,421.6,264.2z"/>
		<path class="st2" d="M424,259.3C424,259.3,424,259.2,424,259.3c0.1-0.3,0.2-0.5,0.3-0.7c0,0,0-0.1,0-0.1c0-0.1,0.1-0.3,0.1-0.4
			c0,0,0,0,0-0.1h0c0.1-0.4,0.3-0.7,0.4-1.1c0.1-0.2,0.1-0.4,0.1-0.5c0-0.2,0.1-0.3,0.1-0.5c-0.3,1.2-0.7,2.4-1.2,3.6
			C423.9,259.5,424,259.4,424,259.3z"/>
		<path class="st2" d="M408.1,276.4C408.1,276.4,408.1,276.4,408.1,276.4c-0.2,0.1-0.5,0.2-0.7,0.3
			C407.6,276.6,407.9,276.5,408.1,276.4z"/>
		<path class="st2" d="M406.7,277.1C406.7,277,406.7,277,406.7,277.1c-0.1,0-0.3,0.1-0.5,0.2C406.3,277.2,406.5,277.1,406.7,277.1z"
			/>
		<path class="st2" d="M403.8,278.1c0.1,0,0.2-0.1,0.3-0.1c-0.2,0.1-0.5,0.1-0.7,0.2C403.5,278.2,403.6,278.2,403.8,278.1z"/>
		<path class="st2" d="M408.2,276.3c0.1,0,0.2-0.1,0.3-0.1c0.1-0.1,0.3-0.1,0.4-0.2C408.7,276.1,408.5,276.2,408.2,276.3z"/>
		<path class="st2" d="M16.3,274.9C16.3,274.9,16.2,274.9,16.3,274.9c0.1,0,0.2,0.1,0.3,0.2c0,0,0,0,0,0
			C16.5,275,16.4,274.9,16.3,274.9z"/>
		<path class="st2" d="M18.6,276.2C18.6,276.2,18.6,276.2,18.6,276.2c-0.1,0-0.2-0.1-0.4-0.2C18.4,276,18.5,276.1,18.6,276.2z"/>
		<path class="st2" d="M15.8,274.6c0.1,0.1,0.2,0.1,0.3,0.2c0,0,0,0,0,0C16,274.7,15.9,274.7,15.8,274.6z"/>
		<path class="st2" d="M395.9,279.5C395.9,279.5,396,279.5,395.9,279.5c0.2,0,0.3,0,0.4,0c0.1,0,0.1,0,0.2,0
			C396.3,279.5,396.1,279.5,395.9,279.5z"/>
		<path class="st2" d="M426.1,30.7c0-0.3,0-0.6-0.1-0.9c0-0.2,0-0.5-0.1-0.7c0-0.2-0.1-0.5-0.1-0.7c0-0.3-0.1-0.5-0.1-0.8
			c0-0.2-0.1-0.3-0.1-0.5c-0.1-0.8-0.3-1.5-0.5-2.3c0.2,0.9,0.4,1.8,0.6,2.7l-116.1,76.1h116.5V86.7V65.2V43.8v-11c0-0.5,0-1,0-1.5
			C426.2,31.1,426.1,30.9,426.1,30.7z"/>
		<path class="st2" d="M419.6,13.3C419.5,13.3,419.5,13.3,419.6,13.3c-0.1-0.1-0.2-0.2-0.2-0.3C419.4,13.2,419.5,13.3,419.6,13.3
			C419.6,13.4,419.6,13.4,419.6,13.3z"/>
		<path class="st2" d="M14.7,273.9c0.2,0.1,0.4,0.3,0.6,0.4c0,0,0,0,0,0C15.1,274.1,14.9,274,14.7,273.9z"/>
		<path class="st2" d="M13.6,273.1c0.2,0.1,0.3,0.2,0.5,0.4c0,0,0,0,0,0C14,273.3,13.8,273.2,13.6,273.1z"/>
		<path class="st2" d="M394.4,279.5h-8.3l-135.8-89v89h-14.7h-44h-14.7v-89l-135.8,89h-8.3c0,0-0.1,0-0.1,0c0,0,0,0,0.1,0
			c0,0,0,0,0,0l202.7,0L394.4,279.5c0.1,0,0.2,0,0.3,0C394.6,279.5,394.5,279.5,394.4,279.5z"/>
		<path class="st2" d="M422.7,262.1c0.1-0.1,0.1-0.3,0.2-0.4c0-0.1,0.1-0.1,0.1-0.2c0,0,0-0.1,0.1-0.1c0,0,0-0.1,0.1-0.1
			C423,261.6,422.9,261.9,422.7,262.1C422.7,262.1,422.7,262.1,422.7,262.1z"/>
		<path class="st2" d="M30.9,279.5C30.9,279.5,30.9,279.5,30.9,279.5c0,0-0.1,0-0.2,0C30.7,279.5,30.8,279.5,30.9,279.5z"/>
		<path class="st2" d="M22,277.6c0,0,0.1,0,0.1,0c0.1,0,0.2,0.1,0.3,0.1C22.3,277.7,22.2,277.7,22,277.6z"/>
		<path class="st2" d="M404.8,277.8c0.2-0.1,0.3-0.1,0.5-0.2c0.1,0,0.1,0,0.2-0.1c0,0,0,0,0,0C405.2,277.6,405,277.7,404.8,277.8z"
			/>
		<path class="st2" d="M420,266.6C420,266.6,420,266.6,420,266.6c0.1-0.2,0.2-0.3,0.3-0.4c0,0,0-0.1,0.1-0.1
			c-0.1,0.1-0.2,0.3-0.3,0.4C420,266.5,420,266.6,420,266.6z"/>
		<path class="st2" d="M417.5,269.6c-0.1,0.1-0.1,0.1-0.2,0.2C417.3,269.7,417.4,269.7,417.5,269.6c0,0,0.1-0.1,0.1-0.1
			c0-0.1,0.1-0.1,0.1-0.2c0,0-0.1,0.1-0.1,0.1C417.6,269.5,417.5,269.5,417.5,269.6z"/>
		<path class="st2" d="M26.2,278.8c0.1,0,0.1,0,0.2,0c0.1,0,0.2,0,0.2,0c-0.2,0-0.3-0.1-0.5-0.1C26.1,278.8,26.2,278.8,26.2,278.8z"
			/>
		<path class="st2" d="M416.2,270.8c0.2-0.2,0.3-0.3,0.5-0.5c0.1-0.1,0.1-0.1,0.2-0.2C416.7,270.4,416.5,270.6,416.2,270.8
			C416.2,270.8,416.2,270.8,416.2,270.8z"/>
		<path class="st2" d="M425.8,252.9c0.1-0.4,0.1-0.7,0.2-1.1c0-0.2,0.1-0.4,0.1-0.7c0-0.4,0.1-0.8,0.1-1.2c0-0.1,0-0.1,0-0.2
			c0-0.1,0-0.2,0-0.4c0-0.6,0.1-1.2,0.1-1.8v0v-11v-21.4v-21.4v-16.9H309.7L425.8,252.9z"/>
		<path class="st2" d="M418.3,268.7c0.1-0.1,0.2-0.2,0.3-0.4c0,0,0,0,0.1-0.1c-0.2,0.2-0.3,0.4-0.5,0.5
			C418.2,268.7,418.3,268.7,418.3,268.7z"/>
		<path class="st2" d="M423.4,19.7C423.3,19.6,423.3,19.6,423.4,19.7C423.3,19.6,423.3,19.6,423.4,19.7c0,0,0.1,0.1,0.1,0.2
			C423.4,19.8,423.4,19.7,423.4,19.7z"/>
		<path class="st2" d="M417.5,11c-0.1-0.1-0.1-0.1-0.2-0.2c0,0,0,0,0,0c0.1,0.1,0.2,0.2,0.3,0.4C417.6,11.1,417.6,11,417.5,11z"/>
		<path class="st2" d="M418.6,12.2c0,0-0.1-0.1-0.1-0.1c0,0-0.1-0.1-0.1-0.1C418.5,12,418.6,12.2,418.6,12.2
			C418.7,12.3,418.6,12.2,418.6,12.2z"/>
		<path class="st2" d="M416.6,10c0,0-0.1-0.1-0.1-0.1c-0.1-0.1-0.1-0.1-0.2-0.2C416.4,9.8,416.5,9.9,416.6,10z"/>
		<path class="st2" d="M414.8,8.4L414.8,8.4C414.8,8.4,414.9,8.5,414.8,8.4C414.9,8.5,414.8,8.4,414.8,8.4z"/>
		<path class="st2" d="M420.4,14.5c0,0,0-0.1-0.1-0.1c0-0.1-0.1-0.1-0.1-0.2C420.3,14.4,420.4,14.5,420.4,14.5
			C420.4,14.6,420.4,14.5,420.4,14.5z"/>
		<path class="st2" d="M415.4,8.9C415.4,8.9,415.3,8.9,415.4,8.9c-0.1-0.1-0.1-0.1-0.1-0.1C415.3,8.8,415.4,8.9,415.4,8.9z"/>
		<path class="st2" d="M424.5,22.4C424.4,22.4,424.4,22.4,424.5,22.4c0-0.1,0-0.1-0.1-0.2c0.1,0.2,0.1,0.4,0.2,0.7
			C424.6,22.7,424.5,22.6,424.5,22.4z"/>
		<path class="st2" d="M421.2,15.7c0,0-0.1-0.1-0.1-0.1C421.1,15.6,421.2,15.7,421.2,15.7C421.2,15.7,421.2,15.7,421.2,15.7z"/>
		<path class="st2" d="M425.3,255.3c0.1-0.2,0.1-0.4,0.1-0.6c0-0.1,0-0.1,0-0.2c-0.1,0.4-0.2,0.7-0.3,1.1
			C425.2,255.5,425.2,255.4,425.3,255.3z"/>
		<path class="st2" d="M424.8,23.5c0.1,0.3,0.2,0.6,0.3,0.9C425,24.1,424.9,23.8,424.8,23.5z"/>
		<path class="st2" d="M413.3,273.3c-0.1,0.1-0.2,0.1-0.2,0.2C413.1,273.4,413.2,273.3,413.3,273.3c0.2-0.1,0.3-0.3,0.5-0.4
			c-0.1,0.1-0.2,0.2-0.3,0.3C413.4,273.2,413.3,273.2,413.3,273.3z"/>
		<path class="st2" d="M410.8,275c0.1-0.1,0.3-0.2,0.4-0.3c0.1,0,0.1-0.1,0.2-0.1c-0.2,0.2-0.5,0.3-0.7,0.4
			C410.7,275,410.7,275,410.8,275z"/>
		<path class="st2" d="M412.1,274.1c0.2-0.1,0.3-0.2,0.5-0.3c-0.2,0.2-0.5,0.3-0.7,0.5C411.9,274.2,412,274.2,412.1,274.1z"/>
		<path class="st2" d="M409.4,275.8C409.4,275.7,409.4,275.7,409.4,275.8c0.2-0.1,0.3-0.2,0.4-0.2c0.1-0.1,0.3-0.1,0.4-0.2
			C409.9,275.5,409.7,275.6,409.4,275.8z"/>
		<path class="st2" d="M423.9,21C423.9,21,423.9,21,423.9,21c0-0.1,0-0.1,0-0.1c0.1,0.1,0.1,0.3,0.2,0.4C424,21.2,424,21.1,423.9,21
			z"/>
		<path class="st2" d="M415.7,271.3c0.1-0.1,0.1-0.1,0.2-0.2c0,0,0,0,0.1-0.1c0,0,0,0,0,0c-0.2,0.2-0.5,0.4-0.7,0.6
			C415.4,271.6,415.5,271.5,415.7,271.3z"/>
		<path class="st2" d="M425.6,253.6c0-0.1,0-0.3,0.1-0.4c0-0.1,0-0.2,0.1-0.3c0,0,0,0,0,0c-0.1,0.4-0.1,0.7-0.2,1.1
			C425.6,253.9,425.6,253.8,425.6,253.6z"/>
		<path class="st2" d="M414.8,272.1C414.8,272.1,414.8,272.1,414.8,272.1c-0.2,0.2-0.5,0.4-0.7,0.5c0.1-0.1,0.2-0.2,0.3-0.3
			C414.6,272.2,414.7,272.1,414.8,272.1C414.9,272,414.9,272,414.8,272.1C414.9,272,414.9,272,414.8,272.1z"/>
		<path class="st0" d="M16.6,275C16.6,275.1,16.6,275.1,16.6,275c0.1,0,0.1,0.1,0.1,0.1c0.3,0.2,0.5,0.3,0.8,0.5
			c-0.4-0.2-0.8-0.5-1.2-0.7C16.4,274.9,16.5,275,16.6,275z"/>
		<path class="st0" d="M417.6,11.1c-0.1-0.1-0.2-0.2-0.3-0.4c0-0.1-0.1-0.1-0.2-0.2c0.4,0.4,0.7,0.8,1.1,1.2
			C418,11.5,417.8,11.3,417.6,11.1z"/>
		<path class="st0" d="M416.6,10c-0.1-0.1-0.2-0.2-0.3-0.3c0,0,0,0-0.1-0.1c-0.2-0.1-0.3-0.3-0.5-0.4c0.4,0.3,0.7,0.7,1.1,1.1
			C416.8,10.2,416.7,10.1,416.6,10z"/>
		<path class="st0" d="M416.2,270.8c0.2-0.2,0.5-0.4,0.7-0.7c0.1-0.1,0.2-0.2,0.3-0.4c0.1-0.1,0.1-0.1,0.2-0.2
			C417.1,270,416.7,270.4,416.2,270.8z"/>
		<path class="st0" d="M13,272.6C13,272.6,13,272.6,13,272.6c0.1,0.1,0.1,0.1,0.1,0.1c0.1,0.1,0.1,0.1,0.2,0.2
			c0.1,0.1,0.2,0.2,0.3,0.2c0.2,0.1,0.3,0.3,0.5,0.4c0,0,0,0,0.1,0c0.1,0.1,0.2,0.1,0.3,0.2c0,0,0,0,0,0C14,273.3,13.5,273,13,272.6
			z"/>
		<path class="st0" d="M417.7,269.3c0.2-0.2,0.3-0.3,0.5-0.5c0.2-0.2,0.3-0.4,0.5-0.5c0,0,0,0,0,0c-0.3,0.4-0.7,0.8-1.1,1.2
			C417.7,269.4,417.7,269.3,417.7,269.3z"/>
		<path class="st0" d="M414.9,272C414.9,272,414.9,272,414.9,272c0.1,0,0.1-0.1,0.1-0.1c0,0,0,0,0.1-0.1c0,0,0.1-0.1,0.1-0.1
			c0,0,0,0,0,0c0.2-0.2,0.5-0.4,0.7-0.6c0.1-0.1,0.2-0.2,0.3-0.3C415.8,271.3,415.3,271.7,414.9,272C414.9,272,414.9,272,414.9,272z
			"/>
		<path class="st0" d="M14.6,273.7c0.1,0,0.1,0.1,0.2,0.1c0.2,0.1,0.4,0.3,0.6,0.4c0,0,0,0,0,0c0.1,0.1,0.2,0.1,0.3,0.2
			c0.1,0,0.1,0.1,0.2,0.1c0.1,0.1,0.2,0.1,0.3,0.2C15.6,274.4,15.1,274.1,14.6,273.7z"/>
		<path class="st0" d="M425.8,27.5c-0.2-0.9-0.3-1.8-0.6-2.7c0-0.1-0.1-0.3-0.1-0.4c-0.1-0.3-0.2-0.6-0.3-0.9
			c-0.1-0.2-0.1-0.4-0.2-0.6c-0.1-0.2-0.1-0.4-0.2-0.7c-0.1-0.3-0.2-0.6-0.3-0.9c-0.1-0.1-0.1-0.3-0.2-0.4c-0.1-0.3-0.3-0.7-0.4-1
			c0-0.1-0.1-0.2-0.1-0.3c-0.6-1.3-1.3-2.6-2.1-3.8c0,0,0,0,0,0c0-0.1-0.1-0.1-0.1-0.2c-0.2-0.3-0.4-0.7-0.7-1
			c-0.1-0.1-0.1-0.2-0.2-0.3c-0.2-0.3-0.4-0.6-0.6-0.9c-0.1-0.1-0.2-0.2-0.2-0.3c-0.2-0.3-0.4-0.5-0.7-0.8c-0.1-0.1-0.2-0.2-0.3-0.3
			c0,0,0,0,0,0l-141.2,91.7h-7.6l-6.9,4.5l-15.5,10.2h179v-10.2v-4.5H309.7L425.8,27.5z"/>
		<path class="st0" d="M41.1,279.5l135.8-89v89h14.7V162.2H180l-15.5,10.2l-6.9,4.5h18.9L21.6,277.5c0.1,0.1,0.3,0.1,0.4,0.2
			c0.1,0.1,0.3,0.1,0.4,0.1c0,0,0,0,0.1,0c0.5,0.2,1,0.3,1.5,0.5c0.2,0,0.3,0.1,0.5,0.1c0.5,0.1,1.1,0.3,1.6,0.4
			c0.2,0,0.3,0.1,0.5,0.1c0.6,0.1,1.1,0.2,1.7,0.3c0.2,0,0.3,0,0.5,0.1c0.5,0.1,1,0.1,1.5,0.2c0.1,0,0.2,0,0.3,0c0,0,0,0,0,0
			c0.1,0,0.1,0,0.2,0c0.6,0,1.2,0.1,1.9,0.1c0,0,0.1,0,0.1,0H41.1z"/>
		<path class="st0" d="M421.3,264.7C421.3,264.7,421.3,264.7,421.3,264.7c0-0.1,0.1-0.1,0.1-0.1c0,0,0,0,0,0c0.2-0.3,0.4-0.7,0.6-1
			c0,0,0,0,0-0.1c-0.3,0.5-0.5,0.9-0.8,1.4C421.2,264.8,421.2,264.8,421.3,264.7z"/>
		<path class="st0" d="M235.6,279.5h14.7v-89l135.8,89h8.3c0.1,0,0.2,0,0.3,0c0,0,0.1,0,0.1,0c0.3,0,0.7,0,1,0c0,0,0,0,0.1,0
			c0,0,0,0,0,0c0.2,0,0.4,0,0.6,0c0,0,0,0,0,0c0.2,0,0.5,0,0.7-0.1c0,0,0.1,0,0.1,0c0,0,0,0,0,0c0.2,0,0.5-0.1,0.7-0.1c0,0,0,0,0,0
			c0.2,0,0.4-0.1,0.6-0.1c0.1,0,0.1,0,0.2,0c0,0,0,0,0,0c0.2,0,0.5-0.1,0.7-0.1c0,0,0,0,0,0c0.2,0,0.5-0.1,0.7-0.1c0,0,0,0,0,0
			c0.2,0,0.5-0.1,0.7-0.1c0,0,0,0,0,0c0.2-0.1,0.5-0.1,0.7-0.2c0,0,0,0,0,0c0.2-0.1,0.5-0.1,0.7-0.2c0,0,0,0,0.1,0
			c0.2-0.1,0.4-0.1,0.6-0.2c0,0,0,0,0.1,0c0.2-0.1,0.5-0.1,0.7-0.2c0,0,0,0,0,0c0.2-0.1,0.4-0.1,0.6-0.2c0,0,0,0,0.1,0
			c0.2-0.1,0.5-0.2,0.7-0.2c0,0,0,0,0,0c0.2-0.1,0.4-0.1,0.6-0.2c0,0,0.1,0,0.1,0c0.2-0.1,0.4-0.2,0.6-0.3c0.1-0.1,0.3-0.1,0.4-0.2
			c0,0,0,0,0,0c0,0,0.1,0,0.1-0.1c0.2-0.1,0.5-0.2,0.7-0.3c0,0,0.1,0,0.1-0.1c0.2-0.1,0.5-0.2,0.7-0.3c0.1,0,0.2-0.1,0.3-0.1
			c0.1,0,0.1-0.1,0.2-0.1c0,0,0,0,0,0c0.3-0.1,0.5-0.3,0.8-0.4c0,0,0,0,0.1,0c0,0,0,0,0,0c0.1-0.1,0.2-0.1,0.4-0.2c0,0,0,0,0,0
			c0.2-0.1,0.5-0.3,0.7-0.4c0,0,0,0,0,0c0,0,0.1,0,0.1-0.1c0.1-0.1,0.3-0.2,0.4-0.2c0,0,0,0,0,0c0.2-0.2,0.5-0.3,0.7-0.5
			c0.1,0,0.1-0.1,0.2-0.1c0.1-0.1,0.2-0.1,0.3-0.2c0,0,0,0,0.1,0c0.1-0.1,0.2-0.1,0.2-0.2c-0.5,0.4-1,0.7-1.5,1l-150.1-97.4h26.9
			L422,263.5c0.2-0.4,0.5-0.9,0.7-1.3c0.1-0.3,0.3-0.6,0.4-0.9c0.1-0.1,0.1-0.3,0.2-0.4c0.2-0.3,0.3-0.7,0.4-1
			c0-0.1,0.1-0.1,0.1-0.2c0.5-1.2,0.9-2.3,1.2-3.6c0-0.1,0.1-0.3,0.1-0.4c0.1-0.4,0.2-0.7,0.3-1.1c0-0.2,0.1-0.3,0.1-0.5
			c0.1-0.4,0.1-0.7,0.2-1.1c0,0,0,0,0,0l-116.1-76.1h116.5v-4.5v-10.2H235.6V279.5z"/>
		<path class="st0" d="M420.3,266.1c0.1-0.2,0.2-0.4,0.4-0.6c-0.2,0.3-0.4,0.6-0.6,0.9C420.1,266.4,420.2,266.2,420.3,266.1z"/>
		<path class="st0" d="M414.8,272.1c-0.4,0.4-0.9,0.7-1.4,1.1c0.1-0.1,0.2-0.2,0.3-0.3c0,0,0,0,0,0c0.1-0.1,0.2-0.1,0.3-0.2
			c0,0,0,0,0,0c0,0,0,0,0,0C414.4,272.4,414.6,272.3,414.8,272.1z"/>
		<path class="st0" d="M20.2,276.9c0,0,0.1,0,0.1,0.1c0.3,0.1,0.6,0.2,0.9,0.3c-0.4-0.2-0.9-0.3-1.3-0.5
			C20,276.8,20.1,276.9,20.2,276.9z"/>
		<path class="st0" d="M415.4,8.9c0,0-0.1-0.1-0.1-0.1c0,0,0,0,0,0c-0.1-0.1-0.1-0.1-0.2-0.2c0,0-0.1-0.1-0.1-0.1c0,0,0,0,0,0
			c0,0-0.1,0-0.1-0.1l0,0l0,0C415,8.6,415.3,8.8,415.4,8.9C415.5,9,415.4,8.9,415.4,8.9z"/>
		<path class="st0" d="M18.2,276C18.2,276,18.2,276,18.2,276c0.2,0.1,0.3,0.2,0.4,0.2c0.2,0.1,0.4,0.2,0.7,0.3
			c-0.4-0.2-0.8-0.4-1.2-0.6C18.1,275.9,18.2,275.9,18.2,276z"/>
		<path class="st0" d="M12.4,272.1L12.4,272.1L12.4,272.1c0.2,0.1,0.3,0.3,0.5,0.4C12.7,272.3,12.6,272.2,12.4,272.1z"/>
		<polygon class="st1" points="230,129.5 197.2,151 180,162.2 191.6,162.2 191.6,279.5 235.6,279.5 235.6,162.2 426.2,162.2 
			426.2,151 426.2,136.9 426.2,118.3 247.2,118.3 		"/>
		<path class="st1" d="M157.7,176.9l-25.8,16.9l-32.7,21.4l-32.7,21.4l-32.7,21.4l-21.3,14l0,0c0.2,0.1,0.3,0.3,0.5,0.4
			c0,0,0.1,0,0.1,0.1c0.5,0.4,1,0.8,1.5,1.2c0,0,0,0,0,0c0.5,0.4,1,0.7,1.6,1c0,0,0,0,0,0c0,0,0.1,0,0.1,0.1c0,0,0,0,0,0
			c0.4,0.2,0.8,0.5,1.2,0.7c0.2,0.1,0.4,0.2,0.6,0.3c0.4,0.2,0.8,0.4,1.2,0.6c0.2,0.1,0.4,0.2,0.6,0.3c0.4,0.2,0.8,0.4,1.3,0.5
			c0.1,0.1,0.3,0.1,0.4,0.2l154.9-100.6H157.7z"/>
		<path class="st1" d="M261.7,176.9l150.1,97.4c0.5-0.3,1-0.7,1.5-1c0.1,0,0.1-0.1,0.2-0.1c0.5-0.3,0.9-0.7,1.4-1.1c0,0,0,0,0,0
			c0.5-0.4,0.9-0.8,1.4-1.2c0,0,0,0,0,0c0,0,0,0,0,0c0,0,0,0,0,0c0.4-0.4,0.8-0.8,1.2-1.2c0.1-0.1,0.1-0.1,0.2-0.2
			c0.4-0.4,0.7-0.8,1.1-1.2c0.4-0.5,0.9-1,1.3-1.6c0,0,0.1-0.1,0.1-0.1c0.2-0.3,0.4-0.6,0.6-0.9c0.1-0.2,0.3-0.4,0.4-0.7
			c0.3-0.4,0.6-0.9,0.8-1.4c0,0,0-0.1,0-0.1l-133.3-86.6H261.7z"/>
		<path class="st1" d="M418.4,11.9c-0.1-0.1-0.1-0.1-0.2-0.2c-0.4-0.4-0.7-0.8-1.1-1.2c-0.1-0.1-0.2-0.2-0.3-0.3
			c-0.4-0.4-0.7-0.7-1.1-1.1c-0.1-0.1-0.2-0.2-0.3-0.3c-0.2-0.2-0.5-0.4-0.7-0.6l-21.3,14l-32.7,21.4l-32.7,21.4l-32.7,21.4
			l-25.8,16.9h7.6L418.4,11.9z"/>
	</g>
</g>
</svg>
