<?xml version="1.0" encoding="utf-8"?>
<!-- Generator: Adobe Illustrator 27.7.0, SVG Export Plug-In . SVG Version: 6.00 Build 0)  -->
<svg version="1.1" id="Layer_1" xmlns="http://www.w3.org/2000/svg" xmlns:xlink="http://www.w3.org/1999/xlink" x="0px" y="0px"
	 viewBox="0 0 280.5 280.5" style="enable-background:new 0 0 280.5 280.5;" xml:space="preserve">
<style type="text/css">
	.st0{fill:#F5F5F5;stroke:#000000;stroke-width:2;stroke-miterlimit:10;}
	.st1{fill:#FF4B55;stroke:#000000;stroke-width:2;stroke-miterlimit:10;}
	.st2{fill:#41479B;stroke:#000000;stroke-width:2;stroke-miterlimit:10;}
</style>
<g>
	<polygon class="st0" points="125.6,129.6 156.6,129.6 156.6,129.5 173.8,118.3 189.3,108.1 125.6,108.1 	"/>
	<polygon class="st0" points="222,86.7 254.7,65.3 125.6,65.3 125.6,86.7 222,86.7 	"/>
	<path class="st0" d="M140.3,1C140.3,1,140.3,1,140.3,1L140.3,1C140.3,1,140.3,1,140.3,1z"/>
	<path class="st0" d="M125.6,43.9h115.2c-7.8-8.2-16.6-15.4-26.2-21.4h-88.9V43.9z"/>
	<path class="st0" d="M91.2,172.4l15.5-10.2l17.1-11.2h-5.6H1.4c0.6,7.3,1.7,14.5,3.3,21.4L91.2,172.4L91.2,172.4z"/>
	<path class="st0" d="M25.8,215.2l32.6-21.4H11.7c3.1,7.5,6.9,14.7,11.2,21.4L25.8,215.2L25.8,215.2z"/>
	<path class="st1" d="M125.6,8.3v14.1h88.9C193,8.9,167.6,1,140.3,1h0c-6.1,0-12.1,0.4-18,1.2C124.3,3.5,125.6,5.7,125.6,8.3z"/>
	<polygon class="st1" points="125.6,86.7 125.6,108.1 189.3,108.1 189.3,108.1 196.2,103.6 222,86.7 	"/>
	<path class="st1" d="M125.6,65.3h129.1l0.1,0l2-1.3c-4.7-7.2-10.1-13.9-16-20.1H125.6V65.3z"/>
	<path class="st1" d="M125.6,143.7c0,4-3.3,7.3-7.3,7.3h5.6l0.1,0l32.6-21.4h-31V143.7z"/>
	<path class="st1" d="M22.9,215.3c0.3,0.4,0.6,0.9,0.8,1.3l2-1.3H22.9z"/>
	<path class="st1" d="M58.5,193.8l25.8-16.9l6.8-4.5H4.7c1.7,7.4,4.1,14.5,7,21.4L58.5,193.8L58.5,193.8z"/>
	<path class="st2" d="M3.1,115.8c0,0.1,0,0.3-0.1,0.4L3.1,115.8L3.1,115.8z"/>
	<path class="st2" d="M125.6,143.7v-14.1v-21.4V86.7V65.3V43.9V22.4V8.3c0-2.6-1.3-4.9-3.4-6.2c-19.7,2.5-38.1,9.2-54.3,19.1
		l0.5,1.5l5.1,0c0.7,0,0.9,0.9,0.4,1.2l-4.1,3l1.5,4.9c0.2,0.6-0.5,1.2-1.1,0.8l-4.2-3l-4.2,3c-0.5,0.4-1.3-0.1-1.1-0.8l1.5-4.9
		l-1.6-1.2c-4.2,2.9-8.2,6-12,9.3l4.9,0c0.7,0,0.9,0.9,0.4,1.2l-4.1,3l1.5,4.9c0.2,0.6-0.5,1.2-1.1,0.8l-4.2-3l-4.2,3
		c-0.5,0.4-1.3-0.1-1.1-0.8l0.9-2.9c-4,4-7.7,8.2-11.2,12.6l1,3.3c0.2,0.6-0.5,1.2-1.1,0.8l-2-1.4c-6.8,9-12.5,18.9-16.9,29.4l2.4,0
		c0.7,0,0.9,0.9,0.4,1.2l-4.1,3l1.5,4.9c0.2,0.6-0.5,1.2-1.1,0.8l-2.3-1.7C6.8,100,5.2,105.7,4,111.5l0.6,0l1.6-4.9
		c0.2-0.6,1.1-0.6,1.3,0l1.6,4.9l5.1,0c0.7,0,0.9,0.9,0.4,1.2l-4.1,3l1.5,4.9c0.2,0.6-0.5,1.2-1.1,0.8l-4.2-3l-4.2,3
		c-0.1,0.1-0.3,0.1-0.5,0.1C1.4,127.7,1,134,1,140.3c0,3.6,0.1,7.2,0.4,10.7h116.9C122.3,151,125.6,147.7,125.6,143.7z M34.4,125.8
		l-4.1,3l1.5,4.9c0.2,0.6-0.5,1.2-1.1,0.8l-4.2-3l-4.2,3c-0.5,0.4-1.3-0.1-1.1-0.8l1.5-4.9l-4.1-3c-0.5-0.4-0.3-1.2,0.4-1.2l5.1,0
		l1.6-4.9c0.2-0.6,1.1-0.6,1.3,0l1.6,4.9l5.1,0C34.7,124.6,35,125.4,34.4,125.8z M34.4,100.3l-4.1,3l1.5,4.9
		c0.2,0.6-0.5,1.2-1.1,0.8l-4.2-3l-4.2,3c-0.5,0.4-1.3-0.1-1.1-0.8l1.5-4.9l-4.1-3c-0.5-0.4-0.3-1.2,0.4-1.2l5.1,0l1.6-4.9
		c0.2-0.6,1.1-0.6,1.3,0l1.6,4.9l5.1,0C34.7,99.1,35,100,34.4,100.3z M34.4,74.9l-4.1,3l1.5,4.9c0.2,0.6-0.5,1.2-1.1,0.8l-4.2-3
		l-4.2,3c-0.5,0.4-1.3-0.1-1.1-0.8l1.5-4.9l-4.1-3c-0.5-0.4-0.3-1.2,0.4-1.2l5.1,0l1.6-4.9c0.2-0.6,1.1-0.6,1.3,0l1.6,4.9l5.1,0
		C34.7,73.7,35,74.5,34.4,74.9z M54.2,112.8l-4.1,3l1.5,4.9c0.2,0.6-0.5,1.2-1.1,0.8l-4.2-3l-4.2,3c-0.5,0.4-1.3-0.1-1.1-0.8
		l1.5-4.9l-4.1-3c-0.5-0.4-0.3-1.2,0.4-1.2l5.1,0l1.6-4.9c0.2-0.6,1.1-0.6,1.3,0l1.6,4.9l5.1,0C54.5,111.6,54.7,112.4,54.2,112.8z
		 M54.2,87.4l-4.1,3l1.5,4.9c0.2,0.6-0.5,1.2-1.1,0.8l-4.2-3l-4.2,3c-0.5,0.4-1.3-0.1-1.1-0.8l1.5-4.9l-4.1-3
		C38,87,38.3,86.1,39,86.1l5.1,0l1.6-4.9c0.2-0.6,1.1-0.6,1.3,0l1.6,4.9l5.1,0C54.5,86.1,54.7,87,54.2,87.4z M54.2,61.9l-4.1,3
		l1.5,4.9c0.2,0.6-0.5,1.2-1.1,0.8l-4.2-3l-4.2,3c-0.5,0.4-1.3-0.1-1.1-0.8l1.5-4.9l-4.1-3c-0.5-0.4-0.3-1.2,0.4-1.2l5.1,0l1.6-4.9
		c0.2-0.6,1.1-0.6,1.3,0l1.6,4.9l5.1,0C54.5,60.7,54.7,61.5,54.2,61.9z M74,125.8l-4.1,3l1.5,4.9c0.2,0.6-0.5,1.2-1.1,0.8l-4.2-3
		l-4.2,3c-0.5,0.4-1.3-0.1-1.1-0.8l1.5-4.9l-4.1-3c-0.5-0.4-0.3-1.2,0.4-1.2l5.1,0l1.6-4.9c0.2-0.6,1.1-0.6,1.3,0l1.6,4.9l5.1,0
		C74.2,124.6,74.5,125.4,74,125.8z M74,100.3l-4.1,3l1.5,4.9c0.2,0.6-0.5,1.2-1.1,0.8l-4.2-3l-4.2,3c-0.5,0.4-1.3-0.1-1.1-0.8
		l1.5-4.9l-4.1-3c-0.5-0.4-0.3-1.2,0.4-1.2l5.1,0l1.6-4.9c0.2-0.6,1.1-0.6,1.3,0l1.6,4.9l5.1,0C74.2,99.1,74.5,100,74,100.3z
		 M74,74.9l-4.1,3l1.5,4.9c0.2,0.6-0.5,1.2-1.1,0.8l-4.2-3l-4.2,3c-0.5,0.4-1.3-0.1-1.1-0.8l1.5-4.9l-4.1-3
		c-0.5-0.4-0.3-1.2,0.4-1.2l5.1,0l1.6-4.9c0.2-0.6,1.1-0.6,1.3,0l1.6,4.9l5.1,0C74.2,73.7,74.5,74.5,74,74.9z M74,49.4l-4.1,3
		l1.5,4.9c0.2,0.6-0.5,1.2-1.1,0.8l-4.2-3l-4.2,3c-0.5,0.4-1.3-0.1-1.1-0.8l1.5-4.9l-4.1-3c-0.5-0.4-0.3-1.2,0.4-1.2l5.1,0l1.6-4.9
		c0.2-0.6,1.1-0.6,1.3,0l1.6,4.9l5.1,0C74.2,48.2,74.5,49,74,49.4z M93.7,112.8l-4.1,3l1.5,4.9c0.2,0.6-0.5,1.2-1.1,0.8l-4.2-3
		l-4.2,3c-0.5,0.4-1.3-0.1-1.1-0.8l1.5-4.9l-4.1-3c-0.5-0.4-0.3-1.2,0.4-1.2l5.1,0l1.6-4.9c0.2-0.6,1.1-0.6,1.3,0l1.6,4.9l5.1,0
		C94,111.6,94.3,112.4,93.7,112.8z M93.7,87.4l-4.1,3l1.5,4.9c0.2,0.6-0.5,1.2-1.1,0.8l-4.2-3l-4.2,3c-0.5,0.4-1.3-0.1-1.1-0.8
		l1.5-4.9l-4.1-3c-0.5-0.4-0.3-1.2,0.4-1.2l5.1,0l1.6-4.9c0.2-0.6,1.1-0.6,1.3,0l1.6,4.9l5.1,0C94,86.1,94.3,87,93.7,87.4z
		 M93.7,61.9l-4.1,3l1.5,4.9c0.2,0.6-0.5,1.2-1.1,0.8l-4.2-3l-4.2,3c-0.5,0.4-1.3-0.1-1.1-0.8l1.5-4.9l-4.1-3
		c-0.5-0.4-0.3-1.2,0.4-1.2l5.1,0l1.6-4.9c0.2-0.6,1.1-0.6,1.3,0l1.6,4.9l5.1,0C94,60.7,94.3,61.5,93.7,61.9z M93.7,36.5l-4.1,3
		l1.5,4.9c0.2,0.6-0.5,1.2-1.1,0.8l-4.2-3l-4.2,3c-0.5,0.4-1.3-0.1-1.1-0.8l1.5-4.9l-4.1-3c-0.5-0.4-0.3-1.2,0.4-1.2l5.1,0l1.6-4.9
		c0.2-0.6,1.1-0.6,1.3,0l1.6,4.9l5.1,0C94,35.2,94.3,36.1,93.7,36.5z M113.5,125.8l-4.1,3l1.5,4.9c0.2,0.6-0.5,1.2-1.1,0.8l-4.2-3
		l-4.2,3c-0.5,0.4-1.3-0.1-1.1-0.8l1.5-4.9l-4.1-3c-0.5-0.4-0.3-1.2,0.4-1.2l5.1,0l1.6-4.9c0.2-0.6,1.1-0.6,1.3,0l1.6,4.9l5.1,0
		C113.7,124.6,114,125.4,113.5,125.8z M113.5,100.3l-4.1,3l1.5,4.9c0.2,0.6-0.5,1.2-1.1,0.8l-4.2-3l-4.2,3c-0.5,0.4-1.3-0.1-1.1-0.8
		l1.5-4.9l-4.1-3c-0.5-0.4-0.3-1.2,0.4-1.2l5.1,0l1.6-4.9c0.2-0.6,1.1-0.6,1.3,0l1.6,4.9l5.1,0C113.7,99.1,114,100,113.5,100.3z
		 M113.5,74.9l-4.1,3l1.5,4.9c0.2,0.6-0.5,1.2-1.1,0.8l-4.2-3l-4.2,3c-0.5,0.4-1.3-0.1-1.1-0.8l1.5-4.9l-4.1-3
		c-0.5-0.4-0.3-1.2,0.4-1.2l5.1,0l1.6-4.9c0.2-0.6,1.1-0.6,1.3,0l1.6,4.9l5.1,0C113.7,73.7,114,74.5,113.5,74.9z M113.5,49.4l-4.1,3
		l1.5,4.9c0.2,0.6-0.5,1.2-1.1,0.8l-4.2-3l-4.2,3c-0.5,0.4-1.3-0.1-1.1-0.8l1.5-4.9l-4.1-3c-0.5-0.4-0.3-1.2,0.4-1.2l5.1,0l1.6-4.9
		c0.2-0.6,1.1-0.6,1.3,0l1.6,4.9l5.1,0C113.7,48.2,114,49,113.5,49.4z M113.5,24l-4.1,3l1.5,4.9c0.2,0.6-0.5,1.2-1.1,0.8l-4.2-3
		l-4.2,3c-0.5,0.4-1.3-0.1-1.1-0.8L102,27l-4.1-3c-0.5-0.4-0.3-1.2,0.4-1.2l5.1,0l1.6-4.9c0.2-0.6,1.1-0.6,1.3,0l1.6,4.9l5.1,0
		C113.7,22.7,114,23.6,113.5,24z"/>
	<path class="st0" d="M12.1,95.3l-1.5-4.9l4.1-3c0.5-0.4,0.3-1.2-0.4-1.2l-2.4,0c-1.2,2.7-2.2,5.5-3.2,8.3l2.3,1.7
		C11.6,96.5,12.3,95.9,12.1,95.3z"/>
	<path class="st0" d="M2.7,121.5l4.2-3l4.2,3c0.5,0.4,1.3-0.1,1.1-0.8l-1.5-4.9l4.1-3c0.5-0.4,0.3-1.2-0.4-1.2l-5.1,0l-1.6-4.9
		c-0.2-0.6-1.1-0.6-1.3,0l-1.6,4.9l-0.6,0c-0.3,1.4-0.6,2.9-0.8,4.3l0.1,0l-0.1,0.4c-0.3,1.8-0.6,3.6-0.8,5.4
		C2.4,121.7,2.6,121.6,2.7,121.5z"/>
	<path class="st0" d="M31.9,57.4l-1-3.3c-0.7,0.9-1.3,1.7-2,2.6l2,1.4C31.3,58.5,32.1,58,31.9,57.4z"/>
	<path class="st0" d="M34,73.6l-5.1,0l-1.6-4.9c-0.2-0.6-1.1-0.6-1.3,0l-1.6,4.9l-5.1,0c-0.7,0-0.9,0.9-0.4,1.2l4.1,3l-1.5,4.9
		c-0.2,0.6,0.5,1.2,1.1,0.8l4.2-3l4.2,3c0.5,0.4,1.3-0.1,1.1-0.8l-1.5-4.9l4.1-3C35,74.5,34.7,73.7,34,73.6z"/>
	<path class="st0" d="M34,99.1l-5.1,0l-1.6-4.9c-0.2-0.6-1.1-0.6-1.3,0l-1.6,4.9l-5.1,0c-0.7,0-0.9,0.9-0.4,1.2l4.1,3l-1.5,4.9
		c-0.2,0.6,0.5,1.2,1.1,0.8l4.2-3l4.2,3c0.5,0.4,1.3-0.1,1.1-0.8l-1.5-4.9l4.1-3C35,100,34.7,99.1,34,99.1z"/>
	<path class="st0" d="M34,124.6l-5.1,0l-1.6-4.9c-0.2-0.6-1.1-0.6-1.3,0l-1.6,4.9l-5.1,0c-0.7,0-0.9,0.9-0.4,1.2l4.1,3l-1.5,4.9
		c-0.2,0.6,0.5,1.2,1.1,0.8l4.2-3l4.2,3c0.5,0.4,1.3-0.1,1.1-0.8l-1.5-4.9l4.1-3C35,125.4,34.7,124.6,34,124.6z"/>
	<path class="st0" d="M42.2,45.2l4.2-3l4.2,3c0.5,0.4,1.3-0.1,1.1-0.8l-1.5-4.9l4.1-3c0.5-0.4,0.3-1.2-0.4-1.2l-4.9,0
		c-2.3,2-4.6,4.2-6.8,6.3l-0.9,2.9C41,45,41.7,45.6,42.2,45.2z"/>
	<path class="st0" d="M53.8,60.7l-5.1,0L47,55.8c-0.2-0.6-1.1-0.6-1.3,0l-1.6,4.9l-5.1,0c-0.7,0-0.9,0.9-0.4,1.2l4.1,3l-1.5,4.9
		c-0.2,0.6,0.5,1.2,1.1,0.8l4.2-3l4.2,3c0.5,0.4,1.3-0.1,1.1-0.8L50.1,65l4.1-3C54.7,61.5,54.5,60.7,53.8,60.7z"/>
	<path class="st0" d="M53.8,86.1l-5.1,0L47,81.2c-0.2-0.6-1.1-0.6-1.3,0l-1.6,4.9l-5.1,0c-0.7,0-0.9,0.9-0.4,1.2l4.1,3l-1.5,4.9
		c-0.2,0.6,0.5,1.2,1.1,0.8l4.2-3l4.2,3c0.5,0.4,1.3-0.1,1.1-0.8l-1.5-4.9l4.1-3C54.7,87,54.5,86.1,53.8,86.1z"/>
	<path class="st0" d="M53.8,111.6l-5.1,0l-1.6-4.9c-0.2-0.6-1.1-0.6-1.3,0l-1.6,4.9l-5.1,0c-0.7,0-0.9,0.9-0.4,1.2l4.1,3l-1.5,4.9
		c-0.2,0.6,0.5,1.2,1.1,0.8l4.2-3l4.2,3c0.5,0.4,1.3-0.1,1.1-0.8l-1.5-4.9l4.1-3C54.7,112.4,54.5,111.6,53.8,111.6z"/>
	<path class="st0" d="M60.9,31.9c-0.2,0.6,0.5,1.2,1.1,0.8l4.2-3l4.2,3c0.5,0.4,1.3-0.1,1.1-0.8L69.8,27l4.1-3
		c0.5-0.4,0.3-1.2-0.4-1.2l-5.1,0l-0.5-1.5c-2.4,1.5-4.8,3-7.1,4.6l1.6,1.2L60.9,31.9z"/>
	<path class="st0" d="M73.6,48.2l-5.1,0l-1.6-4.9c-0.2-0.6-1.1-0.6-1.3,0l-1.6,4.9l-5.1,0c-0.7,0-0.9,0.9-0.4,1.2l4.1,3l-1.5,4.9
		c-0.2,0.6,0.5,1.2,1.1,0.8l4.2-3l4.2,3c0.5,0.4,1.3-0.1,1.1-0.8l-1.5-4.9l4.1-3C74.5,49,74.2,48.2,73.6,48.2z"/>
	<path class="st0" d="M73.6,73.6l-5.1,0l-1.6-4.9c-0.2-0.6-1.1-0.6-1.3,0l-1.6,4.9l-5.1,0c-0.7,0-0.9,0.9-0.4,1.2l4.1,3l-1.5,4.9
		c-0.2,0.6,0.5,1.2,1.1,0.8l4.2-3l4.2,3c0.5,0.4,1.3-0.1,1.1-0.8l-1.5-4.9l4.1-3C74.5,74.5,74.2,73.7,73.6,73.6z"/>
	<path class="st0" d="M73.6,99.1l-5.1,0l-1.6-4.9c-0.2-0.6-1.1-0.6-1.3,0l-1.6,4.9l-5.1,0c-0.7,0-0.9,0.9-0.4,1.2l4.1,3l-1.5,4.9
		c-0.2,0.6,0.5,1.2,1.1,0.8l4.2-3l4.2,3c0.5,0.4,1.3-0.1,1.1-0.8l-1.5-4.9l4.1-3C74.5,100,74.2,99.1,73.6,99.1z"/>
	<path class="st0" d="M73.6,124.6l-5.1,0l-1.6-4.9c-0.2-0.6-1.1-0.6-1.3,0l-1.6,4.9l-5.1,0c-0.7,0-0.9,0.9-0.4,1.2l4.1,3l-1.5,4.9
		c-0.2,0.6,0.5,1.2,1.1,0.8l4.2-3l4.2,3c0.5,0.4,1.3-0.1,1.1-0.8l-1.5-4.9l4.1-3C74.5,125.4,74.2,124.6,73.6,124.6z"/>
	<path class="st0" d="M93.3,35.2l-5.1,0l-1.6-4.9c-0.2-0.6-1.1-0.6-1.3,0l-1.6,4.9l-5.1,0c-0.7,0-0.9,0.9-0.4,1.2l4.1,3l-1.5,4.9
		c-0.2,0.6,0.5,1.2,1.1,0.8l4.2-3l4.2,3c0.5,0.4,1.3-0.1,1.1-0.8l-1.5-4.9l4.1-3C94.3,36.1,94,35.2,93.3,35.2z"/>
	<path class="st0" d="M93.3,60.7l-5.1,0l-1.6-4.9c-0.2-0.6-1.1-0.6-1.3,0l-1.6,4.9l-5.1,0c-0.7,0-0.9,0.9-0.4,1.2l4.1,3l-1.5,4.9
		c-0.2,0.6,0.5,1.2,1.1,0.8l4.2-3l4.2,3c0.5,0.4,1.3-0.1,1.1-0.8L89.6,65l4.1-3C94.3,61.5,94,60.7,93.3,60.7z"/>
	<path class="st0" d="M93.3,86.1l-5.1,0l-1.6-4.9c-0.2-0.6-1.1-0.6-1.3,0l-1.6,4.9l-5.1,0c-0.7,0-0.9,0.9-0.4,1.2l4.1,3l-1.5,4.9
		c-0.2,0.6,0.5,1.2,1.1,0.8l4.2-3l4.2,3c0.5,0.4,1.3-0.1,1.1-0.8l-1.5-4.9l4.1-3C94.3,87,94,86.1,93.3,86.1z"/>
	<path class="st0" d="M93.3,111.6l-5.1,0l-1.6-4.9c-0.2-0.6-1.1-0.6-1.3,0l-1.6,4.9l-5.1,0c-0.7,0-0.9,0.9-0.4,1.2l4.1,3l-1.5,4.9
		c-0.2,0.6,0.5,1.2,1.1,0.8l4.2-3l4.2,3c0.5,0.4,1.3-0.1,1.1-0.8l-1.5-4.9l4.1-3C94.3,112.4,94,111.6,93.3,111.6z"/>
	<path class="st0" d="M113.1,22.7l-5.1,0l-1.6-4.9c-0.2-0.6-1.1-0.6-1.3,0l-1.6,4.9l-5.1,0c-0.7,0-0.9,0.9-0.4,1.2l4.1,3l-1.5,4.9
		c-0.2,0.6,0.5,1.2,1.1,0.8l4.2-3l4.2,3c0.5,0.4,1.3-0.1,1.1-0.8l-1.5-4.9l4.1-3C114,23.6,113.7,22.7,113.1,22.7z"/>
	<path class="st0" d="M113.1,48.2l-5.1,0l-1.6-4.9c-0.2-0.6-1.1-0.6-1.3,0l-1.6,4.9l-5.1,0c-0.7,0-0.9,0.9-0.4,1.2l4.1,3l-1.5,4.9
		c-0.2,0.6,0.5,1.2,1.1,0.8l4.2-3l4.2,3c0.5,0.4,1.3-0.1,1.1-0.8l-1.5-4.9l4.1-3C114,49,113.7,48.2,113.1,48.2z"/>
	<path class="st0" d="M113.1,73.6l-5.1,0l-1.6-4.9c-0.2-0.6-1.1-0.6-1.3,0l-1.6,4.9l-5.1,0c-0.7,0-0.9,0.9-0.4,1.2l4.1,3l-1.5,4.9
		c-0.2,0.6,0.5,1.2,1.1,0.8l4.2-3l4.2,3c0.5,0.4,1.3-0.1,1.1-0.8l-1.5-4.9l4.1-3C114,74.5,113.7,73.7,113.1,73.6z"/>
	<path class="st0" d="M113.1,99.1l-5.1,0l-1.6-4.9c-0.2-0.6-1.1-0.6-1.3,0l-1.6,4.9l-5.1,0c-0.7,0-0.9,0.9-0.4,1.2l4.1,3l-1.5,4.9
		c-0.2,0.6,0.5,1.2,1.1,0.8l4.2-3l4.2,3c0.5,0.4,1.3-0.1,1.1-0.8l-1.5-4.9l4.1-3C114,100,113.7,99.1,113.1,99.1z"/>
	<path class="st0" d="M113.1,124.6l-5.1,0l-1.6-4.9c-0.2-0.6-1.1-0.6-1.3,0l-1.6,4.9l-5.1,0c-0.7,0-0.9,0.9-0.4,1.2l4.1,3l-1.5,4.9
		c-0.2,0.6,0.5,1.2,1.1,0.8l4.2-3l4.2,3c0.5,0.4,1.3-0.1,1.1-0.8l-1.5-4.9l4.1-3C114,125.4,113.7,124.6,113.1,124.6z"/>
	<path class="st2" d="M274.6,103.6c-1.9-7-4.3-13.8-7.3-20.3l-31,20.3H274.6z"/>
	<path class="st2" d="M37.3,234c17.6,19.3,40.4,33.6,66.3,40.6v-84.1L37.3,234z"/>
	<path class="st2" d="M140.3,279.5C140.3,279.5,140.3,279.5,140.3,279.5L140.3,279.5C140.3,279.5,140.3,279.5,140.3,279.5z"/>
	<path class="st2" d="M176.9,274.6c25.9-7,48.8-21.4,66.3-40.6l-66.3-43.5V274.6z"/>
	<path class="st2" d="M267.4,197.2c2.9-6.5,5.4-13.3,7.3-20.3h-38.3L267.4,197.2z"/>
	<path class="st0" d="M236.3,103.6l31-20.3c-2.4-5.4-5.2-10.6-8.2-15.6l-55.3,35.9h-7.6l-6.9,4.5l-0.1,0l-15.4,10.1h104
		c-0.8-5-1.8-9.9-3.2-14.7H236.3z"/>
	<path class="st0" d="M106.7,162.2l-15.5,10.2l-0.1,0l-6.8,4.5h18.9l-73.7,47.8c2.4,3.2,5,6.3,7.7,9.3l66.3-43.5v84.1
		c4.8,1.3,9.7,2.4,14.7,3.1V162.2H106.7z"/>
	<path class="st0" d="M162.3,277.8c5-0.8,9.9-1.8,14.7-3.2v-84.1l66.3,43.5c4.1-4.5,7.8-9.2,11.3-14.2l-66.2-42.9h26.9l47,30.5
		c1.8-3.3,3.5-6.7,5.1-10.2l-31-20.3h38.3c1.3-4.8,2.4-9.7,3.1-14.7H162.3V277.8z"/>
	<path class="st1" d="M173.8,118.3l-17.2,11.3l-0.1,0L123.9,151l-0.1,0l-17.1,11.2h11.6v115.6c7.2,1.1,14.5,1.7,22,1.7h0
		c7.5,0,14.8-0.6,22-1.7V162.2h115.5c1.1-7.2,1.7-14.5,1.7-22c0-7.5-0.6-14.8-1.7-22H173.8z"/>
	<path class="st1" d="M84.3,176.9l-25.8,16.9l-0.1,0l-32.6,21.4l-0.1,0l-2,1.3c1.8,2.8,3.8,5.5,5.8,8.1l73.7-47.8H84.3z"/>
	<path class="st1" d="M188.4,176.9l66.2,42.9c2.8-4,5.4-8.2,7.7-12.5l-47-30.5H188.4z"/>
	<path class="st1" d="M254.7,65.3L222,86.7l-0.1,0l-25.8,16.9h7.6l55.3-35.9c-0.8-1.3-1.6-2.5-2.4-3.8L254.7,65.3L254.7,65.3z"/>
</g>
</svg>
