<?xml version="1.0" encoding="utf-8"?>
<!-- Generator: Adobe Illustrator 27.7.0, SVG Export Plug-In . SVG Version: 6.00 Build 0)  -->
<svg version="1.1" id="Layer_1" xmlns="http://www.w3.org/2000/svg" xmlns:xlink="http://www.w3.org/1999/xlink" x="0px" y="0px"
	 viewBox="0 0 280.6 280.6" style="enable-background:new 0 0 280.6 280.6;" xml:space="preserve">
<style type="text/css">
	.st0{fill:none;stroke:#000000;stroke-width:2;stroke-miterlimit:10;}
	.st1{fill:#82AFFF;stroke:#000000;stroke-width:2;stroke-miterlimit:10;}
	.st2{fill:#F5F5F5;stroke:#000000;stroke-width:2;stroke-miterlimit:10;}
	.st3{fill:#F09146;stroke:#000000;stroke-width:2;stroke-miterlimit:10;}
	.st4{fill:#FFE15A;stroke:#000000;stroke-width:2;stroke-miterlimit:10;}
	.st5{fill:#C8414B;stroke:#000000;stroke-width:2;stroke-miterlimit:10;}
	.st6{fill:#FFD250;stroke:#000000;stroke-width:2;stroke-miterlimit:10;}
	.st7{fill:#FAB446;stroke:#000000;stroke-width:2;stroke-miterlimit:10;}
	.st8{fill:#5064AA;stroke:#000000;stroke-width:2;stroke-miterlimit:10;}
</style>
<g>
	<polygon class="st0" points="155.6,130.2 125,150.3 114,157.5 114.6,157.1 256.8,64 256.8,64 211.2,93.9 	"/>
	<path class="st0" d="M140.3,1C140.3,1,140.3,1,140.3,1L140.3,1C140.3,1,140.3,1,140.3,1z"/>
	<path class="st0" d="M140.3,279.6C140.3,279.6,140.3,279.6,140.3,279.6C140.3,279.6,140.3,279.6,140.3,279.6L140.3,279.6z"/>
	<polygon class="st0" points="55.5,195.8 63.9,190.3 69.4,186.7 8.9,186.7 8.9,186.7 69.4,186.7 	"/>
	<path class="st1" d="M256.8,64C231.9,26,189,1,140.3,1h0C79.6,1,28.1,39.8,8.9,93.9h202.2L256.8,64z"/>
	<path class="st1" d="M55.5,195.8l13.9-9.1H8.9c3.8,10.6,8.8,20.6,14.8,29.9l27-17.7L55.5,195.8z"/>
	<path class="st2" d="M73.9,183.8l5-3.3l10-6.6l11-7.2l3.2-2.1l7.4-4.9l3.4-2.2l10.9-7.2c-0.3-0.4-0.5-0.8-0.8-1.3
		c-0.7,0.6-1.6,1.3-3.2,2c-2,0.8-3.3,0.9-4.4,0.9c-0.9,0-1.6,0-3,0.6c-1.4,0.6-1.9,1.1-2.6,1.7c-0.8,0.8-1.7,1.6-3.7,2.5l-1.4-3.4
		c1.4-0.6,1.9-1.1,2.5-1.7c0.8-0.8,1.7-1.6,3.7-2.5c2-0.8,3.3-0.9,4.4-0.9c0.9,0,1.6,0,3-0.6c1.4-0.6,1.9-1.1,2.5-1.7
		c0.2-0.2,0.4-0.3,0.5-0.5c-0.3-1.1-0.5-2.2-0.6-3.3h-18.4v-3.7h18.4c0.1-1.1,0.3-2.3,0.7-3.3c-0.9,0-2-0.2-3.6-0.9
		c-2-0.8-2.9-1.7-3.7-2.5c-0.7-0.6-1.2-1.1-2.6-1.7c-1.4-0.6-2.1-0.6-3-0.6c-1.1,0-2.3,0-4.4-0.9l1.4-3.4c1.4,0.6,2.1,0.6,3,0.6
		c1.1,0,2.3,0,4.4,0.9c2,0.8,2.9,1.7,3.7,2.5c0.7,0.6,1.2,1.1,2.5,1.7c1.4,0.6,2.1,0.6,3,0.6c0.2,0,0.5,0,0.7,0
		c0.5-1,1.2-1.9,1.9-2.8l-13-13l2.6-2.6l13,13c0.9-0.7,1.8-1.3,2.8-1.9c0-0.3,0-0.6,0-0.9c0-0.9,0-1.6-0.6-3
		c-0.6-1.4-1.1-1.9-1.7-2.5c-0.8-0.8-1.6-1.7-2.5-3.7c-0.8-2-0.8-3.2-0.9-4.3c0-0.9,0-1.6-0.6-3l3.4-1.4c0.8,2,0.8,3.2,0.9,4.3
		c0,0.9,0,1.6,0.6,3c0.6,1.4,1.1,1.9,1.7,2.5c0.8,0.8,1.6,1.7,2.5,3.7c0.7,1.7,0.8,2.8,0.9,3.8c1.1-0.3,2.2-0.5,3.4-0.7v-18.4h3.7
		v18.4c1.1,0.1,2.2,0.3,3.3,0.6c0.2-0.2,0.4-0.5,0.6-0.7c0.6-0.6,1.1-1.2,1.7-2.5c0.6-1.4,0.6-2.1,0.6-3c0-1.1,0-2.3,0.9-4.3
		c0.8-2,1.7-2.9,2.5-3.7c0.6-0.6,1.1-1.2,1.7-2.5l3.4,1.4c-0.8,2-1.7,2.9-2.5,3.7c-0.6,0.6-1.1,1.2-1.7,2.5c-0.6,1.4-0.6,2.1-0.6,3
		c0,1.1,0,2.3-0.9,4.3c-0.7,1.7-1.4,2.6-2.1,3.3c1,0.6,2,1.2,2.9,1.9l13-13l2.6,2.6l-13,13c0.4,0.5,0.8,1,1.1,1.6l55.5-36.4H8.9
		C3.8,108.4,1,124,1,140.3c0,16.3,2.8,31.9,7.9,46.4h60.5L73.9,183.8z"/>
	<path class="st3" d="M134.2,118.9c-0.8-2-1.7-2.9-2.5-3.7c-0.6-0.6-1.1-1.2-1.7-2.5c-0.6-1.4-0.6-2.1-0.6-3c0-1.1,0-2.3-0.9-4.3
		l-3.4,1.4c0.6,1.4,0.6,2.1,0.6,3c0,1.1,0,2.3,0.9,4.3c0.8,2,1.7,2.9,2.5,3.7c0.6,0.6,1.1,1.2,1.7,2.5c0.6,1.4,0.6,2.1,0.6,3
		c0,0.3,0,0.6,0,0.9c1.1-0.6,2.4-1.1,3.6-1.5C135,121.8,134.9,120.6,134.2,118.9z"/>
	<path class="st3" d="M123.5,131.5c-0.9,0-1.6,0-3-0.6c-1.4-0.6-1.9-1.1-2.5-1.7c-0.8-0.8-1.7-1.6-3.7-2.5c-2-0.8-3.3-0.9-4.4-0.9
		c-0.9,0-1.6,0-3-0.6l-1.4,3.4c2,0.8,3.3,0.9,4.4,0.9c0.9,0,1.6,0,3,0.6c1.4,0.6,1.9,1.1,2.6,1.7c0.8,0.8,1.7,1.6,3.7,2.5
		c1.6,0.7,2.7,0.8,3.6,0.9c0.4-1.3,0.9-2.5,1.5-3.6C124,131.5,123.7,131.5,123.5,131.5z"/>
	<path class="st3" d="M122.1,138.5h-18.4v3.7h18.4c-0.1-0.6-0.1-1.2-0.1-1.8C122,139.7,122,139.1,122.1,138.5z"/>
	<path class="st3" d="M142.1,122.1v-18.4h-3.7v18.4c0.6-0.1,1.2-0.1,1.8-0.1C140.9,122,141.5,122,142.1,122.1z"/>
	<path class="st3" d="M154.5,128.7l13-13l-2.6-2.6l-13,13C152.8,126.9,153.7,127.7,154.5,128.7z"/>
	<path class="st3" d="M151.1,120.9c0.8-2,0.8-3.3,0.9-4.3c0-0.9,0-1.6,0.6-3c0.6-1.4,1.1-1.9,1.7-2.5c0.8-0.8,1.6-1.7,2.5-3.7
		l-3.4-1.4c-0.6,1.4-1.1,1.9-1.7,2.5c-0.8,0.8-1.6,1.7-2.5,3.7c-0.8,2-0.8,3.3-0.9,4.3c0,0.9,0,1.6-0.6,3c-0.6,1.4-1.1,1.9-1.7,2.5
		c-0.2,0.2-0.4,0.4-0.6,0.7c1.3,0.4,2.5,0.9,3.6,1.5C149.7,123.5,150.4,122.6,151.1,120.9z"/>
	<path class="st3" d="M122.2,146c-0.7,0.6-1.2,1.1-2.5,1.7c-1.4,0.6-2.1,0.6-3,0.6c-1.1,0-2.3,0-4.4,0.9c-2,0.8-2.9,1.7-3.7,2.5
		c-0.7,0.6-1.2,1.1-2.5,1.7l1.4,3.4c2-0.8,2.9-1.7,3.7-2.5c0.7-0.6,1.2-1.1,2.6-1.7c1.4-0.6,2.1-0.6,3-0.6c1.1,0,2.3,0,4.4-0.9
		c1.6-0.7,2.5-1.3,3.2-2c-0.6-1.1-1.1-2.4-1.5-3.6C122.5,145.6,122.3,145.8,122.2,146z"/>
	<path class="st3" d="M128.7,126.1l-13-13l-2.6,2.6l13,13C126.9,127.7,127.7,126.9,128.7,126.1z"/>
	<path class="st4" d="M154.5,128.7c-0.8-0.9-1.6-1.8-2.6-2.6c-0.9-0.7-1.8-1.4-2.9-1.9c-1.1-0.6-2.4-1.1-3.6-1.5
		c-1.1-0.3-2.1-0.5-3.3-0.6c-0.6-0.1-1.2-0.1-1.8-0.1c-0.6,0-1.2,0-1.8,0.1c-1.2,0.1-2.3,0.3-3.4,0.7c-1.3,0.4-2.5,0.9-3.6,1.5
		c-1,0.5-1.9,1.2-2.8,1.9c-0.9,0.8-1.8,1.6-2.6,2.6c-0.7,0.9-1.3,1.8-1.9,2.8c-0.6,1.1-1.1,2.4-1.5,3.6c-0.3,1.1-0.5,2.2-0.7,3.3
		c-0.1,0.6-0.1,1.2-0.1,1.8c0,0.6,0,1.2,0.1,1.8c0.1,1.1,0.3,2.2,0.6,3.3c0.4,1.3,0.9,2.5,1.5,3.6c0.2,0.4,0.5,0.9,0.8,1.3
		l30.7-20.1C155.3,129.7,154.9,129.2,154.5,128.7z"/>
	<path class="st5" d="M253.9,220.9H26.7c25.2,35.5,66.7,58.6,113.6,58.6h0C187.2,279.6,228.6,256.4,253.9,220.9z"/>
	<path class="st6" d="M279.6,140.3c0-28.2-8.4-54.4-22.8-76.3l-142.2,93.1v4l3.7,1.2v7.3l-3.7-1.2v15.9h7.3v7.3h0v7.3H92.6v-7.3h7.3
		v-3.7v-3.7v-17.6l-11,7.2c-0.1,2.7-0.8,5.3-2,7.7c-3.8,8.3-13.9,17.4-34.7,17.4c-0.5,0-1,0-1.5,0l-27,17.7c1,1.5,1.9,2.9,2.9,4.3
		h227.2C270.1,198.2,279.6,170.3,279.6,140.3z"/>
	<polygon class="st2" points="103.2,164.6 100,166.7 100,184.3 114.6,184.3 114.6,168.4 	"/>
	<polygon class="st2" points="110.6,159.7 114.6,161.1 114.6,157.1 114,157.5 	"/>
	<polygon class="st5" points="110.6,159.7 103.2,164.6 114.6,168.4 118.3,169.6 118.3,162.3 114.6,161.1 	"/>
	<path class="st2" d="M70.6,191.6c-2.4,0-4.6-0.5-6.7-1.3l-8.4,5.5l-4.7,3.1c0.5,0,1,0,1.5,0c20.8,0,30.8-9,34.7-17.4
		C84,187.5,77.8,191.6,70.6,191.6z"/>
	<path class="st5" d="M73.9,183.8l-4.5,2.9l-5.5,3.6c2.1,0.8,4.4,1.3,6.7,1.3c7.1,0,13.3-4.1,16.3-10c1.2-2.3,1.9-4.9,2-7.7l-10,6.6
		C77.6,182,75.9,183.2,73.9,183.8z"/>
	<polygon class="st7" points="100,187.9 100,191.6 122,191.6 122,191.6 122,191.6 122,184.3 114.6,184.3 100,184.3 	"/>
	<polygon class="st8" points="100,191.6 92.6,191.6 92.6,198.9 122,198.9 122,191.6 122,191.6 	"/>
	<path class="st7" d="M78.9,180.5l-5,3.3C75.9,183.2,77.6,182,78.9,180.5z"/>
</g>
</svg>
