<?xml version="1.0" encoding="utf-8"?>
<!-- Generator: Adobe Illustrator 27.7.0, SVG Export Plug-In . SVG Version: 6.00 Build 0)  -->
<svg version="1.1" id="Layer_1" xmlns="http://www.w3.org/2000/svg" xmlns:xlink="http://www.w3.org/1999/xlink" x="0px" y="0px"
	 viewBox="0 0 427.2 280.6" style="enable-background:new 0 0 427.2 280.6;" xml:space="preserve">
<style type="text/css">
	.st0{fill:none;stroke:#000000;stroke-width:2;stroke-miterlimit:10;}
	.st1{fill:#82AFFF;stroke:#000000;stroke-width:2;stroke-miterlimit:10;}
	.st2{fill:#F5F5F5;stroke:#000000;stroke-width:2;stroke-miterlimit:10;}
	.st3{fill:#F09146;stroke:#000000;stroke-width:2;stroke-miterlimit:10;}
	.st4{fill:#FFE15A;stroke:#000000;stroke-width:2;stroke-miterlimit:10;}
	.st5{fill:#C8414B;stroke:#000000;stroke-width:2;stroke-miterlimit:10;}
	.st6{fill:#FFD250;stroke:#000000;stroke-width:2;stroke-miterlimit:10;}
	.st7{fill:#FAB446;stroke:#000000;stroke-width:2;stroke-miterlimit:10;}
	.st8{fill:#5064AA;stroke:#000000;stroke-width:2;stroke-miterlimit:10;}
</style>
<g>
	<g>
		<path class="st0" d="M394.4,1c7.8,0,14.9,2.8,20.5,7.5"/>
		<path class="st0" d="M1,32.8C1,15.3,15.3,1,32.8,1"/>
		<polygon class="st0" points="142.7,186.7 1,186.7 1,186.7 142.7,186.7 		"/>
		<path class="st0" d="M12.4,272.1C5.4,266.3,1,257.5,1,247.7"/>
		<path class="st1" d="M414.8,8.5C409.3,3.8,402.1,1,394.4,1H32.8C15.3,1,1,15.3,1,32.8v61h283.5L414.8,8.5z"/>
		<path class="st1" d="M12.4,272.1l130.4-85.4H1v61C1,257.5,5.4,266.3,12.4,272.1z"/>
		<path class="st2" d="M198.3,150.3c-0.3-0.4-0.5-0.8-0.8-1.3c-0.7,0.6-1.6,1.3-3.2,2c-2,0.8-3.3,0.9-4.4,0.9c-0.9,0-1.6,0-3,0.6
			c-1.4,0.6-1.9,1.1-2.6,1.7c-0.8,0.8-1.7,1.6-3.7,2.5l-1.4-3.4c1.4-0.6,1.9-1.1,2.5-1.7c0.8-0.8,1.7-1.6,3.7-2.5
			c2-0.8,3.3-0.9,4.4-0.9c0.9,0,1.6,0,3-0.6c1.4-0.6,1.9-1.1,2.5-1.7c0.2-0.2,0.4-0.3,0.5-0.5c-0.3-1.1-0.5-2.2-0.6-3.3h-18.4v-3.7
			h18.4c0.1-1.1,0.3-2.3,0.7-3.3c-0.9,0-2-0.2-3.6-0.9c-2-0.8-2.9-1.7-3.7-2.5c-0.7-0.6-1.2-1.1-2.6-1.7c-1.4-0.6-2.1-0.6-3-0.6
			c-1.1,0-2.3,0-4.4-0.9l1.4-3.4c1.4,0.6,2.1,0.6,3,0.6c1.1,0,2.3,0,4.4,0.9c2,0.8,2.9,1.7,3.7,2.5c0.7,0.6,1.2,1.1,2.5,1.7
			c1.4,0.6,2.1,0.6,3,0.6c0.2,0,0.5,0,0.7,0c0.5-1,1.2-1.9,1.9-2.8l-13-13l2.6-2.6l13,13c0.9-0.7,1.8-1.3,2.8-1.9c0-0.3,0-0.6,0-0.9
			c0-0.9,0-1.6-0.6-3c-0.6-1.4-1.1-1.9-1.7-2.5c-0.8-0.8-1.6-1.7-2.5-3.7c-0.8-2-0.8-3.2-0.9-4.3c0-0.9,0-1.6-0.6-3l3.4-1.4
			c0.8,2,0.8,3.2,0.9,4.3c0,0.9,0,1.6,0.6,3c0.6,1.4,1.1,1.9,1.7,2.5c0.8,0.8,1.6,1.7,2.5,3.7c0.7,1.7,0.8,2.8,0.9,3.8
			c1.1-0.3,2.2-0.5,3.4-0.7v-18.4h3.7v18.4c1.1,0.1,2.2,0.3,3.3,0.6c0.2-0.2,0.4-0.5,0.6-0.7c0.6-0.6,1.1-1.2,1.7-2.5
			c0.6-1.4,0.6-2.1,0.6-3c0-1.1,0-2.3,0.9-4.3c0.8-2,1.7-2.9,2.5-3.7c0.6-0.6,1.1-1.2,1.7-2.5l3.4,1.4c-0.8,2-1.7,2.9-2.5,3.7
			c-0.6,0.6-1.1,1.2-1.7,2.5c-0.6,1.4-0.6,2.1-0.6,3c0,1.1,0,2.3-0.9,4.3c-0.7,1.7-1.4,2.6-2.1,3.3c1,0.6,2,1.2,2.9,1.9l13-13
			l2.6,2.6l-13,13c0.4,0.5,0.8,1,1.1,1.6l55.5-36.4H1v0v92.9h141.7L198.3,150.3z"/>
		<path class="st3" d="M207.5,118.9c-0.8-2-1.7-2.9-2.5-3.7c-0.6-0.6-1.1-1.2-1.7-2.5c-0.6-1.4-0.6-2.1-0.6-3c0-1.1,0-2.3-0.9-4.3
			l-3.4,1.4c0.6,1.4,0.6,2.1,0.6,3c0,1.1,0,2.3,0.9,4.3c0.8,2,1.7,2.9,2.5,3.7c0.6,0.6,1.1,1.2,1.7,2.5c0.6,1.4,0.6,2.1,0.6,3
			c0,0.3,0,0.6,0,0.9c1.1-0.6,2.4-1.1,3.6-1.5C208.4,121.8,208.2,120.6,207.5,118.9z"/>
		<path class="st3" d="M196.8,131.5c-0.9,0-1.6,0-3-0.6c-1.4-0.6-1.9-1.1-2.5-1.7c-0.8-0.8-1.7-1.6-3.7-2.5c-2-0.8-3.3-0.9-4.4-0.9
			c-0.9,0-1.6,0-3-0.6l-1.4,3.4c2,0.8,3.3,0.9,4.4,0.9c0.9,0,1.6,0,3,0.6c1.4,0.6,1.9,1.1,2.6,1.7c0.8,0.8,1.7,1.6,3.7,2.5
			c1.6,0.7,2.7,0.8,3.6,0.9c0.4-1.3,0.9-2.5,1.5-3.6C197.3,131.5,197,131.5,196.8,131.5z"/>
		<path class="st3" d="M195.4,138.5h-18.4v3.7h18.4c-0.1-0.6-0.1-1.2-0.1-1.8C195.3,139.7,195.3,139.1,195.4,138.5z"/>
		<path class="st3" d="M215.4,122.1v-18.4h-3.7v18.4c0.6-0.1,1.2-0.1,1.8-0.1C214.2,122,214.8,122,215.4,122.1z"/>
		<path class="st3" d="M227.8,128.7l13-13l-2.6-2.6l-13,13C226.1,126.9,227,127.7,227.8,128.7z"/>
		<path class="st3" d="M224.4,120.9c0.8-2,0.8-3.3,0.9-4.3c0-0.9,0-1.6,0.6-3c0.6-1.4,1.1-1.9,1.7-2.5c0.8-0.8,1.6-1.7,2.5-3.7
			l-3.4-1.4c-0.6,1.4-1.1,1.9-1.7,2.5c-0.8,0.8-1.6,1.7-2.5,3.7c-0.8,2-0.8,3.3-0.9,4.3c0,0.9,0,1.6-0.6,3c-0.6,1.4-1.1,1.9-1.7,2.5
			c-0.2,0.2-0.4,0.4-0.6,0.7c1.3,0.4,2.5,0.9,3.6,1.5C223,123.5,223.7,122.6,224.4,120.9z"/>
		<path class="st3" d="M195.5,146c-0.7,0.6-1.2,1.1-2.5,1.7c-1.4,0.6-2.1,0.6-3,0.6c-1.1,0-2.3,0-4.4,0.9c-2,0.8-2.9,1.7-3.7,2.5
			c-0.7,0.6-1.2,1.1-2.5,1.7l1.4,3.4c2-0.8,2.9-1.7,3.7-2.5c0.7-0.6,1.2-1.1,2.6-1.7c1.4-0.6,2.1-0.6,3-0.6c1.1,0,2.3,0,4.4-0.9
			c1.6-0.7,2.5-1.3,3.2-2c-0.6-1.1-1.1-2.4-1.5-3.6C195.8,145.6,195.6,145.8,195.5,146z"/>
		<path class="st3" d="M202,126.1l-13-13l-2.6,2.6l13,13C200.2,127.7,201.1,126.9,202,126.1z"/>
		<path class="st4" d="M225.2,126.1c-0.9-0.7-1.8-1.4-2.9-1.9c-1.1-0.6-2.4-1.1-3.6-1.5c-1.1-0.3-2.1-0.5-3.3-0.6
			c-0.6-0.1-1.2-0.1-1.8-0.1c-0.6,0-1.2,0-1.8,0.1c-1.2,0.1-2.3,0.3-3.4,0.7c-1.3,0.4-2.5,0.9-3.6,1.5c-1,0.5-1.9,1.2-2.8,1.9
			c-0.9,0.8-1.8,1.6-2.6,2.6c-0.7,0.9-1.3,1.8-1.9,2.8c-0.6,1.1-1.1,2.4-1.5,3.6c-0.3,1.1-0.5,2.2-0.7,3.3c-0.1,0.6-0.1,1.2-0.1,1.8
			c0,0.6,0,1.2,0.1,1.8c0.1,1.1,0.3,2.2,0.6,3.3c0.4,1.3,0.9,2.5,1.5,3.6c0.2,0.4,0.5,0.9,0.8,1.3l30.7-20.1
			c-0.4-0.5-0.7-1.1-1.1-1.6C227,127.7,226.1,126.9,225.2,126.1z"/>
	</g>
	<g>
		<path class="st0" d="M414.8,8.5c7,5.8,11.4,14.6,11.4,24.4"/>
		<path class="st0" d="M32.8,279.6c-7.8,0-14.9-2.8-20.5-7.5"/>
		<path class="st0" d="M426.2,247.7c0,17.6-14.3,31.8-31.8,31.8"/>
		<rect x="336.7" y="59.6" class="st0" width="89.5" height="0"/>
		<path class="st5" d="M12.4,272.1c5.5,4.6,12.7,7.5,20.5,7.5h361.5c17.6,0,31.8-14.3,31.8-31.8v-26.8H90.5L12.4,272.1z"/>
		<path class="st5" d="M414.8,8.5l-78.1,51.2h89.5V32.8C426.2,23.1,421.8,14.3,414.8,8.5z"/>
		<path class="st6" d="M187.9,157.1v4l3.7,1.2v7.3l-3.7-1.2v15.9h7.3v7.3h0v7.3h-29.3v-7.3h7.3v-3.7v-3.7v-17.6l-11,7.2
			c-0.1,2.7-0.8,5.3-2,7.7c-3.8,8.3-13.9,17.4-34.7,17.4c-0.5,0-1,0-1.5,0l-33.6,22h335.7v0V59.7h-89.5L187.9,157.1z"/>
		<polygon class="st2" points="187.9,184.3 187.9,168.4 176.5,164.6 173.3,166.7 173.3,184.3 		"/>
		<polygon class="st2" points="187.9,157.1 183.9,159.7 187.9,161.1 		"/>
		<polygon class="st5" points="191.6,169.6 191.6,162.3 187.9,161.1 183.9,159.7 176.5,164.6 187.9,168.4 		"/>
		<path class="st2" d="M160.3,181.6c-3,6-9.2,10-16.3,10c-2.4,0-4.6-0.5-6.7-1.3l-13.1,8.6c0.5,0,1,0,1.5,0
			C146.4,198.9,156.4,189.9,160.3,181.6z"/>
		<path class="st5" d="M160.3,181.6c1.2-2.3,1.9-4.9,2-7.7l-10,6.6c-1.3,1.5-3,2.7-5,3.3l-10,6.5c2.1,0.8,4.4,1.3,6.7,1.3
			C151.1,191.6,157.3,187.5,160.3,181.6z"/>
		<polygon class="st7" points="173.3,187.9 173.3,191.6 195.3,191.6 195.3,191.6 195.3,191.6 195.3,184.3 187.9,184.3 173.3,184.3 
					"/>
		<polygon class="st8" points="173.3,191.6 165.9,191.6 165.9,198.9 195.3,198.9 195.3,191.6 195.3,191.6 		"/>
		<path class="st7" d="M152.2,180.5l-5,3.3C149.2,183.2,150.9,182,152.2,180.5z"/>
	</g>
</g>
</svg>
